<svg id="Calque_1" data-name="Calque 1" xmlns="http://www.w3.org/2000/svg" viewBox="0 0 267.07 490.53"><defs><style>.cls-1{fill:#291e0f;}.cls-2{fill:#fefefe;}.cls-3{fill:#48371d;}.cls-4{fill:#d2bc70;}.cls-5{fill:#baa662;}.cls-6{fill:#d2bd73;}.cls-7{fill:#cecfcf;}.cls-8{fill:#49391f;}.cls-9{fill:#e1c873;}.cls-10{fill:#c33e30;}.cls-11{fill:#dfc977;}.cls-12{fill:#ae3a2e;}.cls-13{fill:#bfe4df;}.cls-14{fill:#a6ccd1;}.cls-15{fill:#bef1fd;}</style></defs><path class="cls-1" d="M315.24,484.25l-1.68,1.12c-1.25,0-1.49-.41-.59-1.36.35-.38.58-.85.94-1.22,1.07-1.12-.17-2-.37-3s-1.12-.27-1.73-.11a33.19,33.19,0,0,0-3.7,1,38,38,0,0,0-11,6.16c-.41.34-.8.77-1.25.09-.84-1.26-1.79-.86-2.77-.21-1.61,1.07-3,2.45-5.09,2.72a6.93,6.93,0,0,0-1.57.62c-2.43,1-4.86,2-7.29,2.92-.58.22-1.28.55-1.28-.55s-.65-1.17-1.42-.78c-1.29.63-2.53,1.34-3.81,2-.79.42-1.52,1.09-2.57.71.14-.59.69-1.17.11-1.73s-1.15,0-1.68.22c-1.64.73-3.26,1.51-4.92,2.21-.37.16-1,.62-1.17-.32-.26-1.25-1-1.15-1.95-.69a23.53,23.53,0,0,1-7.19,2.22,2.19,2.19,0,0,1,.13-.57c.36-.58,1.3-1,.87-1.8s-1.44-.61-2.23-.63a9.79,9.79,0,0,0-1.07.14,49.54,49.54,0,0,1-8.84-.15c.36-.62,1-.89,1.36-1.33.9-1,2.21-1.52,2.84-2.78.22-.44.46-.83.2-1.29s-.85-.51-1.36-.42c-.94.18-1.88.39-2.83.59-.06-.59.3-.79.55-1,2.41-2.13,4-4.93,6.08-7.33.41-.47.68-1,.36-1.54s-1.05-.42-1.55-.23c-3.23,1.23-6.66,1.63-10,2.46-2.46.62-5,1-7.87,1.57.76-.88,1.76-1.31,1.09-2.29s-1.4-.48-2.23-.41c-1,.09-2.05.66-3.16.3,1.11-1.94.71-2.64-1.44-2.66-1.45,0-3,.36-4-1.25-.28-.46-.95-.3-1.46-.3-2.36,0-4.7-.47-7.07-.33-.55,0-1.27-.05-1.51-.54s.45-.83.77-1.19c1.71-2,1.87-3.62.36-5.66-.6-.81-.31-1.11.4-1.52a42.8,42.8,0,0,0,7-4.66c1.06-.95,1.82-2,1.15-3.51s-2.07-1.57-3.43-1.39c-3.76.48-7.54.71-11.32.95-1.41.09-2.13.06-2.85-1.43a1.82,1.82,0,0,1,.21-2.35,2.11,2.11,0,0,0,.32-1c.26-2.25-1-3.51-3.73-3.9a33.93,33.93,0,0,1-6.9-1.47c-.38-.13-.88-.14-1-.65s.44-.63.76-.85.7-.43,1-.65c1.74-1.11,3.48-2.2,4.53-4.08s.73-3.44-1.13-4.6a9.7,9.7,0,0,0-1.54-.7,28,28,0,0,1-6.73-4c-.9-.69-.74-1.12.25-1.61,1.24-.6,2.39-1.4,3.6-2.07a1.86,1.86,0,0,0,.92-2.1,1.84,1.84,0,0,0-1.59-1.63,13.07,13.07,0,0,1-4-1.53c-.73-.47-2-.89-1.83-1.82.14-.65,1.5-.52,2.33-.66a23.13,23.13,0,0,0,7.33-2.21c.58-.32,1.19-.75,1.13-1.53a1.75,1.75,0,0,0-1.36-1.5c-.43-.16-.89-.27-1.31-.44-1.24-.49-2.61-.76-3.67-2,2.81-.44,5.43-.91,8.06-1.24,2.82-.35,3.21-1,1.63-3.22-.6-.87-.53-1.25.43-1.7.76-.37,1.74-.81,1.76-1.79,0-1.25.64-1.39,1.66-1.38A1.82,1.82,0,0,0,205.6,402c.21-1.11-.64-1.52-1.46-1.89a30.29,30.29,0,0,1-4.55-2.87c-.28-.2-.66-.46-.57-.85s.59-.29.92-.34c2.63-.42,5.29-.59,7.88-1.23,1.64-.41,2.39-1.39,2.09-2.7a5.66,5.66,0,0,0-1.25-2.11,52.4,52.4,0,0,1-3.51-5.43c-.24-.43-.71-1.05-.24-1.4,1.17-.84,1.93-2.46,3.69-2.24,1.92.24,2.85-.88,3.78-2.3,1.17-1.81,2.65-3.24,5.12-3a24.74,24.74,0,0,0,3.55,0,3.69,3.69,0,0,0,3.5-4.56c-.32-1.61-.61-3.22-.9-4.83-.36-2.1.51-3,2.59-2.56a7.51,7.51,0,0,0,4.07-.32c2.67-.85,5.37-1.76,8.24-1.29a29.07,29.07,0,0,0,4.75.29c2.18,0,3.34-1,3.7-3.1.1-.61.19-.92.94-.78,2.26.42,4.58.51,6.78,1.33a7.85,7.85,0,0,0,2.11.37A1.94,1.94,0,0,0,259,359a2,2,0,0,0-.82-2.58c-1.05-.64-2.13-1.24-3.23-1.81-2-1-3.43-2.72-5.18-4.6a62.69,62.69,0,0,1,7.74,1.75,7,7,0,0,1,4,2.85c.48.61.85,1.29,1.29,1.92s.72,1.25,1.51,1.12.75-.93.88-1.48a8.2,8.2,0,0,1,3-4.17,1.12,1.12,0,0,1,1.55-.12c1.22,1,2.2.53,3.24-.42,1.31-1.19,3.74-1.06,4.47.11,1.45,2.32,2.51,2.41,4.28.37,1.11-1.27,1.6-1.25,2.61.13,2,2.72,2,2.72,3.78-.19.89-1.44,1.42-1.53,2.58-.33a41.51,41.51,0,0,1,4.55,4.82,1.29,1.29,0,0,0,1.57.68,1.47,1.47,0,0,0,.87-1.49c.06-1,.23-2,.29-3.06s-.11-2.11.65-2.53,1.37.69,2.08,1.06c2.43,1.24,4.74,2,7.34-.42.59-.56,1-.52,1.53,0a3.94,3.94,0,0,1,1.08,2.32,16.63,16.63,0,0,0,2.67,6.82c2.48,3.52,7.57,5.79,11.7,2.91a3.51,3.51,0,0,1,1.48-.36l2.36,1.76c.52,1.89,1.21,3.62,3.51,4a1.39,1.39,0,0,1,1.08,1.18l1.38,5.36a21.39,21.39,0,0,0,3.65,8.24,2.21,2.21,0,0,1,.34,2.14c-1.1,4.53-2.11,9.08-3.19,13.62-.2.84-.4,1.68.44,2.22s1.37-.34,2-.74c.07,0,.19,0,.45,0a16.1,16.1,0,0,0,.06,3.68,21.59,21.59,0,0,0,1.58,3.48,4.59,4.59,0,0,1,.43,1.47c.38,4.64,1,9.22.09,13.92-1,4.9-1.52,9.9-2.14,14.87-.32,2.51-1,5.08.41,7.52a1.72,1.72,0,0,1,.11,1.06,30.15,30.15,0,0,1-2.49,8.37,4.09,4.09,0,0,1-1.77,1.67,7.86,7.86,0,0,0-3.77,5.7c-.62,3.16.22,6.21.51,9.3.05.62.19,1.13-.62,1.27l-.24-.87c0-.24.08-.6-.29-.53s-.27.46-.25.75a22.57,22.57,0,0,0-1.31,5.84c-2.12.27-4.12.76-5.36,2.75-.5.79-1.09.71-1.8.18a3.53,3.53,0,0,0-4-.3A4.66,4.66,0,0,0,315.24,484.25Z" transform="translate(-176.54 -177.75)"/><path class="cls-2" d="M254.38,279.93a22.75,22.75,0,0,0-5.16-3.41l-.36-.31h0c-.14-.87-.94-1.32-1.3-2.06-1.4-2.9-2.91-5.87-.87-9a13.33,13.33,0,0,1,9.93-6c2.84-.38,5.62.29,8.43.08,1.68-.12,3.27-.45,3.95-2.15a4.07,4.07,0,0,0-1.11-4.63c-2.43-2.45-4.84-4.91-7.15-7.46a30.08,30.08,0,0,1-6.38-10.8,3.27,3.27,0,0,1,1.74-4.39,13.09,13.09,0,0,1,7.46-1.42c2.86.2,5.71.56,8.55.92,4.18.54,6.21-2,4.65-6-1-2.54-1.83-5.12-2.7-7.7a50.13,50.13,0,0,1-2.32-19.29,16.13,16.13,0,0,1,1.14-5.55c2.07-4.8,6.1-6.58,11-6.88,5.57-.35,10.88,1.14,16.19,2.56A105.5,105.5,0,0,1,312.46,191c-.37,2.66-2.2,4.55-3.89,6.29-7.17,7.41-11.15,16.25-12.82,26.35-1.11,6.64-.95,13.31-.81,20a60.27,60.27,0,0,0,1.65,10.45c1.56,7.69,4.21,15.08,6.32,22.62a69.88,69.88,0,0,1,1.59,9.67,40.93,40.93,0,0,1-.4,11.17,46.87,46.87,0,0,1-3.49,11.11c-2.45,5.81-6.25,10.64-10.52,15.19a82,82,0,0,1-7.15,6.69c-3.23,2.72-6.79,5-11.25,5l-1.49-.07a.67.67,0,0,0-.69-.22H269c-2.53-1.24-5.18-.83-7.78-.49-3.48.46-6.93,1.27-10.45.45a19,19,0,0,1-1.88-.65,4.53,4.53,0,0,0-.1-.91,118,118,0,0,1-4.08-18.28c-.78-5.1-1.61-10.23-.79-15.43a14.22,14.22,0,0,1,6.77-10.47,26.4,26.4,0,0,1,5.46-2.42,3.38,3.38,0,0,0,2.6-3.68c-.09-1.38-1.25-2.44-3.15-2.85A2.23,2.23,0,0,1,254.38,279.93Z" transform="translate(-176.54 -177.75)"/><path class="cls-2" d="M248,569.62a23.11,23.11,0,0,0,5.15-3.43,3,3,0,0,1,1.69-.64,3.36,3.36,0,0,0,2.69-3.56c-.09-1.46-1.4-2.55-3.48-3.23-5.68-1.84-9.78-5.26-11.11-11.38a32,32,0,0,1-.31-9.32,144.18,144.18,0,0,1,3.79-21.76c.37-1.6,1.15-3.09,1.23-4.75,2.82-1.29,5.78-1.14,8.71-.73s6,1.09,9.09.71a18.42,18.42,0,0,0,2.84-.61c2.49-.69,4.85.06,7.23.57a50.82,50.82,0,0,1,12.21,9.61c2.62,2.63,4.95,5.56,7.4,8.36.33,1.39,1.38,2.38,2.05,3.58a48.89,48.89,0,0,1,5.54,14.78,40,40,0,0,1,.61,11A67.68,67.68,0,0,1,300.68,573c-1.58,5.09-3.19,10.16-4.48,15.33A107.2,107.2,0,0,0,294,600.21a83.47,83.47,0,0,0-.25,15.24c.51,9.81,3,19.1,8.6,27.35a72.87,72.87,0,0,0,4.92,5.9c1.63,1.92,3.56,3.72,4,6.41a94.39,94.39,0,0,1-19.6,6.32c-3.84.75-7.71,1.32-11.59.47-4.37-.95-7.71-3.33-8.8-7.86a39.42,39.42,0,0,1-.25-15.9,73.56,73.56,0,0,1,4.73-15.74c1.21-2.94-.83-6.08-3.75-5.8s-6.09.77-9.15,1.08a13.37,13.37,0,0,1-7.91-1.36,3.29,3.29,0,0,1-1.77-4.39,29.48,29.48,0,0,1,2.88-6.12c1.77-3,4.27-5.51,6.61-8.09,1.38-1.52,2.9-2.92,4.33-4.39a3.87,3.87,0,0,0,.84-4.28,3.45,3.45,0,0,0-3.32-2.12,28,28,0,0,0-4.93,0,14.76,14.76,0,0,1-12.34-3.81c-2.1-1.94-3.22-4.26-2.43-7.32A19.16,19.16,0,0,1,248,569.62Z" transform="translate(-176.54 -177.75)"/><path class="cls-3" d="M326.48,362.31a3.51,3.51,0,0,0-1.48.36c-4.13,2.88-9.22.61-11.7-2.91a16.63,16.63,0,0,1-2.67-6.82,3.94,3.94,0,0,0-1.08-2.32c-.56-.54-.94-.58-1.53,0-2.6,2.44-4.91,1.66-7.34.42-.71-.37-1.41-1.43-2.08-1.06s-.6,1.62-.65,2.53-.23,2-.29,3.06a1.47,1.47,0,0,1-.87,1.49,1.29,1.29,0,0,1-1.57-.68,41.51,41.51,0,0,0-4.55-4.82c-1.16-1.2-1.69-1.11-2.58.33-1.81,2.91-1.81,2.91-3.78.19-1-1.38-1.5-1.4-2.61-.13-1.77,2-2.83,1.95-4.28-.37-.73-1.17-3.16-1.3-4.47-.11-1,.95-2,1.43-3.24.42a1.12,1.12,0,0,0-1.55.12,8.2,8.2,0,0,0-3,4.17c-.13.55-.12,1.36-.88,1.48s-1.13-.59-1.51-1.12-.81-1.31-1.29-1.92a7,7,0,0,0-4-2.85,62.69,62.69,0,0,0-7.74-1.75c1.75,1.88,3.17,3.56,5.18,4.6,1.1.57,2.18,1.17,3.23,1.81A2,2,0,0,1,259,359a1.94,1.94,0,0,1-2.12,1.21,7.85,7.85,0,0,1-2.11-.37c-2.2-.82-4.52-.91-6.78-1.33-.75-.14-.84.17-.94.78-.36,2.14-1.52,3.09-3.7,3.1a29.07,29.07,0,0,1-4.75-.29c-2.87-.47-5.57.44-8.24,1.29a7.51,7.51,0,0,1-4.07.32c-2.08-.48-3,.46-2.59,2.56.29,1.61.58,3.22.9,4.83a3.69,3.69,0,0,1-3.5,4.56,24.74,24.74,0,0,1-3.55,0c-2.47-.25-3.95,1.18-5.12,3-.93,1.42-1.86,2.54-3.78,2.3-1.76-.22-2.52,1.4-3.69,2.24-.47.35,0,1,.24,1.4a52.4,52.4,0,0,0,3.51,5.43,5.66,5.66,0,0,1,1.25,2.11c.3,1.31-.45,2.29-2.09,2.7-2.59.64-5.25.81-7.88,1.23-.33.05-.81-.13-.92.34s.29.65.57.85a30.29,30.29,0,0,0,4.55,2.87c.82.37,1.67.78,1.46,1.89a1.82,1.82,0,0,1-2.08,1.44c-1,0-1.63.13-1.66,1.38,0,1-1,1.42-1.76,1.79-1,.45-1,.83-.43,1.7,1.58,2.25,1.19,2.87-1.63,3.22-2.63.33-5.25.8-8.06,1.24,1.06,1.24,2.43,1.51,3.67,2,.42.17.88.28,1.31.44a1.75,1.75,0,0,1,1.36,1.5c.06.78-.55,1.21-1.13,1.53a23.13,23.13,0,0,1-7.33,2.21c-.83.14-2.19,0-2.33.66-.21.93,1.1,1.35,1.83,1.82a13.07,13.07,0,0,0,4,1.53,1.84,1.84,0,0,1,1.59,1.63,1.86,1.86,0,0,1-.92,2.1c-1.21.67-2.36,1.47-3.6,2.07-1,.49-1.15.92-.25,1.61a28,28,0,0,0,6.73,4,9.7,9.7,0,0,1,1.54.7c1.86,1.16,2.2,2.69,1.13,4.6s-2.79,3-4.53,4.08c-.34.22-.7.42-1,.65s-.84.32-.76.85.57.52,1,.65a33.93,33.93,0,0,0,6.9,1.47c2.78.39,4,1.65,3.73,3.9a2.11,2.11,0,0,1-.32,1,1.82,1.82,0,0,0-.21,2.35c.72,1.49,1.44,1.52,2.85,1.43,3.78-.24,7.56-.47,11.32-.95,1.36-.18,2.75-.15,3.43,1.39s-.09,2.56-1.15,3.51a42.8,42.8,0,0,1-7,4.66c-.71.41-1,.71-.4,1.52,1.51,2,1.35,3.71-.36,5.66-.32.36-1,.66-.77,1.19s1,.58,1.51.54c2.37-.14,4.71.33,7.07.33.51,0,1.18-.16,1.46.3,1,1.61,2.54,1.23,4,1.25,2.15,0,2.55.72,1.44,2.66,1.11.36,2.12-.21,3.16-.3.83-.07,1.64-.45,2.23.41s-.33,1.41-1.09,2.29c2.89-.56,5.41-.95,7.87-1.57,3.33-.83,6.76-1.23,10-2.46.5-.19,1.19-.36,1.55.23s0,1.07-.36,1.54c-2.08,2.4-3.67,5.2-6.08,7.33-.25.22-.61.42-.55,1,.95-.2,1.89-.41,2.83-.59.51-.09,1.05-.14,1.36.42s0,.85-.2,1.29c-.63,1.26-1.94,1.8-2.84,2.78-.41.44-1,.71-1.36,1.33a49.54,49.54,0,0,0,8.84.15,9.79,9.79,0,0,1,1.07-.14c.79,0,1.77-.27,2.23.63s-.51,1.22-.87,1.8a2.19,2.19,0,0,0-.13.57,23.53,23.53,0,0,0,7.19-2.22c1-.46,1.69-.56,1.95.69.2.94.8.48,1.17.32,1.66-.7,3.28-1.48,4.92-2.21.53-.23,1.07-.82,1.68-.22s0,1.14-.11,1.73c1,.38,1.78-.29,2.57-.71,1.28-.67,2.52-1.38,3.81-2,.77-.39,1.42-.38,1.42.78s.7.77,1.28.55c2.43-1,4.86-2,7.29-2.92a6.93,6.93,0,0,1,1.57-.62c2-.27,3.48-1.65,5.09-2.72,1-.65,1.93-1,2.77.21.45.68.84.25,1.25-.09a38,38,0,0,1,11-6.16,33.19,33.19,0,0,1,3.7-1c.61-.16,1.56-.7,1.73.11s1.44,1.85.37,3c-.36.37-.59.84-.94,1.22-.9.95-.66,1.36.59,1.36l-2.3,1.85c-.84.41-1.12,1.27-1.57,2-1.56,2.51-2,5.44-3,8.16-2.2-.07-4.25,1.81-4.77,4.38-.85.27-1.58-.91-2.58,0-1.48,1.31-3,1.38-4.21.53a3.69,3.69,0,0,1-1-4.2c.23-.8.53-1.59.86-2.57-.53.19-.83.27-1.1.4-4.52,2-9.07,3.88-13.54,5.95a46.06,46.06,0,0,1-27.47,4.05,33,33,0,0,0-10-.25c-3.75.52-5.31-1.38-4.14-5a2.35,2.35,0,0,0-1.63.16l-1.83.1-3.76,0-1.22-.07-1.25-.27-.43-.35c-.39-1.6,1.18-1.56,2.34-2.39h-5.62l-.91-.07a2.4,2.4,0,0,0-1.56-.23l-.91-.09a2.28,2.28,0,0,0-1.56-.22l-1.22-.08-.63-.24-.42-.39c0-.48-.11-.94-.78-.6h-2.49a60.06,60.06,0,0,1-6.5-1.51,7.55,7.55,0,0,1-.94-.48c-.43-.3-1.16-.37-1.11-1.1s.62-.86,1.12-1.11a.64.64,0,0,0,.64-.19l1.21-.11a4.68,4.68,0,0,0,3-.63l-2-.71a2.41,2.41,0,0,1-1.53-1.31v-.31c.35-1.38,1.66-.67,2.44-1.1a21.2,21.2,0,0,0,4.94-.6,11,11,0,0,0-3.7-.36l-.6-.05a8.91,8.91,0,0,0-2.8-.53l-.59-.11-.64-.21-.46-.21a.86.86,0,0,0-1.09-.4l-1.21-.09-.93-.3-.36-.35a1.76,1.76,0,0,1,1-2c2.47-1.25,2.86-4,4.41-6,.67-.85-.54-1.59-1.17-2s-.75.47-.95.86c-.87,1.69-1.69,3.41-2.52,5.12s-1.47,3.24-3.76,2.15c-.12-.05-.3,0-.45.05-2.45.23-3.87-.73-4-3.09-.28-4.15-.65-8.33.41-12.44a1.63,1.63,0,0,0-.91-2.12,12.94,12.94,0,0,1-4.78-4.74c-1.32-2.38-2.51-4.83-3.69-7.28a2.24,2.24,0,0,1,.79-3.13c.89-.54.86-1.08.58-1.91a21.41,21.41,0,0,1-1.36-7.55,1.63,1.63,0,0,0-1.33-1.81c-1.24-.35-2.5-.6-3.74-.93-3.25-.86-4.4-3.25-3-6.24.56-1.16,1.23-2.26,1.81-3.41a2.92,2.92,0,0,0-.38-3.45,14.12,14.12,0,0,1-1-1.2,3.15,3.15,0,0,1,2.34-5.13c.64-.09,1.32.15,2.1-.28-.62-.3-1.1-.59-1.61-.78-1.26-.45-2.55-.8-3.8-1.28a3.13,3.13,0,0,1-2.2-3.33,3.24,3.24,0,0,1,3-2.67c.46-.06.92,0,1.39,0a8.31,8.31,0,0,0,4.46-1.91c-2.76-1.47-3.28-2.53-2.79-5.48a23.15,23.15,0,0,1,2.73-7.34,3.29,3.29,0,0,0,.7-2c-.36-2.62.21-5.39-1.23-7.86a4.27,4.27,0,0,1-.33-1.5c-.29-2,.31-3.43,1.71-4.08s2.77-.2,4.14,1.48a11.21,11.21,0,0,0,2.84,2.57c.7.43,1.08.36.92-.56a9,9,0,0,1,1.43-6.18c1.78-3.06,3-3.39,6.08-1.52a2.65,2.65,0,0,0,.63.08c-1.06-4.32.93-7.42,3.88-10.13a6.94,6.94,0,0,0,2-3.25,3.63,3.63,0,0,1,3.63-2.78,56.78,56.78,0,0,0,8.42-1.86c.3-.07.59-.19.6-.58.27-.71,1.17-.43,1.54-1,1.05-.61,1.5-2,2.88-2.18s1.2-.84.74-1.8a63.93,63.93,0,0,0-3.27-6.11,3.28,3.28,0,0,1,.28-4.26c1.15-1.08,2.77-1.08,4.39,0,1.19.82,2.35,1.68,3.54,2.48a24.2,24.2,0,0,0,5.4,2.95c.37.13,1.13.48.91-.38-.67-2.7.6-4.89,1.6-7.2,1.61-3.7,3.6-4.36,7-2.08a72.44,72.44,0,0,0,8.52,5c.64.31,1.26.75,2,.39,3.3-.2,6.57-.66,9.88-.63,1.15-.31.65-1.34.82-2,.4-1.57,1-2.94,2.69-3.41s2.87.36,3.92,1.5,1.86,2.18,2.84,3.22c.5.53.87,1.3,1.77,1.32l8.65,1.83c1,.28,1.24-.67,1.68-1.2,1.75-2.16,4.26-2.73,7.59-1.68,2.81.9,3.67,2.08,3.91,5.18.07,1,0,2.09,1,2.76,1,1,2.41,1.07,3.43,1.94.95.33,1.3-.61,1.93-.94,1.4-.75,2.81-1.43,4.36-.6s1.54,2.27,1.52,3.76c0,1.21,0,2.46,1.27,3.38.52-1.08,1-2.09,1.49-3.08.92-1.8,2.25-2.62,3.75-2.36s2.45,1.36,2.59,3.39a8.15,8.15,0,0,0,3.08,5.81Z" transform="translate(-176.54 -177.75)"/><path class="cls-4" d="M352.6,620l-1.22-.47a6.52,6.52,0,0,0-.18-.9c-3-8.3-2-16.59.77-24.59a50.11,50.11,0,0,1,7.91-13.87,113,113,0,0,0,14.32-23.81,29,29,0,0,0,1.58-4.83c.77-3.2.34-6.38,0-9.58a23.7,23.7,0,0,0-5-12.39,50.88,50.88,0,0,1-3.75-5.06c-2.44-4.09-2.66-7.72.47-11.36,2-2.37,4.27-4.57,6.16-7.08a24.26,24.26,0,0,0,5.13-13.93c.14-4.16-1.62-7.9-3.28-11.61-3.23-7.24-8-13.48-13.21-19.37a48.94,48.94,0,0,1-11.39-21.55c-1-4.18-.82-8.25,1.51-12.05,2-3.25,5.12-5.08,8.31-6.86l.86.07a.55.55,0,0,1,.18,0l.05.06a1.14,1.14,0,0,0,1.54.6,10.65,10.65,0,0,1,6.21,5.21l.21.26.09.34-.3,2.14a1.55,1.55,0,0,1-.27,1,20.89,20.89,0,0,1-4.16,4.29,19,19,0,0,0-5.29,5.5c-2.58,4.34-1.16,8.49.86,12.43,3.09,6,7.54,11.08,12,16.11,4.05,4.61,8.32,9,12.19,13.82,2.46,3,4.82,6.18,4.47,10.45v.62a22.16,22.16,0,0,1-2,3.77c-2,2.3-3.75,4.76-5.81,7-2.38,2.53-3.23,6-.34,9.16a5.89,5.89,0,0,1,.77,7.29,21,21,0,0,1-2,3.28c-2.15,2.63-1.94,5.33-.6,8.19,1.13,2.41,2.23,4.84,3.24,7.3,1.62,3.95,1.59,8.11,1.55,12.28a23.88,23.88,0,0,1-2,8.78c-2.71,6.66-7.18,12.14-11.85,17.49a24.16,24.16,0,0,0-4,5.37,2.21,2.21,0,0,0-.49.36c-2.26,2.77-4.61,5.48-6.73,8.35-3.48,4.69-3.45,9.25,1.94,12.89a7.77,7.77,0,0,1,3.46,3.95c1.18,3.6-1.37,8.4-5.28,9.93-.91.36-2,.47-2.47,1.59l-1.56.12-1.7-.23A.81.81,0,0,0,352.6,620Z" transform="translate(-176.54 -177.75)"/><path class="cls-5" d="M360.76,420.7c-3.19,1.78-6.32,3.61-8.31,6.86-2.33,3.8-2.49,7.87-1.51,12.05a48.94,48.94,0,0,0,11.39,21.55c5.26,5.89,10,12.13,13.21,19.37,1.66,3.71,3.42,7.45,3.28,11.61a24.26,24.26,0,0,1-5.13,13.93c-1.89,2.51-4.12,4.71-6.16,7.08-3.13,3.64-2.91,7.27-.47,11.36a50.88,50.88,0,0,0,3.75,5.06,23.7,23.7,0,0,1,5,12.39c.32,3.2.75,6.38,0,9.58a29,29,0,0,1-1.58,4.83,113,113,0,0,1-14.32,23.81A50.11,50.11,0,0,0,352,594.05c-2.76,8-3.74,16.29-.77,24.59a6.52,6.52,0,0,1,.18.9,14.5,14.5,0,0,1-7.55-11.31,3.71,3.71,0,0,0,0-1.9c.36-.94-.21-1.83-.13-2.76a.53.53,0,0,0,.15-.64l2.64-8.62c.73-.95-.31-1.63-.39-2.46,1.12-1.37,1.29-3.19,2.22-4.65.32-.5.43-1.19,1.22-1.22.91.32,1.15-.42,1.5-1a168.4,168.4,0,0,1,11.06-14.83,60.27,60.27,0,0,0,9.72-15.66c2-5.06,2.43-10.06-.07-15.07a20,20,0,0,1-1.83-4.07c-.44-1.87-1.67-2.78-3.12-3.75-2.64-1.78-4.85-4-5.76-7.18-.29-1-.83-1.24-1.78-1.24-6.69,0-13.37-.12-20.06-.16q-12.42-.07-24.84-.1l-.62-.92c1.37-.13,2.73-.43,4.08-.69,1.82-.34,3.57.35,5.34,0a30.41,30.41,0,0,1,7.49-.55c4.87.34,9.75.27,14.63.29,4.2,0,8.43-.26,12.6.41,1.48.23,1.32-.46,1.18-1.32a1.36,1.36,0,0,0-1.37-1.32,27.75,27.75,0,0,0-3.52-.24c-6.42,0-12.84.15-19.26.23-5.78.07-11.57.87-17.36.08-1.17-.16-2.35-.21-3.52-.33-.37,0-.75-.14-.75-.6s.38-.55.75-.6.95.08,1.27-.38c4.93-.38,9.85-.08,14.78,0,9.77,0,19.53,0,29.3,0,.62,0,1.33.23,1.64-.71a14.37,14.37,0,0,1,6.83-7.82c.66-.38,1.48-.71,1.66-1.52a27.23,27.23,0,0,1,2.25-5.23c1.53-3.39,2.48-6.87,1.72-10.61A39.81,39.81,0,0,0,369.09,480c-2.7-4.89-6.43-9-9.74-13.48-2.88-3.86-6-7.58-8.25-11.86-.49-1.42-.94-1.52-2.5-.53a17,17,0,0,1-3.23-3.28,12.12,12.12,0,0,1,1.06-2,3.65,3.65,0,0,0,.38-3.85c-.81-2.14-1.44-4.35-2.15-6.53a74.79,74.79,0,0,0,1.55-11.25c.29-.49.77-.88.85-1.49,1.07-1.16,2.1-2.36,3.22-3.46,1.48-1.46,3.5-1.74,5.4-2.24a8.51,8.51,0,0,0,2.52,0l1.21.14a.53.53,0,0,0,.64.17l.61.12Z" transform="translate(-176.54 -177.75)"/><path class="cls-6" d="M349.51,586c-.79,0-.9.72-1.22,1.22-.93,1.46-1.1,3.28-2.22,4.65-.48-.27-.62-.8-.87-1.23-1.77-3.07-3.55-6.13-5.31-9.2-5.57-9.64-11.11-19.3-16.7-28.92-1.34-2.29-2.4-4.75-4.18-6.76a.4.4,0,0,0-.06-.22,19.58,19.58,0,0,0-3.33-5.66.39.39,0,0,0-.06-.21,10.19,10.19,0,0,0-.51-1.27c-2.47-4.32-4.93-8.64-7.44-12.93-1.58-2.69-2.47-3-5.66-2.29a78.16,78.16,0,0,0-6.83,6.3c-2.45-2.8-4.78-5.73-7.4-8.36a50.82,50.82,0,0,0-12.21-9.61c-.16-.9-1-1.26-1.5-1.89-.36-.44-.8-.82-.78-1.45a16.29,16.29,0,0,1,1.85,0A126.44,126.44,0,0,0,291,509.38a2.1,2.1,0,0,1,1.53.56q3.57,3.16,7.18,6.26c.55.47,1.06,1.21,2,.61,3.08.45,5.14-.37,6.73-3.47,3-5.92,6.66-11.54,10.06-17.27a8.29,8.29,0,0,0,.77-1.82c1.82.73,3.95.77,5.43,2.33.1.11.39,0,.59.05a3.91,3.91,0,0,1-.69,1.69c-3.32,5.64-6.61,11.32-10,16.92-.71,1.18-.41,1.56.72,1.81-.32.46-.82.33-1.27.38s-.75.13-.75.6.38.56.75.6c1.17.12,2.35.17,3.52.33,5.79.79,11.58,0,17.36-.08,6.42-.08,12.84-.22,19.26-.23a27.75,27.75,0,0,1,3.52.24,1.36,1.36,0,0,1,1.37,1.32c.14.86.3,1.55-1.18,1.32-4.17-.67-8.4-.39-12.6-.41-4.88,0-9.76,0-14.63-.29a30.41,30.41,0,0,0-7.49.55c-1.77.32-3.52-.37-5.34,0-1.35.26-2.71.56-4.08.69-2.1.06-2.54.7-1.83,2.69a8.39,8.39,0,0,0,.57,1.26c1.19,2.1,2.41,4.17,3.59,6.27,4.75,8.44,9.46,16.91,15.42,24.59a40,40,0,0,0,4.15,5,.25.25,0,0,1,.06.2c0,.61.14,1.16.84,1.34l.39.82a.58.58,0,0,0,.51.72c.14.28.28.56.41.85a.57.57,0,0,0,.5.69,17.85,17.85,0,0,1,2,3.61,4.74,4.74,0,0,0,.15.75,72.74,72.74,0,0,0,5.44,10.84,6.44,6.44,0,0,0,2.94,3C349,585.18,349.51,585.44,349.51,586Z" transform="translate(-176.54 -177.75)"/><path class="cls-7" d="M312.46,191A105.5,105.5,0,0,0,300,186.46c-5.31-1.42-10.62-2.91-16.19-2.56-4.85.3-8.88,2.08-11,6.88a16.13,16.13,0,0,0-1.14,5.55,50.13,50.13,0,0,0,2.32,19.29c.87,2.58,1.71,5.16,2.7,7.7,1.56,4-.47,6.54-4.65,6-2.84-.36-5.69-.72-8.55-.92a13.09,13.09,0,0,0-7.46,1.42,3.27,3.27,0,0,0-1.74,4.39,30.08,30.08,0,0,0,6.38,10.8c2.31,2.55,4.72,5,7.15,7.46A4.07,4.07,0,0,1,269,257.1c-.68,1.7-2.27,2-3.95,2.15-2.81.21-5.59-.46-8.43-.08a13.33,13.33,0,0,0-9.93,6c-2,3.14-.53,6.11.87,9,.36.74,1.16,1.19,1.3,2.06-7.74-4-8.83-13.54-2-19a20.46,20.46,0,0,1,11.5-4.57,45.72,45.72,0,0,1,4.86-.56c1,0,1-.41.5-1.14a7.42,7.42,0,0,0-1.72-1.5c-3.91-3.31-7.66-6.77-10.27-11.26a12.61,12.61,0,0,1,1.94-15.27c1.49-1.43,3.52-1.84,5.45-2.27a21.61,21.61,0,0,1,11.07.86c1,.29,2.33.91,2.85.26s-.47-1.84-.94-2.73a38.91,38.91,0,0,1-4.47-14.25,32.92,32.92,0,0,1,2.21-16.41,16.16,16.16,0,0,1,10.75-9.81,21.3,21.3,0,0,1,15.19,1.24,93.71,93.71,0,0,1,10.64,6c1.64,1.1,3.26,2.29,5,3.24A1.94,1.94,0,0,1,312.46,191Z" transform="translate(-176.54 -177.75)"/><path class="cls-7" d="M248,569.62a19.16,19.16,0,0,0-3.21,6.22c-.79,3.06.33,5.38,2.43,7.32A14.76,14.76,0,0,0,259.55,587a28,28,0,0,1,4.93,0,3.45,3.45,0,0,1,3.32,2.12,3.87,3.87,0,0,1-.84,4.28c-1.43,1.47-2.95,2.87-4.33,4.39-2.34,2.58-4.84,5-6.61,8.09a29.48,29.48,0,0,0-2.88,6.12,3.29,3.29,0,0,0,1.77,4.39,13.37,13.37,0,0,0,7.91,1.36c3.06-.31,6.09-.78,9.15-1.08s5,2.86,3.75,5.8A73.56,73.56,0,0,0,271,638.14a39.42,39.42,0,0,0,.25,15.9c1.09,4.53,4.43,6.91,8.8,7.86,3.88.85,7.75.28,11.59-.47a94.39,94.39,0,0,0,19.6-6.32c.16,1.8-1.47,2.08-2.47,2.77-3.54,2.42-7.16,4.73-10.92,6.81-5,2.77-10.37,4.3-16.09,3.26-7.71-1.39-12.27-6.34-14.3-13.74a35.43,35.43,0,0,1,2.75-26,18.82,18.82,0,0,0,1.51-3c.1-.34.42-.67.18-1s-.65-.09-1,0c-2.58.38-5,1.42-7.67,1.51-4.69.16-9.29-.09-12.35-4.49a13.24,13.24,0,0,1-.17-13.81,60.61,60.61,0,0,1,8.07-9.22c1.11-1.13,2.65-1.76,3.65-3,.18-.23.53-.41.39-.76s-.49-.32-.8-.34a71.81,71.81,0,0,1-7.16-.9,16.74,16.74,0,0,1-8.54-3.88c-2.3-1.92-4.29-4-4.91-7-.82-4,.07-7.49,3.29-10.22C245.75,571.16,246.61,570,248,569.62Z" transform="translate(-176.54 -177.75)"/><path class="cls-8" d="M346.21,427.18a74.79,74.79,0,0,1-1.55,11.25,7.58,7.58,0,0,0-.33.86,68.9,68.9,0,0,1-4.92,14.46,2.54,2.54,0,0,0-.39,1.61c.85,2.59-.45,4.48-1.9,6.34a4.39,4.39,0,0,0-.86,3.91,43.2,43.2,0,0,0,1.57,10.1c.1,1.34.19,2.68.28,4a1.89,1.89,0,0,0-1.91,1,6.75,6.75,0,0,1-2.18,2.14.21.21,0,0,1-.25,0l-2.58-7.49c-.1-1-.21-2-.31-2.95.81-.14.67-.65.62-1.27-.29-3.09-1.13-6.14-.51-9.3a7.86,7.86,0,0,1,3.77-5.7,4.09,4.09,0,0,0,1.77-1.67,30.15,30.15,0,0,0,2.49-8.37,1.72,1.72,0,0,0-.11-1.06c-1.44-2.44-.73-5-.41-7.52.62-5,1.16-10,2.14-14.87.95-4.7.29-9.28-.09-13.92a4.59,4.59,0,0,0-.43-1.47,21.59,21.59,0,0,1-1.58-3.48,16.1,16.1,0,0,1-.06-3.68c-.26,0-.38,0-.45,0-.61.4-1.08,1.31-2,.74s-.64-1.38-.44-2.22c1.08-4.54,2.09-9.09,3.19-13.62a2.21,2.21,0,0,0-.34-2.14,21.39,21.39,0,0,1-3.65-8.24l-1.38-5.36a1.39,1.39,0,0,0-1.08-1.18c-2.3-.35-3-2.08-3.51-4,.64-2.46,2.36-4.28,3.71-6.32l.62-.61,1.05-.61a1.64,1.64,0,0,1,2,0c.62.52.43,1.2.23,1.85-.27.88-.62,1.75-.85,2.64a19.61,19.61,0,0,0-.86,7.87l0,.6a1.42,1.42,0,0,0,.23,1.26l.11.59a6.51,6.51,0,0,0,1.07,2.91,3.35,3.35,0,0,0,.67,1.44,3.77,3.77,0,0,0,.86,1.77c1.21,1.83,2.5,3.62,3.71,5.45,1.88,2.88,2.35,5.85.44,8.93a2.94,2.94,0,0,0-.22.86c-.07,2.24,1.05,4.18,1.63,6.24a70.7,70.7,0,0,1,2.92,17.84c0,.82.13,1.63.2,2.45a.47.47,0,0,0,0,.62l-.19,5.86Z" transform="translate(-176.54 -177.75)"/><path class="cls-9" d="M366.2,583.5a24.16,24.16,0,0,1,4-5.37c4.67-5.35,9.14-10.83,11.85-17.49a23.88,23.88,0,0,0,2-8.78c0-4.17.07-8.33-1.55-12.28-1-2.46-2.11-4.89-3.24-7.3-1.34-2.86-1.55-5.56.6-8.19a21,21,0,0,0,2-3.28,5.89,5.89,0,0,0-.77-7.29c-2.89-3.18-2-6.63.34-9.16,2.06-2.2,3.84-4.66,5.81-7a22.16,22.16,0,0,0,2-3.77h.93a15.76,15.76,0,0,1-1.92,5.27l-.24.29c-.23.41-.46.83-.68,1.25l-.25.3-.68,1.24-.24.3c-.34.52-.67,1-1,1.56l-.24.26-1.63,2.21-.23.25c-.6,1.28-1.76,2.07-2.62,3.13-.5.64-.39.78.73.94l.35.31a5.46,5.46,0,0,0,2.74,2.78c.47.12.6.49.66.92l.29.3c.24.61.47,1.22.7,1.83,0,.66.49.64,1,.66l2.08.07c.3.7.61.7.92,0l10.82-.15,6.17.14c.21.69.79.51,1.27.52,1.33,0,2.65.07,4,0,1-.06,2.14.37,3.1-.33l2.07,0a9.76,9.76,0,0,0,3.59,3c-1.82.56-2.73,1.8-3.74,2.93-.57,0-1.13,0-1.7,0-9.29,0-18.59,0-27.88,0-.57,0-1.41-.42-1.64.61l-1,2.16-.24.28a22.4,22.4,0,0,1-4.06,4c-.6.84-.26,1.43,1.25,2.18.72.27.91,1,1.26,1.55,0,.43,0,.83.57.93l.35.32c0,.43,0,.83.59.91a1.51,1.51,0,0,1,1,1.26l.22.25.1.33.3.31c.28.13.24.41.31.64l.22.27.09.32.3.31c.28.14.24.43.31.66l.22.25.1.34.23.28c1.25,1.53,1.51,3.44,2.06,5.24a.52.52,0,0,0,.19.64c0,.2,0,.4.07.6a.92.92,0,0,0,.21,1c0,.31.06.61.08.91,0,.73,0,1.46,0,2.2l-.12,1.82a.92.92,0,0,0-.2,1l-.09.59a1,1,0,0,0-.25.95,31.45,31.45,0,0,1-2.92,6.48l-.23.28-.71,1.27-.22.23a19.24,19.24,0,0,1-4.15,4.88c-4.9,4.39-9.58,9-14.24,13.64a4.54,4.54,0,0,1-.5.36C366.74,583.81,366.42,583.82,366.2,583.5Z" transform="translate(-176.54 -177.75)"/><path class="cls-10" d="M417.23,523.55c1-1.13,1.92-2.37,3.74-2.93a9.76,9.76,0,0,1-3.59-3c-.11-.33-.16-.69-.49-.91l-.65-1.48c.26-.22.15-.42,0-.61-.05-.51-.1-1-.16-1.52,0-.23,0-.46,0-.69a7.93,7.93,0,0,1,5.28-7.22,8.49,8.49,0,0,1,7.73,1,26.18,26.18,0,0,1,7.38,6.38c1.73,2.25,4.17,3.78,6.14,5.81a2.66,2.66,0,0,1,.6,3.53c-.32-.39-.61-.82-1-1.18-1.41-1.45-1.69-1.37-3,.11-3.46,4-7.11,7.83-11.66,10.64-2.55,1.58-5.22,2.3-8.13.73a5.2,5.2,0,0,0-2.75-.89c-.48-.51-.37-1.24-.66-1.83l0-2.2c.41-1,.08-2.19.9-3.06A.78.78,0,0,0,417.23,523.55Z" transform="translate(-176.54 -177.75)"/><path class="cls-7" d="M254.38,279.93a2.23,2.23,0,0,0,1.22.59c1.9.41,3.06,1.47,3.15,2.85a3.38,3.38,0,0,1-2.6,3.68,26.4,26.4,0,0,0-5.46,2.42,14.22,14.22,0,0,0-6.77,10.47c-.82,5.2,0,10.33.79,15.43a118,118,0,0,0,4.08,18.28,4.53,4.53,0,0,1,.1.91c-5.22-1.2-8.11-4.84-9.86-9.59a44.33,44.33,0,0,1-2.26-11.25,41.91,41.91,0,0,1,1.61-16.22c1.38-4.59,3.18-9,6.72-12.41A20.57,20.57,0,0,1,254.38,279.93Z" transform="translate(-176.54 -177.75)"/><path class="cls-7" d="M247.64,511.55c-.08,1.66-.86,3.15-1.23,4.75a144.18,144.18,0,0,0-3.79,21.76,32,32,0,0,0,.31,9.32c1.33,6.12,5.43,9.54,11.11,11.38,2.08.68,3.39,1.77,3.48,3.23a3.36,3.36,0,0,1-2.69,3.56,3,3,0,0,0-1.69.64c-7.34-2-12-7-14.72-13.88a43.29,43.29,0,0,1-3.1-17.27c.17-5.86.91-11.69,3.74-16.94A11.85,11.85,0,0,1,247.64,511.55Z" transform="translate(-176.54 -177.75)"/><path class="cls-9" d="M389.37,493c.35-4.27-2-7.41-4.47-10.45-3.87-4.78-8.14-9.21-12.19-13.82-4.43-5-8.88-10.1-12-16.11-2-3.94-3.44-8.09-.86-12.43a19,19,0,0,1,5.29-5.5,20.89,20.89,0,0,0,4.16-4.29,1.55,1.55,0,0,0,.27-1h1.09a8.14,8.14,0,0,1,.43,3.39.52.52,0,0,0-.13.65,11.91,11.91,0,0,1-1.77,4.92l-.24.28a8.48,8.48,0,0,1-4.32,3.1c-.78-.53-1.22-.14-1.54.56l-.62.25c-.51-.77-.92-.75-1.24.14a.79.79,0,0,0,0,1.22v.92a.9.9,0,0,0,0,1.24c-.17,1.27.6,2.3.92,3.44l.2.24.11.38.21.24,1,1.6c0,.42,0,.83.58.91l.34.31c0,.63.16,1.13.88,1.24,1.55,1.47,2.75,3.25,4.31,4.74,4.82,4.61,9.56,9.31,14.35,14a4.05,4.05,0,0,1,.84,1.06c0,.44,0,.85.6.92l.33.31c0,.43,0,.83.57.94l.05,0,.21.24c.26.42.73.73.71,1.29a4,4,0,0,0,1.4,2.75,17.06,17.06,0,0,1,1.49,12.39Z" transform="translate(-176.54 -177.75)"/><path class="cls-11" d="M366.2,583.5c.22.32.54.31.87.29-.5,1.52-1.94,2.29-2.81,3.54-1.18,1.72-2.59,3.25-3.27,5.29a17,17,0,0,0-.4,4.59c0,.74.53.74,1.05.82,7.63,1.16,10.19,8.84,7.85,14.62-2,5-6.36,6.78-11.15,7.9a9.48,9.48,0,0,1-1.07.14l-.64-.12c.44-1.12,1.56-1.23,2.47-1.59,3.91-1.53,6.46-6.33,5.28-9.93a7.77,7.77,0,0,0-3.46-3.95c-5.39-3.64-5.42-8.2-1.94-12.89,2.12-2.87,4.47-5.58,6.73-8.35A2.21,2.21,0,0,1,366.2,583.5Z" transform="translate(-176.54 -177.75)"/><path class="cls-8" d="M325.24,496.63c-.2,0-.49.06-.59-.05-1.48-1.56-3.61-1.6-5.43-2.33-1.76-2.51-2.53-5.43-3.44-8.3-.18-.56,0-1.25-.54-1.7a4.66,4.66,0,0,1,2.35-4.06,3.53,3.53,0,0,1,4,.3c.71.53,1.3.61,1.8-.18,1.24-2,3.24-2.48,5.36-2.75l.16.62c-.14,1.07-.22,2.15-.44,3.2-.36,1.7-.92,3.36-2.76,4a1.5,1.5,0,0,0-1.15,1.84c.32,3,.63,6,.94,9Z" transform="translate(-176.54 -177.75)"/><path class="cls-12" d="M416.7,531.3a5.2,5.2,0,0,1,2.75.89c2.91,1.57,5.58.85,8.13-.73,4.55-2.81,8.2-6.63,11.66-10.64,1.28-1.48,1.56-1.56,3-.11.36.36.65.79,1,1.18q-4.8,4.77-9.62,9.52a18.22,18.22,0,0,1-5.48,3.78c-4.37,1.94-8,.89-10.76-2.38A2.26,2.26,0,0,1,416.7,531.3Z" transform="translate(-176.54 -177.75)"/><path class="cls-5" d="M301.66,516.81c-.9.6-1.41-.14-2-.61q-3.61-3.11-7.18-6.26a2.1,2.1,0,0,0-1.53-.56,126.44,126.44,0,0,1-15.91-1.21,16.29,16.29,0,0,0-1.85,0c-.06-.91.57-1,1.22-1a151.67,151.67,0,0,1,16.92.68A4.89,4.89,0,0,1,294,509C296.85,511.33,299.05,514.27,301.66,516.81Z" transform="translate(-176.54 -177.75)"/><path class="cls-13" d="M319,545.74c1.78,2,2.84,4.47,4.18,6.76,5.59,9.62,11.13,19.28,16.7,28.92,1.76,3.07,3.54,6.13,5.31,9.2.25.43.39,1,.87,1.23.08.83,1.12,1.51.39,2.46q-7-12.19-14-24.4-6.42-11.22-12.81-22.46A2.93,2.93,0,0,1,319,545.74Z" transform="translate(-176.54 -177.75)"/><path class="cls-13" d="M417.23,523.55a.78.78,0,0,1-.32.66H386c.23-1,1.07-.61,1.64-.61,9.29,0,18.59,0,27.88,0C416.1,523.59,416.66,523.57,417.23,523.55Z" transform="translate(-176.54 -177.75)"/><path class="cls-13" d="M302,523.16c3.19-.72,4.08-.4,5.66,2.29,2.51,4.29,5,8.61,7.44,12.93a10.19,10.19,0,0,1,.51,1.27c-1.64-1.19-2.27-3.08-3.25-4.72-2.05-3.42-4-6.9-6-10.38a2,2,0,0,0-1.91-1C303.59,523.52,302.66,524,302,523.16Z" transform="translate(-176.54 -177.75)"/><path class="cls-13" d="M389.06,517.5l-2.08-.07c-.46,0-.94,0-1-.66,4.4,0,8.8,0,13.2,0,.56,0,1.28-.3,1.57.55l-10.82.15Z" transform="translate(-176.54 -177.75)"/><path class="cls-11" d="M415.31,517.68c-1,.7-2.06.27-3.1.33-1.32.08-2.64,0-4,0-.48,0-1.06.17-1.27-.52l8.34-.11v.29Z" transform="translate(-176.54 -177.75)"/><path class="cls-13" d="M315.62,539.86a19.58,19.58,0,0,1,3.33,5.66A10.73,10.73,0,0,1,315.62,539.86Z" transform="translate(-176.54 -177.75)"/><path class="cls-11" d="M384.38,513.72a5.46,5.46,0,0,1-2.74-2.78A5.32,5.32,0,0,1,384.38,513.72Z" transform="translate(-176.54 -177.75)"/><path class="cls-11" d="M370.69,429.4H369.6l.3-2.14A3.47,3.47,0,0,1,370.69,429.4Z" transform="translate(-176.54 -177.75)"/><path class="cls-11" d="M381.92,532.86c-1.51-.75-1.85-1.34-1.25-2.18C380.65,531.65,381.9,531.91,381.92,532.86Z" transform="translate(-176.54 -177.75)"/><path class="cls-11" d="M388.9,480.66a4,4,0,0,1-1.4-2.75A4.18,4.18,0,0,1,388.9,480.66Z" transform="translate(-176.54 -177.75)"/><path class="cls-13" d="M358.2,420a8.51,8.51,0,0,1-2.52,0A1.71,1.71,0,0,1,358.2,420Z" transform="translate(-176.54 -177.75)"/><path class="cls-13" d="M356.63,620.57l.64.12a1.39,1.39,0,0,1-2.2,0Z" transform="translate(-176.54 -177.75)"/><path class="cls-13" d="M415.31,517.68v-.29c.4-.53,1.22,0,1.58-.66.33.22.38.58.49.91Z" transform="translate(-176.54 -177.75)"/><path class="cls-13" d="M416,527.27l0,2.2A1.51,1.51,0,0,1,416,527.27Z" transform="translate(-176.54 -177.75)"/><path class="cls-13" d="M390.7,552.33c0-.74,0-1.47,0-2.2C391.54,550.85,391.48,551.58,390.7,552.33Z" transform="translate(-176.54 -177.75)"/><path class="cls-13" d="M343.8,606.33a3.71,3.71,0,0,1,0,1.9A1.14,1.14,0,0,1,343.8,606.33Z" transform="translate(-176.54 -177.75)"/><path class="cls-11" d="M363.39,421.44a1.14,1.14,0,0,1-1.54-.6A1.42,1.42,0,0,1,363.39,421.44Z" transform="translate(-176.54 -177.75)"/><path class="cls-11" d="M363.12,442.3c.32-.7.76-1.09,1.54-.56A2.71,2.71,0,0,1,363.12,442.3Z" transform="translate(-176.54 -177.75)"/><path class="cls-13" d="M361.24,443.91a.79.79,0,0,1,0-1.22l.33.11C361.54,443.19,361.66,443.64,361.24,443.91Z" transform="translate(-176.54 -177.75)"/><path class="cls-13" d="M361.26,446.07a.9.9,0,0,1,0-1.24A.76.76,0,0,1,361.26,446.07Z" transform="translate(-176.54 -177.75)"/><path class="cls-11" d="M361.59,442.8l-.33-.11c.32-.89.73-.91,1.24-.14Z" transform="translate(-176.54 -177.75)"/><path class="cls-11" d="M365.53,454.43c-.72-.11-.9-.61-.88-1.24A1.4,1.4,0,0,1,365.53,454.43Z" transform="translate(-176.54 -177.75)"/><path class="cls-11" d="M381.29,510.63c-1.12-.16-1.23-.3-.73-.94Z" transform="translate(-176.54 -177.75)"/><path class="cls-13" d="M390.58,549.22a.92.92,0,0,1-.21-1C391,548.48,391,548.79,390.58,549.22Z" transform="translate(-176.54 -177.75)"/><path class="cls-13" d="M390.38,555.11a.92.92,0,0,1,.2-1C391,554.58,391,554.9,390.38,555.11Z" transform="translate(-176.54 -177.75)"/><path class="cls-13" d="M390,556.65a1,1,0,0,1,.25-.95C390.73,556.16,390.63,556.47,390,556.65Z" transform="translate(-176.54 -177.75)"/><path class="cls-11" d="M389.37,493l1,0c0,.19-.07.39-.1.58h-.93Z" transform="translate(-176.54 -177.75)"/><path class="cls-11" d="M384.69,536.57c-.54-.08-.58-.48-.59-.91A.88.88,0,0,1,384.69,536.57Z" transform="translate(-176.54 -177.75)"/><path class="cls-11" d="M383.75,535.34c-.54-.1-.57-.5-.57-.93A.9.9,0,0,1,383.75,535.34Z" transform="translate(-176.54 -177.75)"/><path class="cls-13" d="M360.76,420.7l-.1-.29c.35-.41.64,0,1,.06l0,.15,0,.15Z" transform="translate(-176.54 -177.75)"/><path class="cls-11" d="M364.31,452.88c-.55-.08-.58-.49-.58-.91A.88.88,0,0,1,364.31,452.88Z" transform="translate(-176.54 -177.75)"/><path class="cls-11" d="M386.53,476.36c-.54-.11-.57-.51-.57-.94A.89.89,0,0,1,386.53,476.36Z" transform="translate(-176.54 -177.75)"/><path class="cls-11" d="M385.63,475.11c-.56-.07-.6-.48-.6-.92A.92.92,0,0,1,385.63,475.11Z" transform="translate(-176.54 -177.75)"/><path class="cls-13" d="M352.6,620a.81.81,0,0,1,.77.45A.55.55,0,0,1,352.6,620Z" transform="translate(-176.54 -177.75)"/><path class="cls-13" d="M390.3,547.67a.52.52,0,0,1-.19-.64C390.47,547.16,390.69,547.33,390.3,547.67Z" transform="translate(-176.54 -177.75)"/><path class="cls-13" d="M360.05,420.29a.53.53,0,0,1-.64-.17C359.74,419.74,359.92,419.92,360.05,420.29Z" transform="translate(-176.54 -177.75)"/><path class="cls-7" d="M416.2,514.64c.19.19.3.39,0,.61C416,515.06,415.91,514.86,416.2,514.64Z" transform="translate(-176.54 -177.75)"/><path class="cls-7" d="M416.05,512.43c0,.23,0,.46,0,.69C415.59,512.89,415.6,512.66,416.05,512.43Z" transform="translate(-176.54 -177.75)"/><path class="cls-14" d="M218.58,496.83l.63.24C218.84,497.42,218.68,497.21,218.58,496.83Z" transform="translate(-176.54 -177.75)"/><path class="cls-13" d="M343.82,602.93a.53.53,0,0,1-.15.64C343.28,603.26,343.46,603.07,343.82,602.93Z" transform="translate(-176.54 -177.75)"/><path class="cls-13" d="M371,433.44a.52.52,0,0,1,.13-.65C371.53,433.1,371.35,433.29,371,433.44Z" transform="translate(-176.54 -177.75)"/><path class="cls-11" d="M388.13,499.19l.24-.29Z" transform="translate(-176.54 -177.75)"/><path class="cls-7" d="M248.86,276.21l.36.31Z" transform="translate(-176.54 -177.75)"/><path class="cls-11" d="M384.73,526.66l.24-.28Z" transform="translate(-176.54 -177.75)"/><path class="cls-11" d="M388.05,541.79l-.23-.28Z" transform="translate(-176.54 -177.75)"/><path class="cls-11" d="M385,504.1l.24-.26Z" transform="translate(-176.54 -177.75)"/><path class="cls-11" d="M383.18,506.56l.23-.25C383.44,506.49,383.34,506.55,383.18,506.56Z" transform="translate(-176.54 -177.75)"/><path class="cls-11" d="M387.72,541.17l-.22-.25C387.65,540.94,387.76,541,387.72,541.17Z" transform="translate(-176.54 -177.75)"/><path class="cls-11" d="M387.2,500.74l.25-.3Z" transform="translate(-176.54 -177.75)"/><path class="cls-11" d="M369.81,426.91l-.21-.26C369.75,426.67,369.85,426.73,369.81,426.91Z" transform="translate(-176.54 -177.75)"/><path class="cls-11" d="M387.19,540.26l-.3-.31Z" transform="translate(-176.54 -177.75)"/><path class="cls-11" d="M386.89,563.41l.23-.28Z" transform="translate(-176.54 -177.75)"/><path class="cls-11" d="M369,438.64l.24-.28Z" transform="translate(-176.54 -177.75)"/><path class="cls-11" d="M386.79,476.62l-.21-.24C386.73,476.39,386.83,476.45,386.79,476.62Z" transform="translate(-176.54 -177.75)"/><path class="cls-11" d="M362.7,450.37l-.21-.24C362.64,450.14,362.74,450.19,362.7,450.37Z" transform="translate(-176.54 -177.75)"/><path class="cls-11" d="M386.8,539.63l-.22-.27C386.73,539.38,386.84,539.45,386.8,539.63Z" transform="translate(-176.54 -177.75)"/><path class="cls-11" d="M385.33,514.94l-.29-.3Z" transform="translate(-176.54 -177.75)"/><path class="cls-11" d="M361.62,420.77l0-.15,0-.15.18.31A.55.55,0,0,0,361.62,420.77Z" transform="translate(-176.54 -177.75)"/><path class="cls-11" d="M386.28,502.28l.24-.3Z" transform="translate(-176.54 -177.75)"/><path class="cls-11" d="M385.87,538.08l-.22-.25C385.81,537.84,385.91,537.9,385.87,538.08Z" transform="translate(-176.54 -177.75)"/><path class="cls-11" d="M362.38,449.75l-.2-.24C362.33,449.53,362.44,449.57,362.38,449.75Z" transform="translate(-176.54 -177.75)"/><path class="cls-11" d="M386,564.91l.22-.23C386.21,564.86,386.11,564.91,386,564.91Z" transform="translate(-176.54 -177.75)"/><path class="cls-11" d="M386.27,538.72l-.3-.31Z" transform="translate(-176.54 -177.75)"/><path class="cls-8" d="M330.64,471.5l-.54.22c0-.29-.12-.67.25-.75S330.65,471.26,330.64,471.5Z" transform="translate(-176.54 -177.75)"/><path class="cls-1" d="M306.72,497.37c-.55,3.05-2.22,4.58-4.77,4.38C302.47,499.18,304.52,497.3,306.72,497.37Z" transform="translate(-176.54 -177.75)"/><path class="cls-11" d="M314.33,523c-.6.4-.54.78-.18,1.39q5.66,9.71,11.24,19.46,4.86,8.41,9.7,16.81a8.89,8.89,0,0,1,.52,1.27,40,40,0,0,1-4.15-5c-6-7.68-10.67-16.15-15.42-24.59-1.18-2.1-2.4-4.17-3.59-6.27a8.39,8.39,0,0,1-.57-1.26c-.71-2-.27-2.63,1.83-2.69C313.92,522.35,314.12,522.66,314.33,523Z" transform="translate(-176.54 -177.75)"/><path class="cls-6" d="M338.17,474.65c0,.38,0,.78-.34,1.06a43.2,43.2,0,0,1-1.57-10.1,35.45,35.45,0,0,0,3.21-5.06c2-3.21,3.68-6.63,5.9-9.72a17,17,0,0,0,3.23,3.28c-.66.9-1.35,1.79-2,2.71-3,4.23-5.48,8.77-8,13.27A5.15,5.15,0,0,0,338.17,474.65Z" transform="translate(-176.54 -177.75)"/><path class="cls-11" d="M338.17,474.65a5.15,5.15,0,0,1,.41-4.56c2.55-4.5,5-9,8-13.27.64-.92,1.33-1.81,2-2.71,1.56-1,2-.89,2.5.53-1-.13-1.25.75-1.62,1.37q-5.18,8.75-10.31,17.51A2.3,2.3,0,0,1,338.17,474.65Z" transform="translate(-176.54 -177.75)"/><path class="cls-11" d="M340.3,570.12a32,32,0,0,1,3.6,5.82,99.83,99.83,0,0,1,4.93,8.8,6.44,6.44,0,0,1-2.94-3,72.74,72.74,0,0,1-5.44-10.84A4.74,4.74,0,0,1,340.3,570.12Z" transform="translate(-176.54 -177.75)"/><path class="cls-11" d="M335.67,562.09a1.53,1.53,0,0,1,.84,1.34C335.81,563.25,335.69,562.7,335.67,562.09Z" transform="translate(-176.54 -177.75)"/><path class="cls-11" d="M337.82,565.82c.32.12.55.31.5.69A.57.57,0,0,1,337.82,565.82Z" transform="translate(-176.54 -177.75)"/><path class="cls-11" d="M336.9,564.25c.32.14.55.34.51.72A.58.58,0,0,1,336.9,564.25Z" transform="translate(-176.54 -177.75)"/><path class="cls-4" d="M334,483.29c-1,.08-1.24,1-1.64,1.66-2.13,3.57-4.22,7.17-6.34,10.74a3.31,3.31,0,0,1-.52.54c-.31-3-.62-6-.94-9a1.5,1.5,0,0,1,1.15-1.84c1.84-.61,2.4-2.27,2.76-4,.22-1.05.3-2.13.44-3.2,1-.77,1.07-2.24,2.24-2.86l2.58,7.49.22.35.09,0Z" transform="translate(-176.54 -177.75)"/><path class="cls-1" d="M334,483.29l0-.08-.09,0,0-.31a6.75,6.75,0,0,0,2.18-2.14,1.89,1.89,0,0,1,1.91-1,27.3,27.3,0,0,1,.52,5.77,1.5,1.5,0,0,1-1.07,1.67,1.71,1.71,0,0,1-1.86-.78A18.1,18.1,0,0,1,334,483.29Z" transform="translate(-176.54 -177.75)"/><path class="cls-15" d="M334,482.85l0,.31-.22-.35A.21.21,0,0,0,334,482.85Z" transform="translate(-176.54 -177.75)"/><path class="cls-11" d="M389.06,517.5H390C389.67,518.2,389.36,518.2,389.06,517.5Z" transform="translate(-176.54 -177.75)"/></svg>