<svg id="Calque_1" data-name="Calque 1" xmlns="http://www.w3.org/2000/svg" viewBox="0 0 368.58 491.55"><defs><style>.cls-1{fill:#291e0f;}.cls-2{fill:#fefefe;}.cls-3{fill:#48371d;}.cls-17,.cls-4{fill:#d2bc70;}.cls-5{fill:#baa662;}.cls-6{fill:#d2bd73;}.cls-7{fill:#cecfcf;}.cls-8{fill:#49391f;}.cls-16,.cls-9{fill:#e1c873;}.cls-10{fill:#c33e30;}.cls-11{fill:#dfc977;}.cls-12{fill:#ae3a2e;}.cls-13{fill:#bfe4df;}.cls-14{fill:#a6ccd1;}.cls-15{fill:#bef1fd;}.cls-16,.cls-17,.cls-18,.cls-19{stroke:#1d1d1b;stroke-miterlimit:10;}.cls-18{fill:#b29c5f;}.cls-19{fill:#c9b173;}</style></defs><path class="cls-1" d="M300.64,370.94,299,372.06c-1.25,0-1.49-.41-.59-1.36.35-.38.58-.85.94-1.22,1.07-1.12-.17-2-.37-3s-1.12-.27-1.73-.11a36,36,0,0,0-3.7,1,38.2,38.2,0,0,0-11,6.16c-.41.34-.8.77-1.25.09-.84-1.26-1.79-.86-2.77-.21-1.61,1.07-3,2.45-5.09,2.72a7.33,7.33,0,0,0-1.57.62c-2.43,1-4.86,2-7.29,2.92-.58.22-1.28.55-1.28-.55s-.65-1.17-1.42-.78c-1.29.63-2.53,1.34-3.81,2-.79.42-1.52,1.09-2.57.71.14-.59.69-1.17.11-1.73s-1.15,0-1.68.22c-1.64.73-3.26,1.51-4.92,2.21-.37.16-1,.62-1.17-.32-.26-1.25-1-1.15-2-.69a23,23,0,0,1-7.19,2.22,2.35,2.35,0,0,1,.13-.57c.36-.58,1.3-1,.87-1.8s-1.44-.61-2.23-.63c-.36,0-.72.08-1.07.14a48.36,48.36,0,0,1-8.84-.15c.36-.62,1-.89,1.36-1.33.9-1,2.21-1.52,2.84-2.78.22-.44.46-.83.2-1.29a1.24,1.24,0,0,0-1.36-.42c-.94.18-1.88.39-2.83.59-.06-.59.3-.79.55-1,2.41-2.13,4-4.93,6.08-7.33.41-.47.68-1,.36-1.54s-1.05-.42-1.55-.23c-3.23,1.23-6.66,1.63-10,2.46-2.46.62-5,1-7.87,1.57.76-.88,1.76-1.31,1.09-2.29s-1.4-.48-2.23-.41c-1,.09-2,.66-3.16.3,1.11-1.94.71-2.64-1.44-2.66-1.45,0-3,.36-4-1.25-.28-.46-.95-.3-1.46-.3-2.36,0-4.7-.47-7.07-.33-.55,0-1.27,0-1.51-.54s.45-.83.77-1.19c1.71-2,1.87-3.62.36-5.66-.6-.81-.31-1.11.4-1.52a42,42,0,0,0,7-4.66c1.06-.95,1.82-2,1.15-3.51s-2.07-1.57-3.43-1.39c-3.76.48-7.54.71-11.32.95-1.41.09-2.13.06-2.85-1.43a1.81,1.81,0,0,1,.21-2.35,2.07,2.07,0,0,0,.32-1c.26-2.25-1-3.51-3.73-3.9a33.27,33.27,0,0,1-6.9-1.47c-.38-.13-.88-.14-1-.65s.44-.63.76-.85.7-.43,1-.65c1.74-1.11,3.48-2.2,4.53-4.08s.73-3.44-1.13-4.6a10.69,10.69,0,0,0-1.54-.7,27.78,27.78,0,0,1-6.73-4c-.9-.69-.74-1.12.25-1.61,1.24-.6,2.39-1.4,3.6-2.07a2,2,0,0,0-.67-3.73,12.8,12.8,0,0,1-4-1.53c-.73-.47-2-.89-1.83-1.82.14-.65,1.5-.52,2.33-.66a23,23,0,0,0,7.33-2.21c.58-.32,1.19-.75,1.13-1.53a1.77,1.77,0,0,0-1.36-1.5c-.43-.16-.89-.27-1.31-.44-1.24-.49-2.61-.76-3.67-2,2.81-.44,5.43-.91,8.06-1.24,2.82-.35,3.21-1,1.63-3.22-.6-.87-.53-1.25.43-1.7.76-.37,1.74-.81,1.76-1.79,0-1.25.64-1.39,1.66-1.38a1.81,1.81,0,0,0,2.24-1.26l0-.13c.21-1.11-.64-1.52-1.46-1.89a30.29,30.29,0,0,1-4.55-2.87c-.28-.2-.66-.46-.57-.85s.59-.29.92-.34c2.63-.42,5.29-.59,7.88-1.23,1.64-.41,2.39-1.39,2.09-2.7a5.74,5.74,0,0,0-1.25-2.11,51.35,51.35,0,0,1-3.51-5.43c-.24-.43-.71-1-.24-1.4,1.17-.84,1.93-2.46,3.69-2.24,1.92.24,2.85-.88,3.78-2.3,1.17-1.81,2.65-3.24,5.12-3a23.37,23.37,0,0,0,3.55,0,3.67,3.67,0,0,0,3.6-3.77,3.56,3.56,0,0,0-.1-.79c-.32-1.61-.61-3.22-.9-4.83-.36-2.1.51-3,2.59-2.56a7.34,7.34,0,0,0,4.07-.32c2.67-.85,5.37-1.76,8.24-1.29a27.94,27.94,0,0,0,4.75.29,3.32,3.32,0,0,0,3.7-3.1c.1-.61.19-.92.94-.78,2.26.42,4.58.51,6.78,1.33a7.54,7.54,0,0,0,2.11.37,1.93,1.93,0,0,0,2.17-1.19,2,2,0,0,0-.82-2.58c-1.05-.64-2.13-1.24-3.23-1.81-2-1-3.43-2.72-5.18-4.6a63.71,63.71,0,0,1,7.74,1.75,7,7,0,0,1,4,2.85c.48.61.85,1.29,1.29,1.92s.72,1.25,1.51,1.12.75-.93.88-1.48a8.27,8.27,0,0,1,3-4.17,1.12,1.12,0,0,1,1.55-.12c1.22,1,2.2.53,3.24-.42,1.31-1.19,3.74-1.06,4.47.11,1.45,2.32,2.51,2.41,4.28.37,1.11-1.27,1.6-1.25,2.61.13,2,2.72,2,2.72,3.78-.19.89-1.44,1.42-1.53,2.58-.33a43.18,43.18,0,0,1,4.55,4.82,1.28,1.28,0,0,0,1.57.68,1.46,1.46,0,0,0,.87-1.49c.06-1,.23-2,.29-3.06s-.11-2.11.65-2.53,1.37.69,2.08,1.06c2.43,1.24,4.74,2,7.34-.42a.92.92,0,0,1,1.53,0,4,4,0,0,1,1.08,2.32,16.47,16.47,0,0,0,2.67,6.82c2.48,3.52,7.57,5.79,11.7,2.91a3.79,3.79,0,0,1,1.48-.36l2.36,1.76c.52,1.89,1.21,3.62,3.51,4a1.39,1.39,0,0,1,1.08,1.18l1.38,5.36a21.32,21.32,0,0,0,3.65,8.24,2.21,2.21,0,0,1,.34,2.14c-1.1,4.53-2.11,9.08-3.19,13.62-.2.84-.4,1.68.44,2.22s1.37-.34,2-.74h.45a16.17,16.17,0,0,0,.06,3.68,21,21,0,0,0,1.58,3.48,4.52,4.52,0,0,1,.43,1.47c.38,4.64,1,9.22.09,13.92-1,4.9-1.52,9.9-2.14,14.87-.32,2.51-1,5.08.41,7.52a1.69,1.69,0,0,1,.11,1.06,30.15,30.15,0,0,1-2.49,8.37,4,4,0,0,1-1.77,1.67,7.87,7.87,0,0,0-3.77,5.7c-.62,3.16.22,6.21.51,9.3.05.62.19,1.13-.62,1.27l-.24-.87c0-.24.08-.6-.29-.53s-.27.46-.25.75a23,23,0,0,0-1.31,5.84c-2.12.27-4.12.76-5.36,2.75-.5.79-1.09.71-1.8.18a3.53,3.53,0,0,0-4-.3A4.69,4.69,0,0,0,300.64,370.94Z" transform="translate(-60.45 -63.99)"/><path class="cls-2" d="M239.78,166.62a23.09,23.09,0,0,0-5.16-3.41l-.36-.31h0c-.14-.87-.94-1.32-1.3-2.06-1.4-2.9-2.91-5.87-.87-9a13.34,13.34,0,0,1,9.93-6c2.84-.38,5.62.29,8.43.08,1.68-.12,3.27-.45,4-2.15a4.06,4.06,0,0,0-1.11-4.63c-2.43-2.45-4.84-4.91-7.15-7.46a30,30,0,0,1-6.38-10.8,3.27,3.27,0,0,1,1.61-4.33l.13-.06a13.13,13.13,0,0,1,7.46-1.42c2.86.2,5.71.56,8.55.92,4.18.54,6.21-2,4.65-6-1-2.54-1.83-5.12-2.7-7.7A50.23,50.23,0,0,1,257.14,83a16.27,16.27,0,0,1,1.14-5.55c2.07-4.8,6.1-6.58,11-6.88,5.57-.35,10.88,1.14,16.19,2.56a106.86,106.86,0,0,1,12.39,4.56c-.37,2.66-2.2,4.55-3.89,6.29-7.17,7.41-11.15,16.25-12.82,26.35-1.11,6.64-.95,13.31-.81,20A60.32,60.32,0,0,0,282,140.78c1.56,7.69,4.21,15.08,6.32,22.62a69.13,69.13,0,0,1,1.59,9.67,41,41,0,0,1-.4,11.17A46.9,46.9,0,0,1,286,195.35c-2.45,5.81-6.25,10.64-10.52,15.19a79.27,79.27,0,0,1-7.15,6.69c-3.23,2.72-6.79,5-11.25,5l-1.49-.07a.69.69,0,0,0-.69-.22h-.51c-2.53-1.24-5.18-.83-7.78-.49-3.48.46-6.93,1.27-10.45.45a18.16,18.16,0,0,1-1.88-.65,4.7,4.7,0,0,0-.1-.91,117.5,117.5,0,0,1-4.08-18.28c-.78-5.1-1.61-10.23-.79-15.43a14.25,14.25,0,0,1,6.77-10.47,26.4,26.4,0,0,1,5.46-2.42,3.37,3.37,0,0,0,2.6-3.68c-.09-1.38-1.25-2.44-3.15-2.85A2.19,2.19,0,0,1,239.78,166.62Z" transform="translate(-60.45 -63.99)"/><path class="cls-2" d="M233.4,456.31a22.77,22.77,0,0,0,5.15-3.43,3,3,0,0,1,1.69-.64,3.35,3.35,0,0,0,2.69-3.56c-.09-1.46-1.4-2.55-3.48-3.23-5.68-1.84-9.78-5.26-11.11-11.38a32,32,0,0,1-.31-9.32A144.84,144.84,0,0,1,231.82,403c.37-1.6,1.15-3.09,1.23-4.75,2.82-1.29,5.78-1.14,8.71-.73s6,1.09,9.09.71a17.31,17.31,0,0,0,2.84-.61c2.49-.69,4.85.06,7.23.57a50.77,50.77,0,0,1,12.21,9.61c2.62,2.63,4.95,5.56,7.4,8.36.33,1.39,1.38,2.38,2.05,3.58a48.75,48.75,0,0,1,5.54,14.78,39.83,39.83,0,0,1,.61,11,67.57,67.57,0,0,1-2.65,14.18c-1.58,5.09-3.19,10.16-4.48,15.33a107,107,0,0,0-2.2,11.88,83.45,83.45,0,0,0-.25,15.24c.51,9.81,3,19.1,8.6,27.35a71.51,71.51,0,0,0,4.92,5.9c1.63,1.92,3.56,3.72,4,6.41a93.8,93.8,0,0,1-19.6,6.32c-3.84.75-7.71,1.32-11.59.47-4.37-1-7.71-3.33-8.8-7.86a39.42,39.42,0,0,1-.25-15.9,73.56,73.56,0,0,1,4.73-15.74c1.21-2.94-.83-6.08-3.75-5.8s-6.09.77-9.15,1.08a13.31,13.31,0,0,1-7.91-1.36,3.28,3.28,0,0,1-1.81-4.28s0-.07,0-.11a29.73,29.73,0,0,1,2.88-6.12c1.77-3,4.27-5.51,6.61-8.09,1.38-1.52,2.9-2.92,4.33-4.39a3.87,3.87,0,0,0,.84-4.28,3.46,3.46,0,0,0-3.32-2.12,29,29,0,0,0-4.93,0,14.73,14.73,0,0,1-12.34-3.81c-2.1-1.94-3.22-4.26-2.43-7.32A19.31,19.31,0,0,1,233.4,456.31Z" transform="translate(-60.45 -63.99)"/><path class="cls-3" d="M311.88,249a3.79,3.79,0,0,0-1.48.36c-4.13,2.88-9.22.61-11.7-2.91a16.47,16.47,0,0,1-2.67-6.82,4,4,0,0,0-1.08-2.32c-.56-.54-.94-.58-1.53,0-2.6,2.44-4.91,1.66-7.34.42-.71-.37-1.41-1.43-2.08-1.06s-.6,1.62-.65,2.53-.23,2-.29,3.06a1.46,1.46,0,0,1-.87,1.49,1.28,1.28,0,0,1-1.57-.68,43.18,43.18,0,0,0-4.55-4.82c-1.16-1.2-1.69-1.11-2.58.33-1.81,2.91-1.81,2.91-3.78.19-1-1.38-1.5-1.4-2.61-.13-1.77,2-2.83,2-4.28-.37-.73-1.17-3.16-1.3-4.47-.11-1,1-2,1.43-3.24.42a1.12,1.12,0,0,0-1.55.12,8.27,8.27,0,0,0-3,4.17c-.13.55-.12,1.36-.88,1.48s-1.13-.59-1.51-1.12-.81-1.31-1.29-1.92a7,7,0,0,0-4-2.85,63.71,63.71,0,0,0-7.74-1.75c1.75,1.88,3.17,3.56,5.18,4.6,1.1.57,2.18,1.17,3.23,1.81a2,2,0,0,1,.85,2.57,1.93,1.93,0,0,1-2.12,1.21,7.54,7.54,0,0,1-2.11-.37c-2.2-.82-4.52-.91-6.78-1.33-.75-.14-.84.17-.94.78-.36,2.14-1.52,3.09-3.7,3.1a27.94,27.94,0,0,1-4.75-.29c-2.87-.47-5.57.44-8.24,1.29a7.34,7.34,0,0,1-4.07.32c-2.08-.48-3,.46-2.59,2.56.29,1.61.58,3.22.9,4.83a3.69,3.69,0,0,1-2.71,4.46,3.49,3.49,0,0,1-.79.1,23.37,23.37,0,0,1-3.55,0c-2.47-.25-3.95,1.18-5.12,3-.93,1.42-1.86,2.54-3.78,2.3-1.76-.22-2.52,1.4-3.69,2.24-.47.35,0,1,.24,1.4a51.35,51.35,0,0,0,3.51,5.43,5.74,5.74,0,0,1,1.25,2.11c.3,1.31-.45,2.29-2.09,2.7-2.59.64-5.25.81-7.88,1.23-.33.05-.81-.13-.92.34s.29.65.57.85a30.29,30.29,0,0,0,4.55,2.87c.82.37,1.67.78,1.46,1.89a1.81,1.81,0,0,1-2.08,1.44c-1,0-1.63.13-1.66,1.38,0,1-1,1.42-1.76,1.79-1,.45-1,.83-.43,1.7,1.58,2.25,1.19,2.87-1.63,3.22-2.63.33-5.25.8-8.06,1.24,1.06,1.24,2.43,1.51,3.67,2,.42.17.88.28,1.31.44a1.77,1.77,0,0,1,1.36,1.5c.06.78-.55,1.21-1.13,1.53a23,23,0,0,1-7.33,2.21c-.83.14-2.19,0-2.33.66-.21.93,1.1,1.35,1.83,1.82a12.8,12.8,0,0,0,4,1.53,2,2,0,0,1,.67,3.73c-1.21.67-2.36,1.47-3.6,2.07-1,.49-1.15.92-.25,1.61a27.78,27.78,0,0,0,6.73,4,10.69,10.69,0,0,1,1.54.7c1.86,1.16,2.2,2.69,1.13,4.6A11.83,11.83,0,0,1,178.5,332c-.34.22-.7.42-1,.65s-.84.32-.76.85.57.52,1,.65a33.27,33.27,0,0,0,6.9,1.47c2.78.39,4,1.65,3.73,3.9a2.07,2.07,0,0,1-.32,1,1.81,1.81,0,0,0-.21,2.35c.72,1.49,1.44,1.52,2.85,1.43,3.78-.24,7.56-.47,11.32-.95,1.36-.18,2.75-.15,3.43,1.39s-.09,2.56-1.15,3.51a42,42,0,0,1-7,4.66c-.71.41-1,.71-.4,1.52,1.51,2,1.35,3.71-.36,5.66-.32.36-1,.66-.77,1.19s1,.58,1.51.54c2.37-.14,4.71.33,7.07.33.51,0,1.18-.16,1.46.3,1,1.61,2.54,1.23,4,1.25,2.15,0,2.55.72,1.44,2.66,1.11.36,2.12-.21,3.16-.3.83-.07,1.64-.45,2.23.41s-.33,1.41-1.09,2.29c2.89-.56,5.41-1,7.87-1.57,3.33-.83,6.76-1.23,10-2.46.5-.19,1.19-.36,1.55.23s0,1.07-.36,1.54c-2.08,2.4-3.67,5.2-6.08,7.33-.25.22-.61.42-.55,1,.95-.2,1.89-.41,2.83-.59.51-.09,1-.14,1.36.42s0,.85-.2,1.29c-.63,1.26-1.94,1.8-2.84,2.78-.41.44-1,.71-1.36,1.33a48.36,48.36,0,0,0,8.84.15c.35-.06.71-.11,1.07-.14.79,0,1.77-.27,2.23.63s-.51,1.22-.87,1.8a2.35,2.35,0,0,0-.13.57,23,23,0,0,0,7.19-2.22c1-.46,1.69-.56,1.95.69.2.94.8.48,1.17.32,1.66-.7,3.28-1.48,4.92-2.21.53-.23,1.07-.82,1.68-.22s0,1.14-.11,1.73c1,.38,1.78-.29,2.57-.71,1.28-.67,2.52-1.38,3.81-2,.77-.39,1.42-.38,1.42.78s.7.77,1.28.55c2.43-1,4.86-2,7.29-2.92a7.33,7.33,0,0,1,1.57-.62c2-.27,3.48-1.65,5.09-2.72,1-.65,1.93-1,2.77.21.45.68.84.25,1.25-.09a38.2,38.2,0,0,1,11-6.16,36,36,0,0,1,3.7-1c.61-.16,1.56-.7,1.73.11s1.44,1.85.37,3c-.36.37-.59.84-.94,1.22-.9,1-.66,1.36.59,1.36L296.9,374c-.84.41-1.12,1.27-1.57,2-1.56,2.51-2,5.44-3,8.16-2.2-.07-4.25,1.81-4.77,4.38-.85.27-1.58-.91-2.58,0-1.48,1.31-3,1.38-4.21.53a3.68,3.68,0,0,1-1-4.2c.23-.8.53-1.59.86-2.57-.53.19-.83.27-1.1.4-4.52,2-9.07,3.88-13.54,5.95a46,46,0,0,1-27.47,4.05,33.2,33.2,0,0,0-10-.25c-3.75.52-5.31-1.38-4.14-5a2.42,2.42,0,0,0-1.63.16l-1.83.1h-3.76l-1.22-.07-1.25-.27-.43-.35c-.39-1.6,1.18-1.56,2.34-2.39H211l-.91-.07a2.41,2.41,0,0,0-1.56-.23l-.91-.09A2.34,2.34,0,0,0,206,384l-1.22-.08-.63-.24-.42-.39c0-.48-.11-.94-.78-.6H200.5a58.3,58.3,0,0,1-6.5-1.51,6,6,0,0,1-.94-.48c-.43-.3-1.16-.37-1.11-1.1s.62-.86,1.12-1.11a.62.62,0,0,0,.64-.19l1.21-.11a4.58,4.58,0,0,0,3-.63l-2-.71a2.41,2.41,0,0,1-1.53-1.31v-.31c.35-1.38,1.66-.67,2.44-1.1a20.55,20.55,0,0,0,4.94-.6,11.23,11.23,0,0,0-3.7-.36l-.6-.05a9.2,9.2,0,0,0-2.8-.53l-.59-.11-.64-.21-.46-.21a.87.87,0,0,0-1.09-.4l-1.21-.09-.93-.3-.36-.35a1.76,1.76,0,0,1,1-2c2.47-1.25,2.86-4,4.41-6,.67-.85-.54-1.59-1.17-2s-.75.47-.95.86c-.87,1.69-1.69,3.41-2.52,5.12s-1.47,3.24-3.76,2.15a.73.73,0,0,0-.45.05c-2.45.23-3.87-.73-4-3.09-.28-4.15-.65-8.33.41-12.44a1.61,1.61,0,0,0-.91-2.11h0a12.94,12.94,0,0,1-4.78-4.74c-1.32-2.38-2.51-4.83-3.69-7.28a2.24,2.24,0,0,1,.72-3.08l.07-.05c.89-.54.86-1.08.58-1.91a21.59,21.59,0,0,1-1.36-7.55,1.63,1.63,0,0,0-1.33-1.81c-1.24-.35-2.5-.6-3.74-.93-3.25-.86-4.4-3.25-3-6.24.56-1.16,1.23-2.26,1.81-3.41a2.92,2.92,0,0,0-.38-3.45,14.45,14.45,0,0,1-1-1.2,3.16,3.16,0,0,1,.47-4.43,3.19,3.19,0,0,1,1.87-.7c.64-.09,1.32.15,2.1-.28-.62-.3-1.1-.59-1.61-.78-1.26-.45-2.55-.8-3.8-1.28a3.12,3.12,0,0,1-2.2-3.33,3.25,3.25,0,0,1,3-2.67,10.74,10.74,0,0,1,1.39,0,8.22,8.22,0,0,0,4.46-1.91c-2.76-1.47-3.28-2.53-2.79-5.48A23.33,23.33,0,0,1,171,281.6a3.28,3.28,0,0,0,.7-2c-.36-2.62.21-5.39-1.23-7.86a4.25,4.25,0,0,1-.33-1.5c-.29-2,.31-3.43,1.71-4.08s2.77-.2,4.14,1.48a10.87,10.87,0,0,0,2.84,2.57c.7.43,1.08.36.92-.56a9,9,0,0,1,1.43-6.18c1.78-3.06,3-3.39,6.08-1.52a2.27,2.27,0,0,0,.63.08c-1.06-4.32.93-7.42,3.88-10.13a6.89,6.89,0,0,0,2-3.25,3.65,3.65,0,0,1,3.63-2.78,55,55,0,0,0,8.42-1.86c.3-.07.59-.19.6-.58.27-.71,1.17-.43,1.54-1,1-.61,1.5-2,2.88-2.18s1.2-.84.74-1.8a65.15,65.15,0,0,0-3.27-6.11,3.28,3.28,0,0,1,.28-4.26c1.15-1.08,2.77-1.08,4.39,0,1.19.82,2.35,1.68,3.54,2.48a23.81,23.81,0,0,0,5.4,2.95c.37.13,1.13.48.91-.38-.67-2.7.6-4.89,1.6-7.2,1.61-3.7,3.6-4.36,7-2.08a71.93,71.93,0,0,0,8.52,5c.64.31,1.26.75,2,.39,3.3-.2,6.57-.66,9.88-.63,1.15-.31.65-1.34.82-2,.4-1.57,1-2.94,2.69-3.41s2.87.36,3.92,1.5,1.86,2.18,2.84,3.22c.5.53.87,1.3,1.77,1.32l8.65,1.83c1,.28,1.24-.67,1.68-1.2,1.75-2.16,4.26-2.73,7.59-1.68,2.81.9,3.67,2.08,3.91,5.18.07,1,0,2.09,1,2.76,1,1,2.41,1.07,3.43,1.94.95.33,1.3-.61,1.93-.94,1.4-.75,2.81-1.43,4.36-.6s1.54,2.27,1.52,3.76c0,1.21,0,2.46,1.27,3.38.52-1.08,1-2.09,1.49-3.08.92-1.8,2.25-2.62,3.75-2.36s2.45,1.36,2.59,3.39a8.13,8.13,0,0,0,3.08,5.81Z" transform="translate(-60.45 -63.99)"/><path class="cls-4" d="M338,506.69l-1.22-.47a7.17,7.17,0,0,0-.18-.9c-3-8.3-2-16.59.77-24.59a50.4,50.4,0,0,1,7.91-13.87,112.65,112.65,0,0,0,14.32-23.81,28.12,28.12,0,0,0,1.58-4.83c.77-3.2.34-6.38,0-9.58a23.7,23.7,0,0,0-5-12.39,49,49,0,0,1-3.75-5.06c-2.44-4.09-2.66-7.72.47-11.36,2-2.37,4.27-4.57,6.16-7.08a24.25,24.25,0,0,0,5.13-13.93c.14-4.16-1.62-7.9-3.28-11.61-3.23-7.24-8-13.48-13.21-19.37a48.94,48.94,0,0,1-11.39-21.55c-1-4.18-.82-8.25,1.51-12.05,2-3.25,5.12-5.08,8.31-6.86l.86.07h.18l.05.06a1.14,1.14,0,0,0,1.49.63l.05,0a10.69,10.69,0,0,1,6.21,5.21l.21.26.09.34-.3,2.14a1.53,1.53,0,0,1-.27,1,20.39,20.39,0,0,1-4.16,4.29,19,19,0,0,0-5.29,5.5c-2.58,4.34-1.16,8.49.86,12.43,3.09,6,7.54,11.08,12,16.11,4.05,4.61,8.32,9,12.19,13.82,2.46,3,4.82,6.18,4.47,10.45v.62a21.25,21.25,0,0,1-2,3.77c-2,2.3-3.75,4.76-5.81,7-2.38,2.53-3.23,6-.34,9.16a5.89,5.89,0,0,1,.77,7.29,20,20,0,0,1-2,3.28c-2.15,2.63-1.94,5.33-.6,8.19,1.13,2.41,2.23,4.84,3.24,7.3,1.62,4,1.59,8.11,1.55,12.28a23.72,23.72,0,0,1-2,8.78c-2.71,6.66-7.18,12.14-11.85,17.49a24.38,24.38,0,0,0-4,5.37,2.47,2.47,0,0,0-.49.36c-2.26,2.77-4.61,5.48-6.73,8.35-3.48,4.69-3.45,9.25,1.94,12.89a7.81,7.81,0,0,1,3.46,3.95c1.18,3.6-1.37,8.4-5.28,9.93-.91.36-2,.47-2.47,1.59l-1.56.12-1.7-.23A.83.83,0,0,0,338,506.69Z" transform="translate(-60.45 -63.99)"/><path class="cls-5" d="M346.16,307.39c-3.19,1.78-6.32,3.61-8.31,6.86-2.33,3.8-2.49,7.87-1.51,12.05a48.94,48.94,0,0,0,11.39,21.55c5.26,5.89,10,12.13,13.21,19.37,1.66,3.71,3.42,7.45,3.28,11.61a24.25,24.25,0,0,1-5.13,13.93c-1.89,2.51-4.12,4.71-6.16,7.08-3.13,3.64-2.91,7.27-.47,11.36a49,49,0,0,0,3.75,5.06,23.7,23.7,0,0,1,5,12.39c.32,3.2.75,6.38,0,9.58a28.12,28.12,0,0,1-1.58,4.83,112.65,112.65,0,0,1-14.32,23.81,50.4,50.4,0,0,0-7.91,13.87c-2.76,8-3.74,16.29-.77,24.59a7.17,7.17,0,0,1,.18.9,14.48,14.48,0,0,1-7.55-11.31,3.6,3.6,0,0,0,0-1.9c.36-.94-.21-1.83-.13-2.76a.54.54,0,0,0,.15-.64l2.64-8.62c.73-.95-.31-1.63-.39-2.46,1.12-1.37,1.29-3.19,2.22-4.65.32-.5.43-1.19,1.22-1.22.91.32,1.15-.42,1.5-1a169.89,169.89,0,0,1,11.06-14.83,60.37,60.37,0,0,0,9.72-15.66c2-5.06,2.43-10.06-.07-15.07a19.87,19.87,0,0,1-1.83-4.07c-.44-1.87-1.67-2.78-3.12-3.75-2.64-1.78-4.85-4-5.76-7.18a1.53,1.53,0,0,0-1.78-1.24c-6.69,0-13.37-.12-20.06-.16q-12.42-.06-24.84-.1l-.62-.92c1.37-.13,2.73-.43,4.08-.69,1.82-.34,3.57.35,5.34,0a30.87,30.87,0,0,1,7.49-.55c4.87.34,9.75.27,14.63.29,4.2,0,8.43-.26,12.6.41,1.48.23,1.32-.46,1.18-1.32a1.37,1.37,0,0,0-1.37-1.32,29.59,29.59,0,0,0-3.52-.24c-6.42,0-12.84.15-19.26.23-5.78.07-11.57.87-17.36.08-1.17-.16-2.35-.21-3.52-.33-.37,0-.75-.14-.75-.6s.38-.55.75-.6,1,.08,1.27-.38c4.93-.38,9.85-.08,14.78,0h29.3c.62,0,1.33.23,1.64-.71a14.41,14.41,0,0,1,6.83-7.82c.66-.38,1.48-.71,1.66-1.52a27.78,27.78,0,0,1,2.25-5.23c1.53-3.39,2.48-6.87,1.72-10.61a40.14,40.14,0,0,0-4.42-11.09c-2.7-4.89-6.43-9-9.74-13.48-2.88-3.86-6-7.58-8.25-11.86-.49-1.42-.94-1.52-2.5-.53a16.73,16.73,0,0,1-3.23-3.28,13.22,13.22,0,0,1,1.06-2,3.65,3.65,0,0,0,.38-3.85c-.81-2.14-1.44-4.35-2.15-6.53a74.62,74.62,0,0,0,1.55-11.25c.29-.49.77-.88.85-1.49,1.07-1.16,2.1-2.36,3.22-3.46,1.48-1.46,3.5-1.74,5.4-2.24a8.19,8.19,0,0,0,2.52,0l1.21.14a.53.53,0,0,0,.64.17l.61.12Z" transform="translate(-60.45 -63.99)"/><path class="cls-6" d="M334.91,472.69c-.79,0-.9.72-1.22,1.22-.93,1.46-1.1,3.28-2.22,4.65-.48-.27-.62-.8-.87-1.23-1.77-3.07-3.55-6.13-5.31-9.2-5.57-9.64-11.11-19.3-16.7-28.92-1.34-2.29-2.4-4.75-4.18-6.76a.46.46,0,0,0-.06-.22,19.58,19.58,0,0,0-3.33-5.66.42.42,0,0,0-.06-.21,10.52,10.52,0,0,0-.51-1.27c-2.47-4.32-4.93-8.64-7.44-12.93-1.58-2.69-2.47-3-5.66-2.29a79.87,79.87,0,0,0-6.83,6.3c-2.45-2.8-4.78-5.73-7.4-8.36a50.77,50.77,0,0,0-12.21-9.61c-.16-.9-1-1.26-1.5-1.89-.36-.44-.8-.82-.78-1.45.62,0,1.23,0,1.85,0a124.75,124.75,0,0,0,15.92,1.21,2.14,2.14,0,0,1,1.53.56q3.57,3.17,7.18,6.26c.55.47,1.06,1.21,2,.61,3.08.45,5.14-.37,6.73-3.47,3-5.92,6.66-11.54,10.06-17.27a7.9,7.9,0,0,0,.77-1.82c1.82.73,3.95.77,5.43,2.33.1.11.39,0,.59.05A3.86,3.86,0,0,1,310,385c-3.32,5.64-6.61,11.32-10,16.92-.71,1.18-.41,1.56.72,1.81-.32.46-.82.33-1.27.38s-.75.13-.75.6.38.56.75.6c1.17.12,2.35.17,3.52.33,5.79.79,11.58,0,17.36-.08,6.42-.08,12.84-.22,19.26-.23a29.59,29.59,0,0,1,3.52.24,1.37,1.37,0,0,1,1.37,1.32c.14.86.3,1.55-1.18,1.32-4.17-.67-8.4-.39-12.6-.41-4.88,0-9.76,0-14.63-.29a30.83,30.83,0,0,0-7.49.55c-1.77.32-3.52-.37-5.34,0-1.35.26-2.71.56-4.08.69-2.1.06-2.54.7-1.83,2.69a9,9,0,0,0,.57,1.26c1.19,2.1,2.41,4.17,3.59,6.27,4.75,8.44,9.46,16.91,15.42,24.59a39.75,39.75,0,0,0,4.15,5,.25.25,0,0,1,.06.2c0,.61.14,1.16.84,1.34l.39.82a.58.58,0,0,0,.42.71h.09c.14.28.28.56.41.85a.57.57,0,0,0,.43.68h.07a18.21,18.21,0,0,1,2,3.61,4.53,4.53,0,0,0,.15.75,72.74,72.74,0,0,0,5.44,10.84,6.38,6.38,0,0,0,2.94,3C334.4,471.87,334.91,472.13,334.91,472.69Z" transform="translate(-60.45 -63.99)"/><path class="cls-7" d="M297.86,77.69a107.14,107.14,0,0,0-12.46-4.54c-5.31-1.42-10.62-2.91-16.19-2.56-4.85.3-8.88,2.08-11,6.88A16.27,16.27,0,0,0,257.07,83a50.23,50.23,0,0,0,2.32,19.29c.87,2.58,1.71,5.16,2.7,7.7,1.56,4-.47,6.54-4.65,6-2.84-.36-5.69-.72-8.55-.92a13.13,13.13,0,0,0-7.46,1.42,3.27,3.27,0,0,0-1.79,4.27.61.61,0,0,0,.05.12,30,30,0,0,0,6.38,10.8c2.31,2.55,4.72,5,7.15,7.46a4.08,4.08,0,0,1,1.18,4.63c-.68,1.7-2.27,2-4,2.15-2.81.21-5.59-.46-8.43-.08a13.34,13.34,0,0,0-9.93,6c-2,3.14-.53,6.11.87,9,.36.74,1.16,1.19,1.3,2.06-7.74-4-8.83-13.54-2-19a20.5,20.5,0,0,1,11.5-4.57,46.64,46.64,0,0,1,4.86-.56c1,0,1-.41.5-1.14a7.49,7.49,0,0,0-1.72-1.5c-3.91-3.31-7.66-6.77-10.27-11.26a12.62,12.62,0,0,1,1.94-15.27c1.49-1.43,3.52-1.84,5.45-2.27a21.7,21.7,0,0,1,11.07.86c1,.29,2.33.91,2.85.26s-.47-1.84-.94-2.73A38.84,38.84,0,0,1,253,91.49a33,33,0,0,1,2.21-16.41A16.19,16.19,0,0,1,266,65.27a21.34,21.34,0,0,1,15.19,1.24,95.8,95.8,0,0,1,10.64,6c1.64,1.1,3.26,2.29,5,3.24A1.94,1.94,0,0,1,297.86,77.69Z" transform="translate(-60.45 -63.99)"/><path class="cls-7" d="M233.4,456.31a19.28,19.28,0,0,0-3.21,6.22c-.79,3.06.33,5.38,2.43,7.32A14.72,14.72,0,0,0,245,473.69a29,29,0,0,1,4.93,0,3.46,3.46,0,0,1,3.32,2.12,3.87,3.87,0,0,1-.84,4.28c-1.43,1.47-3,2.87-4.33,4.39-2.34,2.58-4.84,5-6.61,8.09a29.73,29.73,0,0,0-2.88,6.12A3.3,3.3,0,0,0,240.2,503l.11,0a13.31,13.31,0,0,0,7.91,1.36c3.06-.31,6.09-.78,9.15-1.08s5,2.86,3.75,5.8a74.08,74.08,0,0,0-4.72,15.67,39.42,39.42,0,0,0,.25,15.9c1.09,4.53,4.43,6.91,8.8,7.86,3.88.85,7.75.28,11.59-.47a93.8,93.8,0,0,0,19.6-6.32c.16,1.8-1.47,2.08-2.47,2.77-3.54,2.42-7.16,4.73-10.92,6.81-5,2.77-10.37,4.3-16.09,3.26-7.71-1.39-12.27-6.34-14.3-13.74a35.43,35.43,0,0,1,2.75-26,18.31,18.31,0,0,0,1.51-3c.1-.34.42-.67.18-1s-.65-.09-1,0c-2.58.38-5,1.42-7.67,1.51-4.69.16-9.29-.09-12.35-4.49a13.24,13.24,0,0,1-.17-13.81,61.51,61.51,0,0,1,8.07-9.22c1.11-1.13,2.65-1.76,3.65-3,.18-.23.53-.41.39-.76s-.49-.32-.8-.34a69,69,0,0,1-7.16-.9,16.64,16.64,0,0,1-8.54-3.88c-2.3-1.92-4.29-4-4.91-7-.82-4,.07-7.49,3.29-10.22C231.15,457.85,232,456.69,233.4,456.31Z" transform="translate(-60.45 -63.99)"/><path class="cls-8" d="M331.61,313.87a74.62,74.62,0,0,1-1.55,11.25,6.92,6.92,0,0,0-.33.86,68.9,68.9,0,0,1-4.92,14.46,2.55,2.55,0,0,0-.39,1.61c.85,2.59-.45,4.48-1.9,6.34a4.39,4.39,0,0,0-.86,3.91,43.12,43.12,0,0,0,1.57,10.1c.1,1.34.19,2.68.28,4a1.92,1.92,0,0,0-1.91,1,6.56,6.56,0,0,1-2.18,2.14.2.2,0,0,1-.25,0l-2.58-7.49c-.1-1-.21-2-.31-2.95.81-.14.67-.65.62-1.27-.29-3.09-1.13-6.14-.51-9.3a7.87,7.87,0,0,1,3.77-5.7,4,4,0,0,0,1.77-1.67,30.15,30.15,0,0,0,2.49-8.37,1.69,1.69,0,0,0-.11-1.06c-1.44-2.44-.73-5-.41-7.52.62-5,1.16-10,2.14-14.87.95-4.7.29-9.28-.09-13.92a4.52,4.52,0,0,0-.43-1.47,21,21,0,0,1-1.58-3.48,16.17,16.17,0,0,1-.06-3.68h-.45c-.61.4-1.08,1.31-2,.74s-.64-1.38-.44-2.22c1.08-4.54,2.09-9.09,3.19-13.62a2.21,2.21,0,0,0-.34-2.14,21.32,21.32,0,0,1-3.65-8.24L318.81,256a1.39,1.39,0,0,0-1.08-1.18c-2.3-.35-3-2.08-3.51-4,.64-2.46,2.36-4.28,3.71-6.32l.62-.61,1.05-.61a1.65,1.65,0,0,1,2,0c.62.52.43,1.2.23,1.85-.27.88-.62,1.75-.85,2.64a19.63,19.63,0,0,0-.86,7.87v.6a1.41,1.41,0,0,0,.23,1.26l.11.59a6.42,6.42,0,0,0,1.07,2.91,3.41,3.41,0,0,0,.67,1.44,3.77,3.77,0,0,0,.86,1.77c1.21,1.83,2.5,3.62,3.71,5.45,1.88,2.88,2.35,5.85.44,8.93a3,3,0,0,0-.22.86c-.07,2.24,1.05,4.18,1.63,6.24a71.08,71.08,0,0,1,2.92,17.84c0,.82.13,1.63.2,2.45a.48.48,0,0,0,0,.62l-.19,5.86Z" transform="translate(-60.45 -63.99)"/><path class="cls-9" d="M351.6,470.19a24.38,24.38,0,0,1,4-5.37c4.67-5.35,9.14-10.83,11.85-17.49a23.72,23.72,0,0,0,2-8.78c0-4.17.07-8.33-1.55-12.28-1-2.46-2.11-4.89-3.24-7.3-1.34-2.86-1.55-5.56.6-8.19a20,20,0,0,0,2-3.28,5.89,5.89,0,0,0-.77-7.29c-2.89-3.18-2-6.63.34-9.16,2.06-2.2,3.84-4.66,5.81-7a21.25,21.25,0,0,0,2-3.77h.93a15.68,15.68,0,0,1-1.92,5.27l-.24.29c-.23.41-.46.83-.68,1.25l-.25.3-.68,1.24-.24.3c-.34.52-.67,1-1,1.56l-.24.26L368.69,393l-.23.25c-.6,1.28-1.76,2.07-2.62,3.13-.5.64-.39.78.73.94l.35.31a5.42,5.42,0,0,0,2.74,2.78c.47.12.6.49.66.92l.29.3c.24.61.47,1.22.7,1.83,0,.66.49.64,1,.66l2.08.07c.3.7.61.7.92,0l10.82-.15,6.17.14c.21.69.79.51,1.27.52,1.33,0,2.65.07,4,0,1-.06,2.14.37,3.1-.33h2.07a9.74,9.74,0,0,0,3.59,3c-1.82.56-2.73,1.8-3.74,2.93H373c-.57,0-1.41-.42-1.64.61l-1,2.16-.24.28a22,22,0,0,1-4.06,4c-.6.84-.26,1.43,1.25,2.18.72.27.91,1,1.26,1.55,0,.43,0,.83.57.93l.35.32c0,.43,0,.83.59.91a1.52,1.52,0,0,1,1,1.26l.22.25.1.33.3.31c.28.13.24.41.31.64l.22.27.09.32.3.31c.28.14.24.43.31.66l.22.25.1.34.23.28c1.25,1.53,1.51,3.44,2.06,5.24a.51.51,0,0,0,.19.64,1.76,1.76,0,0,0,.07.6.93.93,0,0,0,.21,1c0,.31.06.61.08.91V439l-.12,1.82a.93.93,0,0,0-.2,1l-.09.59a1,1,0,0,0-.25.95,30.7,30.7,0,0,1-2.92,6.48l-.23.28-.71,1.27-.22.23a19,19,0,0,1-4.15,4.88c-4.9,4.39-9.58,9-14.24,13.64a2.87,2.87,0,0,1-.5.36C352.14,470.5,351.82,470.51,351.6,470.19Z" transform="translate(-60.45 -63.99)"/><path class="cls-10" d="M402.63,410.24a8,8,0,0,1,3.74-2.93,9.74,9.74,0,0,1-3.59-3c-.11-.33-.16-.69-.49-.91l-.65-1.48c.26-.22.15-.42,0-.61-.05-.51-.1-1-.16-1.52v-.69a7.94,7.94,0,0,1,5.28-7.22,8.53,8.53,0,0,1,7.73,1,26.25,26.25,0,0,1,7.38,6.38c1.73,2.25,4.17,3.78,6.14,5.81a2.66,2.66,0,0,1,.6,3.53,11,11,0,0,0-1-1.18c-1.41-1.45-1.69-1.37-3,.11-3.46,4-7.11,7.83-11.66,10.64-2.55,1.58-5.22,2.3-8.13.73a5.28,5.28,0,0,0-2.75-.89c-.48-.51-.37-1.24-.66-1.83V414c.41-1,.08-2.19.9-3.06A.75.75,0,0,0,402.63,410.24Z" transform="translate(-60.45 -63.99)"/><path class="cls-7" d="M239.78,166.62a2.19,2.19,0,0,0,1.22.59c1.9.41,3.06,1.47,3.15,2.85a3.37,3.37,0,0,1-2.6,3.68,26.4,26.4,0,0,0-5.46,2.42,14.25,14.25,0,0,0-6.77,10.47c-.82,5.2,0,10.33.79,15.43a117.5,117.5,0,0,0,4.08,18.28,4.7,4.7,0,0,1,.1.91c-5.22-1.2-8.11-4.84-9.86-9.59a44,44,0,0,1-2.26-11.25,42,42,0,0,1,1.61-16.22c1.38-4.59,3.18-9,6.72-12.41A20.63,20.63,0,0,1,239.78,166.62Z" transform="translate(-60.45 -63.99)"/><path class="cls-7" d="M233,398.24c-.08,1.66-.86,3.15-1.23,4.75A144.84,144.84,0,0,0,228,424.75a32,32,0,0,0,.31,9.32c1.33,6.12,5.43,9.54,11.11,11.38,2.08.68,3.39,1.77,3.48,3.23a3.35,3.35,0,0,1-2.69,3.56,3,3,0,0,0-1.69.64c-7.34-2-12-7-14.72-13.88a43.23,43.23,0,0,1-3.1-17.27c.17-5.86.91-11.69,3.74-16.94A11.86,11.86,0,0,1,233,398.24Z" transform="translate(-60.45 -63.99)"/><path class="cls-9" d="M374.77,379.69c.35-4.27-2-7.41-4.47-10.45-3.87-4.78-8.14-9.21-12.19-13.82-4.43-5-8.88-10.1-12-16.11-2-3.94-3.44-8.09-.86-12.43a19,19,0,0,1,5.29-5.5,20.39,20.39,0,0,0,4.16-4.29,1.53,1.53,0,0,0,.27-1h1.09a8.16,8.16,0,0,1,.43,3.39.53.53,0,0,0-.13.65,11.8,11.8,0,0,1-1.77,4.92l-.24.28a8.44,8.44,0,0,1-4.32,3.1c-.78-.53-1.22-.14-1.54.56l-.62.25c-.51-.77-.92-.75-1.24.14a.8.8,0,0,0-.11,1.12l.11.1v.92a.9.9,0,0,0,0,1.24c-.17,1.27.6,2.3.92,3.44l.2.24.11.38.21.24,1,1.6c0,.42,0,.83.58.91l.34.31c0,.63.16,1.13.88,1.24,1.55,1.47,2.75,3.25,4.31,4.74,4.82,4.61,9.56,9.31,14.35,14a4.27,4.27,0,0,1,.84,1.06c0,.44,0,.85.6.92l.33.31c0,.43,0,.83.57.94h.05l.21.24c.26.42.73.73.71,1.29a4,4,0,0,0,1.4,2.75,17.06,17.06,0,0,1,1.49,12.39Z" transform="translate(-60.45 -63.99)"/><path class="cls-11" d="M351.6,470.19c.22.32.54.31.87.29-.5,1.52-1.94,2.29-2.81,3.54-1.18,1.72-2.59,3.25-3.27,5.29a17.29,17.29,0,0,0-.4,4.59c0,.74.53.74,1.05.82,7.63,1.16,10.19,8.84,7.85,14.62-2,5-6.36,6.78-11.15,7.9a7.64,7.64,0,0,1-1.07.14l-.64-.12c.44-1.12,1.56-1.23,2.47-1.59,3.91-1.53,6.46-6.33,5.28-9.93a7.81,7.81,0,0,0-3.46-3.95c-5.39-3.64-5.42-8.2-1.94-12.89,2.12-2.87,4.47-5.58,6.73-8.35A2.47,2.47,0,0,1,351.6,470.19Z" transform="translate(-60.45 -63.99)"/><path class="cls-8" d="M310.64,383.32c-.2,0-.49.06-.59-.05-1.48-1.56-3.61-1.6-5.43-2.33-1.76-2.51-2.53-5.43-3.44-8.3-.18-.56,0-1.25-.54-1.7a4.68,4.68,0,0,1,2.35-4.06,3.53,3.53,0,0,1,4,.3c.71.53,1.3.61,1.8-.18,1.24-2,3.24-2.48,5.36-2.75l.16.62c-.14,1.07-.22,2.15-.44,3.2-.36,1.7-.92,3.36-2.76,4a1.5,1.5,0,0,0-1.16,1.78.13.13,0,0,0,0,.06q.48,4.5.94,9Z" transform="translate(-60.45 -63.99)"/><path class="cls-12" d="M402.1,418a5.28,5.28,0,0,1,2.75.89c2.91,1.57,5.58.85,8.13-.73,4.55-2.81,8.2-6.63,11.66-10.64,1.28-1.48,1.56-1.56,3-.11.36.36.65.79,1,1.18q-4.8,4.77-9.62,9.52a18.15,18.15,0,0,1-5.48,3.78c-4.37,1.94-8,.89-10.76-2.38A2.23,2.23,0,0,1,402.1,418Z" transform="translate(-60.45 -63.99)"/><path class="cls-5" d="M287.06,403.5c-.9.6-1.41-.14-2-.61q-3.62-3.11-7.18-6.26a2.14,2.14,0,0,0-1.53-.56,124.59,124.59,0,0,1-15.91-1.21c-.62,0-1.23,0-1.85,0-.06-.91.57-1,1.22-1a154.11,154.11,0,0,1,16.92.68,5,5,0,0,1,2.67,1.15C282.25,398,284.45,401,287.06,403.5Z" transform="translate(-60.45 -63.99)"/><path class="cls-13" d="M304.4,432.43c1.78,2,2.84,4.47,4.18,6.76,5.59,9.62,11.13,19.28,16.7,28.92,1.76,3.07,3.54,6.13,5.31,9.2.25.43.39,1,.87,1.23.08.83,1.12,1.51.39,2.46q-7-12.18-14-24.4-6.42-11.22-12.81-22.46A2.92,2.92,0,0,1,304.4,432.43Z" transform="translate(-60.45 -63.99)"/><path class="cls-13" d="M402.63,410.24a.78.78,0,0,1-.32.66H371.4c.23-1,1.07-.61,1.64-.61h27.88Z" transform="translate(-60.45 -63.99)"/><path class="cls-13" d="M287.4,409.85c3.19-.72,4.08-.4,5.66,2.29q3.76,6.44,7.44,12.93a10.52,10.52,0,0,1,.51,1.27c-1.64-1.19-2.27-3.08-3.25-4.72-2.05-3.42-4-6.9-6-10.38a2,2,0,0,0-1.91-1C289,410.21,288.06,410.69,287.4,409.85Z" transform="translate(-60.45 -63.99)"/><path class="cls-13" d="M374.46,404.19l-2.08-.07c-.46,0-.94,0-1-.66h13.2c.56,0,1.28-.3,1.57.55l-10.82.15Z" transform="translate(-60.45 -63.99)"/><path class="cls-11" d="M400.71,404.37c-1,.7-2.06.27-3.1.33-1.32.08-2.64,0-4,0-.48,0-1.06.17-1.27-.52l8.34-.11v.29Z" transform="translate(-60.45 -63.99)"/><path class="cls-13" d="M301,426.55a19.58,19.58,0,0,1,3.33,5.66A10.73,10.73,0,0,1,301,426.55Z" transform="translate(-60.45 -63.99)"/><path class="cls-11" d="M369.78,400.41a5.42,5.42,0,0,1-2.74-2.78A5.35,5.35,0,0,1,369.78,400.41Z" transform="translate(-60.45 -63.99)"/><path class="cls-11" d="M356.09,316.09H355l.3-2.14A3.44,3.44,0,0,1,356.09,316.09Z" transform="translate(-60.45 -63.99)"/><path class="cls-11" d="M367.32,419.55c-1.51-.75-1.85-1.34-1.25-2.18C366.05,418.34,367.3,418.6,367.32,419.55Z" transform="translate(-60.45 -63.99)"/><path class="cls-11" d="M374.3,367.35a4,4,0,0,1-1.4-2.75A4.2,4.2,0,0,1,374.3,367.35Z" transform="translate(-60.45 -63.99)"/><path class="cls-13" d="M343.6,306.69a8.19,8.19,0,0,1-2.52,0,1.72,1.72,0,0,1,2.42-.1Z" transform="translate(-60.45 -63.99)"/><path class="cls-13" d="M342,507.26l.64.12a1.4,1.4,0,0,1-1.95.26,1.54,1.54,0,0,1-.25-.26Z" transform="translate(-60.45 -63.99)"/><path class="cls-13" d="M400.71,404.37v-.29c.4-.53,1.22,0,1.58-.66.33.22.38.58.49.91Z" transform="translate(-60.45 -63.99)"/><path class="cls-13" d="M401.4,414v2.2a1.49,1.49,0,0,1-.06-2.13Z" transform="translate(-60.45 -63.99)"/><path class="cls-13" d="M376.1,439v-2.2C376.94,437.54,376.88,438.27,376.1,439Z" transform="translate(-60.45 -63.99)"/><path class="cls-13" d="M329.2,493a3.6,3.6,0,0,1,0,1.9,1.14,1.14,0,0,1-.32-1.58A1.22,1.22,0,0,1,329.2,493Z" transform="translate(-60.45 -63.99)"/><path class="cls-11" d="M348.79,308.13a1.14,1.14,0,0,1-1.52-.54.14.14,0,0,0,0-.06A1.43,1.43,0,0,1,348.79,308.13Z" transform="translate(-60.45 -63.99)"/><path class="cls-11" d="M348.52,329c.32-.7.76-1.09,1.54-.56A2.61,2.61,0,0,1,348.52,329Z" transform="translate(-60.45 -63.99)"/><path class="cls-13" d="M346.64,330.6a.79.79,0,0,1-.11-1.11l.11-.11.33.11C346.94,329.88,347.06,330.33,346.64,330.6Z" transform="translate(-60.45 -63.99)"/><path class="cls-13" d="M346.66,332.76a.9.9,0,0,1,0-1.24.77.77,0,0,1,.18,1.06A.62.62,0,0,1,346.66,332.76Z" transform="translate(-60.45 -63.99)"/><path class="cls-11" d="M347,329.49l-.33-.11c.32-.89.73-.91,1.24-.14Z" transform="translate(-60.45 -63.99)"/><path class="cls-11" d="M350.93,341.12c-.72-.11-.9-.61-.88-1.24A1.4,1.4,0,0,1,350.93,341.12Z" transform="translate(-60.45 -63.99)"/><path class="cls-11" d="M366.69,397.32c-1.12-.16-1.23-.3-.73-.94Z" transform="translate(-60.45 -63.99)"/><path class="cls-13" d="M376,435.91a.91.91,0,0,1-.21-1C376.4,435.17,376.4,435.48,376,435.91Z" transform="translate(-60.45 -63.99)"/><path class="cls-13" d="M375.78,441.8a.93.93,0,0,1,.2-1C376.4,441.27,376.4,441.59,375.78,441.8Z" transform="translate(-60.45 -63.99)"/><path class="cls-13" d="M375.4,443.34a1,1,0,0,1,.25-.95C376.13,442.85,376,443.16,375.4,443.34Z" transform="translate(-60.45 -63.99)"/><path class="cls-11" d="M374.77,379.69h1a3.91,3.91,0,0,1-.1.58h-.93Z" transform="translate(-60.45 -63.99)"/><path class="cls-11" d="M370.09,423.26c-.54-.08-.58-.48-.59-.91A.89.89,0,0,1,370.09,423.26Z" transform="translate(-60.45 -63.99)"/><path class="cls-11" d="M369.15,422c-.54-.1-.57-.5-.57-.93A.9.9,0,0,1,369.15,422Z" transform="translate(-60.45 -63.99)"/><path class="cls-13" d="M346.16,307.39l-.1-.29c.35-.41.64,0,1,.06v.3Z" transform="translate(-60.45 -63.99)"/><path class="cls-11" d="M349.71,339.57c-.55-.08-.58-.49-.58-.91A.88.88,0,0,1,349.71,339.57Z" transform="translate(-60.45 -63.99)"/><path class="cls-11" d="M371.93,363.05c-.54-.11-.57-.51-.57-.94A.9.9,0,0,1,371.93,363.05Z" transform="translate(-60.45 -63.99)"/><path class="cls-11" d="M371,361.8c-.56-.07-.6-.48-.6-.92A.93.93,0,0,1,371,361.8Z" transform="translate(-60.45 -63.99)"/><path class="cls-13" d="M338,506.69a.82.82,0,0,1,.77.45.53.53,0,0,1-.72-.28A.48.48,0,0,1,338,506.69Z" transform="translate(-60.45 -63.99)"/><path class="cls-13" d="M375.7,434.36a.51.51,0,0,1-.19-.64C375.87,433.85,376.09,434,375.7,434.36Z" transform="translate(-60.45 -63.99)"/><path class="cls-13" d="M345.45,307a.53.53,0,0,1-.64-.17C345.14,306.43,345.32,306.61,345.45,307Z" transform="translate(-60.45 -63.99)"/><path class="cls-7" d="M401.6,401.33c.19.19.3.39,0,.61C401.4,401.75,401.31,401.55,401.6,401.33Z" transform="translate(-60.45 -63.99)"/><path class="cls-7" d="M401.45,399.12v.69C401,399.58,401,399.35,401.45,399.12Z" transform="translate(-60.45 -63.99)"/><path class="cls-14" d="M204,383.52l.63.24C204.24,384.11,204.08,383.9,204,383.52Z" transform="translate(-60.45 -63.99)"/><path class="cls-13" d="M329.22,489.62a.54.54,0,0,1-.15.64C328.68,490,328.86,489.76,329.22,489.62Z" transform="translate(-60.45 -63.99)"/><path class="cls-13" d="M356.4,320.13a.53.53,0,0,1,.13-.65C356.93,319.79,356.75,320,356.4,320.13Z" transform="translate(-60.45 -63.99)"/><path class="cls-11" d="M373.53,385.88l.24-.29Z" transform="translate(-60.45 -63.99)"/><path class="cls-7" d="M234.26,162.9l.36.31Z" transform="translate(-60.45 -63.99)"/><path class="cls-11" d="M370.13,413.35l.24-.28Z" transform="translate(-60.45 -63.99)"/><path class="cls-11" d="M373.45,428.48l-.23-.28Z" transform="translate(-60.45 -63.99)"/><path class="cls-11" d="M370.4,390.79l.24-.26Z" transform="translate(-60.45 -63.99)"/><path class="cls-11" d="M368.58,393.25l.23-.25C368.84,393.18,368.74,393.24,368.58,393.25Z" transform="translate(-60.45 -63.99)"/><path class="cls-11" d="M373.12,427.86l-.22-.25C373.05,427.63,373.16,427.69,373.12,427.86Z" transform="translate(-60.45 -63.99)"/><path class="cls-11" d="M372.6,387.43l.25-.3Z" transform="translate(-60.45 -63.99)"/><path class="cls-11" d="M355.21,313.6l-.21-.26C355.15,313.36,355.25,313.42,355.21,313.6Z" transform="translate(-60.45 -63.99)"/><path class="cls-11" d="M372.59,427l-.3-.31Z" transform="translate(-60.45 -63.99)"/><path class="cls-11" d="M372.29,450.1l.23-.28Z" transform="translate(-60.45 -63.99)"/><path class="cls-11" d="M354.4,325.33l.24-.28Z" transform="translate(-60.45 -63.99)"/><path class="cls-11" d="M372.19,363.31l-.21-.24C372.13,363.08,372.23,363.14,372.19,363.31Z" transform="translate(-60.45 -63.99)"/><path class="cls-11" d="M348.1,337.06l-.21-.24C348,336.83,348.14,336.88,348.1,337.06Z" transform="translate(-60.45 -63.99)"/><path class="cls-11" d="M372.2,426.32l-.22-.27C372.13,426.07,372.24,426.14,372.2,426.32Z" transform="translate(-60.45 -63.99)"/><path class="cls-11" d="M370.73,401.63l-.29-.3Z" transform="translate(-60.45 -63.99)"/><path class="cls-11" d="M347,307.46v-.3l.18.31Z" transform="translate(-60.45 -63.99)"/><path class="cls-11" d="M371.68,389l.24-.3Z" transform="translate(-60.45 -63.99)"/><path class="cls-11" d="M371.27,424.77l-.22-.25C371.21,424.53,371.31,424.59,371.27,424.77Z" transform="translate(-60.45 -63.99)"/><path class="cls-11" d="M347.78,336.44l-.2-.24C347.73,336.22,347.84,336.26,347.78,336.44Z" transform="translate(-60.45 -63.99)"/><path class="cls-11" d="M371.4,451.6l.22-.23C371.61,451.55,371.51,451.6,371.4,451.6Z" transform="translate(-60.45 -63.99)"/><path class="cls-11" d="M371.67,425.41l-.3-.31Z" transform="translate(-60.45 -63.99)"/><path class="cls-8" d="M316,358.19l-.54.22c0-.29-.12-.67.25-.75S316.05,358,316,358.19Z" transform="translate(-60.45 -63.99)"/><path class="cls-1" d="M292.12,384.06c-.55,3.05-2.22,4.58-4.77,4.38C287.87,385.87,289.92,384,292.12,384.06Z" transform="translate(-60.45 -63.99)"/><path class="cls-11" d="M299.73,409.69c-.6.4-.54.78-.18,1.39q5.65,9.72,11.24,19.46l9.7,16.81a8.69,8.69,0,0,1,.52,1.27,39.75,39.75,0,0,1-4.15-5c-6-7.68-10.67-16.15-15.42-24.59-1.18-2.1-2.4-4.17-3.59-6.27a9,9,0,0,1-.57-1.26c-.71-2-.27-2.63,1.83-2.69A6.08,6.08,0,0,1,299.73,409.69Z" transform="translate(-60.45 -63.99)"/><path class="cls-6" d="M323.57,361.34a1.23,1.23,0,0,1-.34,1.06,43.12,43.12,0,0,1-1.57-10.1,34.59,34.59,0,0,0,3.21-5.06c2-3.21,3.68-6.63,5.9-9.72A16.73,16.73,0,0,0,334,340.8c-.66.9-1.35,1.79-2,2.71a145.49,145.49,0,0,0-8,13.27A5.14,5.14,0,0,0,323.57,361.34Z" transform="translate(-60.45 -63.99)"/><path class="cls-11" d="M323.57,361.34a5.17,5.17,0,0,1,.41-4.56c2.55-4.5,5-9,8-13.27.64-.92,1.33-1.81,2-2.71,1.56-1,2-.89,2.5.53-1-.13-1.25.75-1.62,1.37q-5.17,8.76-10.31,17.51A2.26,2.26,0,0,1,323.57,361.34Z" transform="translate(-60.45 -63.99)"/><path class="cls-11" d="M325.7,456.81a32,32,0,0,1,3.6,5.82,99.83,99.83,0,0,1,4.93,8.8,6.38,6.38,0,0,1-2.94-3,72.74,72.74,0,0,1-5.44-10.84A4.89,4.89,0,0,1,325.7,456.81Z" transform="translate(-60.45 -63.99)"/><path class="cls-11" d="M321.07,448.78a1.54,1.54,0,0,1,.84,1.34C321.21,449.94,321.09,449.39,321.07,448.78Z" transform="translate(-60.45 -63.99)"/><path class="cls-11" d="M323.22,452.51c.32.12.55.31.5.69a.57.57,0,0,1-.51-.62S323.22,452.54,323.22,452.51Z" transform="translate(-60.45 -63.99)"/><path class="cls-11" d="M322.3,450.94c.32.14.55.34.51.72a.57.57,0,0,1-.52-.63A.28.28,0,0,1,322.3,450.94Z" transform="translate(-60.45 -63.99)"/><path class="cls-4" d="M319.4,370c-1,.08-1.24,1-1.64,1.66-2.13,3.57-4.22,7.17-6.34,10.74a3,3,0,0,1-.52.54q-.47-4.5-.94-9A1.5,1.5,0,0,1,311,372.1l.07,0c1.84-.61,2.4-2.27,2.76-4,.22-1.05.3-2.13.44-3.2,1-.77,1.07-2.24,2.24-2.86l2.58,7.49.22.35h.09Z" transform="translate(-60.45 -63.99)"/><path class="cls-1" d="M319.4,370v-.08h-.09v-.31a6.56,6.56,0,0,0,2.18-2.14,1.92,1.92,0,0,1,1.91-1,27.3,27.3,0,0,1,.52,5.77,1.49,1.49,0,0,1-1.07,1.67,1.69,1.69,0,0,1-1.86-.78A17.7,17.7,0,0,1,319.4,370Z" transform="translate(-60.45 -63.99)"/><path class="cls-15" d="M319.4,369.54v.31l-.22-.35A.2.2,0,0,0,319.4,369.54Z" transform="translate(-60.45 -63.99)"/><path class="cls-11" d="M374.46,404.19h.94C375.07,404.89,374.76,404.89,374.46,404.19Z" transform="translate(-60.45 -63.99)"/><path class="cls-4" d="M162.16,90.6" transform="translate(-60.45 -63.99)"/><path class="cls-16" d="M103.06,234.08c-54.82,0-56.78,150.87-2,150.87l2.77.51c-24.35,0-24.35-151.38,0-151.38" transform="translate(-60.45 -63.99)"/><path class="cls-9" d="M146.82,136.72c-53.88,0-74.38,142.49-59.9,244.35,8.06,56.65,26.93,100.74,56.9,100.74l4.25,1.15c-37.25,0-37.25-346.24,0-346.24" transform="translate(-60.45 -63.99)"/><path class="cls-17" d="M159,64.49c-70.09,0-72.11,488.91-1.94,488.91l2.75,1.64c-24.11,0-24.11-490.55,0-490.55" transform="translate(-60.45 -63.99)"/><path class="cls-18" d="M88.12,307.5a5.21,5.21,0,0,1-2.38,2.05,6.41,6.41,0,0,1,2.46,1.88c.09.21.13.45.36.58l.47,1c-.16.15-.09.28,0,.4l.15,1,0,.46A5.23,5.23,0,0,1,86,319.76a5.61,5.61,0,0,1-5.13-.42,17.27,17.27,0,0,1-5.07-4c-1.21-1.44-2.87-2.37-4.24-3.65a1.77,1.77,0,0,1-.5-2.32,6.16,6.16,0,0,0,.7.75c1,.92,1.15.85,2-.16a34.48,34.48,0,0,1,7.38-7.39c1.64-1.12,3.38-1.68,5.35-.73a3.4,3.4,0,0,0,1.84.5c.34.33.29.81.5,1.19l.06,1.46c-.24.67,0,1.45-.5,2.05A.5.5,0,0,0,88.12,307.5Z" transform="translate(-60.45 -63.99)"/><path class="cls-19" d="M88.17,302.37a3.47,3.47,0,0,1-1.86-.51c-2-1-3.75-.4-5.4.74a34.36,34.36,0,0,0-7.44,7.45c-.81,1-1,1.08-2,.16-.25-.23-.46-.5-.71-.75l6.12-6.64a12,12,0,0,1,3.54-2.69,5.64,5.64,0,0,1,7.24,1.25A1.58,1.58,0,0,1,88.17,302.37Z" transform="translate(-60.45 -63.99)"/><path class="cls-16" d="M116.81,154.54Q94.16,189,87.89,239.25" transform="translate(-60.45 -63.99)"/><path class="cls-16" d="M116,467.13c-16.73-25.86-27.28-54.4-29.18-86.7" transform="translate(-60.45 -63.99)"/></svg>