<svg id="Calque_1" data-name="Calque 1" xmlns="http://www.w3.org/2000/svg" viewBox="0 0 914 674.28"><defs><style>.cls-1{fill:#fefefe;}.cls-2{fill:#dfdfdf;}</style></defs><path class="cls-1" d="M1198.5,114.86c.13,12.12-3.23,23.14-6.79,34.11q-5,15.28-10.16,30.49a6.83,6.83,0,0,0,.1,5A72.07,72.07,0,0,1,1186,206c1.23,18.57-2.7,36.24-9.38,53.39-1.57,4-1.64,7.4.42,11.34,7.13,13.61,10.47,28.25,11.77,43.55,1.76,20.83-1.56,40.89-8.13,60.49-2,6-1.76,11.2,1.25,16.64a109.29,109.29,0,0,1,14.38,50.28c1.06,19.55-3.15,38.2-10.1,56.33-.26.68-.49,1.37-.75,2-1,2.62-.6,4.54,1.32,7,5.43,7,9,15.12,12.21,23.33,5.77,14.53,8.74,29.55,7.64,45.24-.77,11.1-3.42,21.83-6.71,32.42-1,3-1.82,6.09-3,9a3.64,3.64,0,0,0,.74,4.18c7.21,8.46,12.29,18.07,14.09,29,3.3,20.09-1.6,37.87-16.43,52.27-6.28,6.11-14.3,8.63-22.89,9.76a48.39,48.39,0,0,1-32.33-6.9,4,4,0,0,0-3.36-.36,73.78,73.78,0,0,1-20.19,2.39c-5-.1-9.87,1.15-14.9,1.13a54.7,54.7,0,0,1-30.3-9.16c-1.94-1.28-2.87-1.12-4.39.61-10,11.38-22.11,19.82-37,23.28-14.51,3.38-28.67,2.08-41.78-5.77a49.66,49.66,0,0,1-7.26-5.72c-1.11-1-1.93-1.29-3.31-.44a73.34,73.34,0,0,1-29.55,10.44c-14.13,1.77-27.8-.14-40.34-6.92-3.93-2.12-7.21-3.25-11.53-2.19a31.86,31.86,0,0,1-9.7,1c-6.91-.47-13.15,1.46-19.51,3.82a77.73,77.73,0,0,1-32.59,5,56.3,56.3,0,0,1-34.27-14.34,3.59,3.59,0,0,0-4.1-.87c-8.9,3-17.53,2.34-25.66-2.53a4.46,4.46,0,0,0-5.41,0c-16.13,10.11-32.68,10.8-49.52,1.72a5.21,5.21,0,0,0-3.9-.56c-12.07,2.76-23.8,1.4-35.23-3.11a32.59,32.59,0,0,1-8.24-4.74c-1.45-1.14-2.19-.82-3.41.26-8.33,7.43-17.32,13.81-28.2,17-18.61,5.47-36.87,5.14-54.58-3.49a6.12,6.12,0,0,0-4.45-.31c-21.25,5.18-41.57,1.89-61.21-7a51.05,51.05,0,0,1-7.52-4.39c-1.52-1-2.41-.78-3.73.38C499,706,493.43,712,486.35,716A81,81,0,0,1,451,727c-7.59.47-15.13,1.94-22.75,1.66-12.62-.46-23.66-5.29-33.19-13.37a13.27,13.27,0,0,0-9.32-3.53c-8.91.2-17.78,0-26.5-2.15A59.21,59.21,0,0,1,325.83,688a32.56,32.56,0,0,1-6-13.61,6.9,6.9,0,0,0-1-2.77c-7.53-10.57-8.62-22.21-5.77-34.54,2-8.57,5.57-16.49,9.74-24.16,1.11-2,1.09-3.42-.15-5.62-6.63-11.75-13.78-23.27-16.12-37-2.18-12.84.11-24.91,5.27-36.6,2.6-5.89,5.29-11.78,9.68-16.64,1.37-1.51.92-3,.29-4.52a68.33,68.33,0,0,1-4.32-15.42c-.93-6.22.5-11.9,3.1-17.39a4.81,4.81,0,0,0-.12-5.06c-5.58-9.56-9.28-19.8-9.17-31,.08-8.5.36-17.07,2.69-25.35a5.31,5.31,0,0,0-1.08-5.28c-7.15-8.81-10.74-18.82-10-30.25a50.44,50.44,0,0,1,3.12-14,13.36,13.36,0,0,0-.95-12,45.32,45.32,0,0,1-6.28-21.74c-.14-6.78,1.52-13.31,3.9-19.63a49.43,49.43,0,0,1,6.79-13c1.88-2.45,2-4.7.94-7.52-3-8.18-6.3-16.23-8.68-24.64-5.7-20.16-1.76-38.7,9.78-55.66,2.44-3.59,2.37-5.77.48-9.2a76.25,76.25,0,0,1-8.86-26.17c-1.1-7.58.51-14.82,3.58-21.74,1.87-4.23,3.87-8.41,6.05-12.5a5,5,0,0,0,.3-4.34,87,87,0,0,1-4.76-23.1c-.72-13.62,3.68-25.7,11.59-36.37C329,68.87,341,60.12,356.42,56.89a54.55,54.55,0,0,1,24.51.58,7.23,7.23,0,0,0,4.25.13c16.74-5.69,32.91-3.44,48.67,3.72A91.33,91.33,0,0,1,447,68.41a4.17,4.17,0,0,0,4.74.17A79,79,0,0,1,488.52,60c9,.12,17.77,2.34,26.43,4.76a7.74,7.74,0,0,0,5-.06c8.88-3.25,17.69-1.47,26.52.32,8.08,1.64,15.82,4.08,22.74,8.69a3.29,3.29,0,0,0,3.77,0c5.54-2.91,11-5.93,17.24-7.3a94.42,94.42,0,0,1,40.47.17c9.92,2.09,19.64,4.53,28.31,10a2.35,2.35,0,0,0,3.52-.5c9.35-10.55,21.61-14.8,35.2-16.27,15.53-1.68,29.69,2,42.67,10.54,1.42.94,2.4,1,3.83-.09,11.31-8.81,24.2-12.79,38.46-11.39,13.75,1.36,27.46,3.28,39.32,11.32,1.72,1.16,3,.15,4.24-.62a140.66,140.66,0,0,1,20.53-10c19.1-7.77,38-6.1,56.74,1.13a55.27,55.27,0,0,1,21.14,14.54c1.94,2.12,3.4,2.11,5.73.62,9-5.76,18.33-10.72,28.76-13.4,17.72-4.56,34.39-1.55,50.14,7.18,3.81,2.1,7,2.74,11.18.92,8.22-3.59,16.65-6.65,25.62-8.08,9.38-1.49,18.62-.79,27.85.88a126,126,0,0,1,29.59,9.07c1.58.71,2.55.38,3.87-.66,13-10.25,27.81-16.22,44.45-14.38,20.15,2.23,34.37,13.18,41.76,32.39A67.77,67.77,0,0,1,1198.5,114.86Zm-71,547.82c3.6,0,6.14.05,8.69,0,7-.15,12.07-3.55,13.84-9.34a15.4,15.4,0,0,0,.17-7.54c-.82-4.25-2.4-8.38-1.82-12.84a92.67,92.67,0,0,1,6.13-22.51c2.56-6.4,3-12.58-.75-18.79a45.87,45.87,0,0,1-4-8.95c-3.69-11.06-5.71-22.18-2.27-33.83,2.77-9.37,7.78-17.56,12.68-25.81,3.89-6.57,4.72-13.25,1.61-20.24-4.34-9.8-8.68-19.6-11.11-30.08a183.55,183.55,0,0,1-4.74-30.27,138.07,138.07,0,0,1,1-30.88c1.87-11.4,5.34-22.39,8.51-33.45,2-6.8,2.57-13.41.52-20.3-2.11-7.12-4.49-14.18-5.81-21.52s-3.54-14.89-3-22.55c.86-11.19,3-22.23,4.63-33.32,1-7.12,1.87-14.2-1-21.11-1.32-3.18-2.73-6.33-4.12-9.48a44.08,44.08,0,0,1-3-24c1.32-10,5.06-19.27,9.53-28.23,3.66-7.33,3.15-14.34-1-21.21-1.61-2.63-3.38-5.16-5-7.79a30,30,0,0,1-4.54-14.89c-.24-6.47,1.69-12.34,3.74-18.26,1.14-3.31,1.84-6.68,1-10.15-1.77-7.61-7.11-11.34-14.4-12.55-4.36-.73-8.82-.86-13.19-1.5-8.41-1.25-15.06-6-21.48-11.15-6.18-4.93-12.68-6.4-19.91-2.43-1.27.7-2.63,1.26-3.87,2a8.75,8.75,0,0,1-7.27,1.18,9.94,9.94,0,0,0-5.13.11c-7.38,1.85-14.88,3.14-22.35,4.54-7.87,1.47-15.1.38-21.75-4.32-5.25-3.72-11.12-5.5-17.5-3.61a129.64,129.64,0,0,1-28,4.95c-9.5.66-18.78-.34-28.1-1.69s-17-7.14-26.5-7.79c-4.74-.33-9.14-.7-13.47,1.43-3.17,1.56-6.22,3.68-9.8,4-10.44.77-20.8,2.44-31.36,1.85A108.85,108.85,0,0,1,837,96a20.53,20.53,0,0,0-18.18,2.4c-4.75,3-9.58,5.91-14.27,9-10.06,6.62-20.61,8.68-32,3.7-2.08-.91-4.2-1.73-6.24-2.72-8.08-3.9-15.74-3.65-22.92,2.13-4.57,3.68-9.49,6.11-15.69,5.58-4.4-.37-8-2.31-11.47-4.57-6.19-4-12.62-4.76-19.39-1.66a43,43,0,0,0-7.92,5.25c-5.65,4.31-9.74,4.27-15.5-.06-4.43-3.33-9.25-5.2-15-4a99.39,99.39,0,0,0-10.64,3.32,14.91,14.91,0,0,1-10.08,0,37.94,37.94,0,0,1-15.93-10.06,16.58,16.58,0,0,0-12.67-5.3c-4.51,0-8.54,1.67-12.59,3.18-10.41,3.91-20.58,3.23-30.69-1-4-1.66-7.1-4.68-10.68-7-5-3.25-10.32-4.17-16.06-2.09a75.53,75.53,0,0,0-10.52,5.09c-5.52,3-11.24,3.92-17.29,1.78-2.7-1-4.92-2.73-7.21-4.34-5.33-3.73-11-4.93-17.28-2.86-2.84.94-5.63,2-8.46,3-4.91,1.63-9.56,1.5-14-1.61a17.53,17.53,0,0,0-9.88-3.42c-5.94-.11-10.58,2.88-15.08,6.16a117.41,117.41,0,0,1-11.17,7.73c-4.54,2.56-9.22,4.87-14.6,4.57A41.55,41.55,0,0,1,397.66,104a13,13,0,0,0-8.16-1.38c-6.5,1.21-10.65,5.19-13.08,11.11a65.58,65.58,0,0,1-10.77,18.17,7.33,7.33,0,0,1-4.73,2.76c-10.09,1.56-15.29,10.06-12.37,19.83.72,2.43,1.56,4.83,2.22,7.29,2.76,10.24,5.24,20.5,5.07,31.26-.13,7.92-2.47,15.35-4.07,23a18.17,18.17,0,0,0,1.77,13.18,117.73,117.73,0,0,0,7,10.7,25.94,25.94,0,0,1,4.54,9.5c1.21,5.18-.07,10.08-1.32,15a23.51,23.51,0,0,0,0,12.32c2.45,9,5.7,17.8,7.44,27,1.62,8.54,2.14,17-.16,25.56a53,53,0,0,1-8,16.25c-4.11,6-5.65,12.63-3.56,19.91q1.5,5.24,3.21,10.39c2.8,8.46,4,17.15,2.61,25.95a59.16,59.16,0,0,1-9.91,25.07c-4.74,6.78-6.24,14.46-3.05,22.51,2.52,6.33,2.88,12.55.21,19a17.33,17.33,0,0,0-1.08,11.16,27,27,0,0,0,4.09,8.24c3.66,5.46,6.24,11.36,5.51,18.09-.71,6.49-3.3,12.39-6.41,18.09-3.43,6.28-7.25,12.35-10.18,18.91-3.81,8.52-3.19,16.6,2.24,24.2a43.74,43.74,0,0,1,5.05,8.69c3.7,9,4.2,17.72-1.91,26.05a88.58,88.58,0,0,0-5.94,9.44c-2.53,4.54-4.8,9.28-3.58,14.7,3.39,15.08,17.39,27.91,32.87,30.2,2.86.43,5.36,1.3,7.28,3.7a19.1,19.1,0,0,0,8.61,6,63,63,0,0,1,6.75,2.84,12.78,12.78,0,0,0,9.5,1.1c3.31-.92,6.36-2.74,9.85-3,5-.45,10.07-1,14.51,1.91a62.68,62.68,0,0,1,9.18,7.21c6.08,5.79,12.85,7.33,20.76,4.43,5.66-2.08,11.2-4.33,17.38-5.1,7.41-.94,14.53-3.66,22-4.69,9.61-1.33,18.66-.82,27.33,4.2,5.19,3,11.32,3.21,17.19,3a31.29,31.29,0,0,0,13-3.72c7.47-3.8,14.44-3.86,21.73,1.09A146.77,146.77,0,0,0,598.46,687c9.55,4.46,20.37,3,27-4.51a29.81,29.81,0,0,1,12.75-8.37c10.51-3.83,21.27-6.09,32.45-3.74,5.4,1.13,10.66,3,16,4.35,4.53,1.18,9,2.55,13.88,1.83,5.59-.82,9.44-4.35,13.46-7.73,10-8.41,23.36-10.65,35-4.18,6.65,3.7,13.18,7.65,20.39,10.3,7.84,2.88,14.91,1.7,20.94-4,8-7.52,16.83-13.47,27.68-16,7.09-1.67,14.27-3.06,21.51-1.7,13.63,2.57,25.74,9.21,38.07,15.08,8.11,3.86,15.94,8.31,24.39,11.42a17.49,17.49,0,0,0,9.65.53c5-1,8.88-4,12.74-7,10.54-8.26,22.09-9.33,34.37-4.85C968.47,672,977,678,986.11,682.86a101.31,101.31,0,0,0,11.58,5.4c7.72,2.89,14.16-.08,20.09-4.9q22.74-18.48,51.45-12.54c5.41,1.13,10.77,2.51,16.21,3.46,6.73,1.17,13.15.65,18.74-4.07a32.93,32.93,0,0,1,7.83-5.36C1117.34,662.51,1123,662.52,1127.53,662.68Z" transform="translate(-298.75 -54.39)"/><path class="cls-2" d="M1127.53,662.68c-4.58-.16-10.19-.17-15.52,2.17a32.93,32.93,0,0,0-7.83,5.36c-5.59,4.72-12,5.24-18.74,4.07-5.44-.95-10.8-2.33-16.21-3.46q-28.71-6-51.45,12.54c-5.93,4.82-12.37,7.79-20.09,4.9a101.31,101.31,0,0,1-11.58-5.4C977,678,968.47,672,958.69,668.41c-12.28-4.48-23.83-3.41-34.37,4.85-3.86,3-7.73,6-12.74,7a17.49,17.49,0,0,1-9.65-.53c-8.45-3.11-16.28-7.56-24.39-11.42-12.33-5.87-24.44-12.51-38.07-15.08-7.24-1.36-14.42,0-21.51,1.7-10.85,2.55-19.67,8.5-27.68,16-6,5.66-13.1,6.84-20.94,4-7.21-2.65-13.74-6.6-20.39-10.3-11.6-6.47-25-4.23-35,4.18-4,3.38-7.87,6.91-13.46,7.73-4.88.72-9.35-.65-13.88-1.83-5.35-1.4-10.61-3.22-16-4.35-11.18-2.35-21.94-.09-32.45,3.74a29.81,29.81,0,0,0-12.75,8.37c-6.61,7.54-17.43,9-27,4.51a146.77,146.77,0,0,1-20.14-11.9c-7.29-5-14.26-4.89-21.73-1.09a31.29,31.29,0,0,1-13,3.72c-5.87.2-12,0-17.19-3-8.67-5-17.72-5.53-27.33-4.2-7.49,1-14.61,3.75-22,4.69-6.18.77-11.72,3-17.38,5.1-7.91,2.9-14.68,1.36-20.76-4.43a62.68,62.68,0,0,0-9.18-7.21c-4.44-2.87-9.53-2.36-14.51-1.91-3.49.31-6.54,2.13-9.85,3a12.78,12.78,0,0,1-9.5-1.1,63,63,0,0,0-6.75-2.84,19.1,19.1,0,0,1-8.61-6c-1.92-2.4-4.42-3.27-7.28-3.7-15.48-2.29-29.48-15.12-32.87-30.2-1.22-5.42,1.05-10.16,3.58-14.7a88.58,88.58,0,0,1,5.94-9.44c6.11-8.33,5.61-17.09,1.91-26.05a43.74,43.74,0,0,0-5.05-8.69c-5.43-7.6-6.05-15.68-2.24-24.2,2.93-6.56,6.75-12.63,10.18-18.91,3.11-5.7,5.7-11.6,6.41-18.09.73-6.73-1.85-12.63-5.51-18.09a27,27,0,0,1-4.09-8.24,17.33,17.33,0,0,1,1.08-11.16c2.67-6.46,2.31-12.68-.21-19-3.19-8.05-1.69-15.73,3.05-22.51a59.16,59.16,0,0,0,9.91-25.07c1.4-8.8.19-17.49-2.61-25.95q-1.71-5.16-3.21-10.39c-2.09-7.28-.55-13.9,3.56-19.91a53,53,0,0,0,8-16.25c2.3-8.54,1.78-17,.16-25.56-1.74-9.2-5-18-7.44-27a23.51,23.51,0,0,1,0-12.32c1.25-4.92,2.53-9.82,1.32-15a25.94,25.94,0,0,0-4.54-9.5,117.73,117.73,0,0,1-7-10.7A18.17,18.17,0,0,1,351.77,216c1.6-7.61,3.94-15,4.07-23,.17-10.76-2.31-21-5.07-31.26-.66-2.46-1.5-4.86-2.22-7.29-2.92-9.77,2.28-18.27,12.37-19.83a7.33,7.33,0,0,0,4.73-2.76,65.58,65.58,0,0,0,10.77-18.17c2.43-5.92,6.58-9.9,13.08-11.11a13,13,0,0,1,8.16,1.38,41.55,41.55,0,0,0,15.92,4.24c5.38.3,10.06-2,14.6-4.57A117.41,117.41,0,0,0,439.35,96c4.5-3.28,9.14-6.27,15.08-6.16a17.53,17.53,0,0,1,9.88,3.42c4.45,3.11,9.1,3.24,14,1.61,2.83-.94,5.62-2,8.46-3,6.24-2.07,12-.87,17.28,2.86,2.29,1.61,4.51,3.38,7.21,4.34,6.05,2.14,11.77,1.25,17.29-1.78a75.53,75.53,0,0,1,10.52-5.09c5.74-2.08,11-1.16,16.06,2.09,3.58,2.3,6.68,5.32,10.68,7,10.11,4.19,20.28,4.87,30.69,1,4-1.51,8.08-3.22,12.59-3.18a16.58,16.58,0,0,1,12.67,5.3,37.94,37.94,0,0,0,15.93,10.06,14.91,14.91,0,0,0,10.08,0,99.39,99.39,0,0,1,10.64-3.32c5.72-1.19,10.54.68,15,4,5.76,4.33,9.85,4.37,15.5.06a43,43,0,0,1,7.92-5.25c6.77-3.1,13.2-2.33,19.39,1.66,3.51,2.26,7.07,4.2,11.47,4.57,6.2.53,11.12-1.9,15.69-5.58,7.18-5.78,14.84-6,22.92-2.13,2,1,4.16,1.81,6.24,2.72,11.37,5,21.92,2.92,32-3.7,4.69-3.09,9.52-6,14.27-9A20.53,20.53,0,0,1,837,96a108.85,108.85,0,0,0,26.47,4.31c10.56.59,20.92-1.08,31.36-1.85,3.58-.27,6.63-2.39,9.8-4,4.33-2.13,8.73-1.76,13.47-1.43,9.52.65,17.3,6.47,26.5,7.79s18.6,2.35,28.1,1.69a129.64,129.64,0,0,0,28-4.95c6.38-1.89,12.25-.11,17.5,3.61,6.65,4.7,13.88,5.79,21.75,4.32,7.47-1.4,15-2.69,22.35-4.54a9.94,9.94,0,0,1,5.13-.11,8.75,8.75,0,0,0,7.27-1.18c1.24-.73,2.6-1.29,3.87-2,7.23-4,13.73-2.5,19.91,2.43,6.42,5.11,13.07,9.9,21.48,11.15,4.37.64,8.83.77,13.19,1.5,7.29,1.21,12.63,4.94,14.4,12.55.82,3.47.12,6.84-1,10.15-2,5.92-4,11.79-3.74,18.26a30,30,0,0,0,4.54,14.89c1.62,2.63,3.39,5.16,5,7.79,4.18,6.87,4.69,13.88,1,21.21-4.47,9-8.21,18.22-9.53,28.23a44.08,44.08,0,0,0,3,24c1.39,3.15,2.8,6.3,4.12,9.48,2.86,6.91,2,14,1,21.11-1.64,11.09-3.77,22.13-4.63,33.32-.58,7.66,1.61,15.08,3,22.55s3.7,14.4,5.81,21.52c2.05,6.89,1.43,13.5-.52,20.3-3.17,11.06-6.64,22.05-8.51,33.45a138.07,138.07,0,0,0-1,30.88,183.55,183.55,0,0,0,4.74,30.27c2.43,10.48,6.77,20.28,11.11,30.08,3.11,7,2.28,13.67-1.61,20.24-4.9,8.25-9.91,16.44-12.68,25.81-3.44,11.65-1.42,22.77,2.27,33.83a45.87,45.87,0,0,0,4,8.95c3.73,6.21,3.31,12.39.75,18.79a92.67,92.67,0,0,0-6.13,22.51c-.58,4.46,1,8.59,1.82,12.84a15.4,15.4,0,0,1-.17,7.54c-1.77,5.79-6.81,9.19-13.84,9.34C1133.67,662.73,1131.13,662.68,1127.53,662.68Zm6.88-533.41c.42-1.28,0-1.89-1.43-1.66-6.49,1-12.83-.22-19.15-1.33-10.82-1.89-20.13-6.6-27.24-15.17-2.65-3.19-2.55-3.14-6.1-1.14-12.86,7.26-26.28,12.09-41.46,10.48-9.84-1-19.09-3.42-27-9.6a3.34,3.34,0,0,0-4.15-.47c-3,1.56-6.1,2.8-9.19,4.12-18.14,7.73-36.86,10.11-56.1,5.28C934,117.62,926,113.86,919.92,107c-.82-.93-1.58-.55-2.43-.16q-3.21,1.5-6.43,3c-12.64,5.7-25.72,8.79-39.67,6.75-11.35-1.66-22.15-4.88-31.56-11.75a2.32,2.32,0,0,0-3.53.29c-7.75,7.78-17.42,12-27.84,14.65-8.32,2.13-16.76,3.14-25.32,1.69a57.13,57.13,0,0,1-15.86-4.72c-3-1.47-5.22-1.3-7.46,1.09a37.54,37.54,0,0,1-9,6.6c-5.3,3-11.06,4.86-17.14,4.47a42.29,42.29,0,0,1-22-8,2.37,2.37,0,0,0-3.34,0c-10.9,8.54-23.52,9.13-36.53,7.74-3.41-.37-6.62-.84-10.11.48a43.49,43.49,0,0,1-48-12.39c-.92-1.08-1.58-1.19-2.73-.57-9,4.89-18.6,6.08-28.7,4.24-9.9-1.82-19.53-4.35-27.82-10.31-2.29-1.65-3.71-1.44-5.87.1-7.7,5.48-16.52,7.85-25.87,7.93a58.26,58.26,0,0,1-33.17-9.8c-2.84-1.88-5.3-3.34-8.22-.41-.23.24-.65.29-1,.44-10.28,4.38-20.22,2.68-29.94-1.8-1.59-.73-2.62-1.26-3.89.52-7.83,11-18.89,13.94-31.64,12.38a55.19,55.19,0,0,1-22.66-8c-1.83-1.14-2.15-.36-2.14,1.34a26.3,26.3,0,0,1-.18,4.35c-2.33,14.75-10.08,25.46-24,31.31-2.32,1-2.28,2.09-1.83,4.07,2.24,9.71,4.19,19.5,4.65,29.48.54,11.6-1.76,22.9-4.41,34.12a4.32,4.32,0,0,0,.64,4c9.8,13.11,12.59,27.79,10,43.78-.39,2.42-1.94,4.81-.72,7.41,1,2.06,1.94,4.1,2.81,6.2,6.16,15,8.63,30.43,5.68,46.55-2,10.78-5.58,21-9.8,31.08a8,8,0,0,0-.14,6.69c5.85,14.32,8.15,29.13,5.24,44.47-2.19,11.49-8.36,20.19-19,25.37-2,1-2.1,1.68-1,3.36,5.12,8.16,6.57,17.39,7.48,26.72.55,5.71-1.22,11.13-2.75,16.54-.36,1.28-.58,2.33.42,3.52,12.56,14.9,14.13,31.44,7.16,49.18-3.21,8.18-8.66,15.09-13.27,22.46a4.23,4.23,0,0,0,0,5.35c10.75,16.48,12.3,33.9,5.14,52.18-2.23,5.7-5.52,10.83-8.47,16.14-.6,1.07-.9,2-.11,3a63.19,63.19,0,0,1,7.24,12.45c.56,1.21,1.27,1.47,2.59,1.19a19.58,19.58,0,0,1,5.38-.56c12.91.84,23.62,6.27,31.72,16.29,2.37,2.93,4.45,3.26,7.87,2.53,17.6-3.78,33.95-1.31,47.95,10.85,1.91,1.66,3.16,1.6,5.13.38a33.34,33.34,0,0,1,15.87-5.17,11.26,11.26,0,0,0,5.37-1.72c7.5-4.66,15.7-7.29,24.54-6.84a61.6,61.6,0,0,1,28.21,8.27c3.69,2.18,6.12,1.67,9.32-.28a45.68,45.68,0,0,1,21.28-6.94c18.71-1,34.16,6.79,48.1,18.35,3,2.51,2.85,2.69,5.38-.27a156.7,156.7,0,0,1,12.19-13.18c10.58-9.87,23.35-12.74,37.31-11.19,10.07,1.12,19.25,5.11,28.15,9.72,2.26,1.18,3.71.81,5.11-1.07,3-4,6.93-7.17,10.9-10.18,10.13-7.68,21.45-10.4,33.87-7.34,9.26,2.29,16.89,7.65,23.31,14.44,3,3.19,6,5.47,10.29,6.22,1.42.24,2.35.23,3.37-.82,2.52-2.61,5.27-5,7.89-7.5,13.08-12.52,28.9-16.78,46.35-14.58,15.2,1.92,27.35,10.11,37.52,21.35,1,1.14,1.92,2.49,3.51,2.89,9.35,2.35,18.26,6,27.34,9.19a5.19,5.19,0,0,0,5.44-1A79.18,79.18,0,0,1,930,665.27c15.58-6.29,31.38-7.12,47.3-1.65A64.76,64.76,0,0,1,1002.07,679c.79.78,1.46,2.29,3,.52A185.74,185.74,0,0,1,1019.37,665c3.89-3.66,7.9-7.23,12.94-9.37,8.21-3.47,16.6-3.28,25.08-1.36,9.74,2.21,18.73,6.3,27.57,10.79,6.22,3.17,6.17,3.07,11.12-1.67,8.09-7.75,17.72-11.91,29-11.55a46.82,46.82,0,0,1,12.83,2.18c1.85.59,2.94.84,2.38-1.89a38.13,38.13,0,0,1-.17-13.52c1.14-7.35,3.25-14.33,7.38-20.57a4.87,4.87,0,0,0,.64-4.13c-2.12-8.81-3.86-17.7-5.64-26.58-3-14.74-4.71-29.47-2.45-44.53,1.61-10.68,4.8-20.63,11.16-29.44a3.84,3.84,0,0,0,.62-4.19c-5.35-13.29-10.35-26.68-13.25-40.82-4-19.44-7.06-38.89-5-58.79a110.52,110.52,0,0,1,11.12-38.74,3.35,3.35,0,0,0,.37-3,136.77,136.77,0,0,1-8.32-60.62,166,166,0,0,1,4.87-27.79,7.49,7.49,0,0,0-.33-5.22c-5.93-13.32-6.8-27.38-5.38-41.59s4.85-28.18,7.59-42.22a4.86,4.86,0,0,0-.6-4.07,61.06,61.06,0,0,1-8.18-17.42c-2.58-9.05-4.47-18.15-2.74-27.61C1132.74,137.25,1133.6,133.27,1134.41,129.27Z" transform="translate(-298.75 -54.39)"/></svg>