<svg id="Calque_1" data-name="Calque 1" xmlns="http://www.w3.org/2000/svg" viewBox="0 0 685.88 346.73"><defs><style>.cls-1{fill:#070708;}.cls-2{fill:#e4ceed;}.cls-3{fill:#ede1f2;}.cls-4{fill:#d6cbdb;}.cls-5{fill:#cfc5d4;}</style></defs><path class="cls-1" d="M899.36,430c-15.9,1.07-31.53-1.84-47.28-3.1a18.67,18.67,0,0,1-5.29-1.27c-2.12-.84-2.59-.31-2.61,1.89a133.37,133.37,0,0,1-5,35.8c-11.73,41.11-36.89,71.91-73.24,93.63-36.18,21.62-75.51,29.36-117.19,23.42-46.46-6.61-83.92-28.64-110.32-67.84C521,486.72,513.78,457.93,516,426.83c.23-3.23.21-3.22-3.1-2.89-18.17,1.82-36.32,3.86-54.66,2.82-24.45-1.39-48.19-5.78-70.55-16.1C369,402,354.6,388.82,345.59,370.07a44.8,44.8,0,0,1-4.68-18.9c-.32-22.1,16.35-39.89,39.38-41.92,2.89-.25,5.81-.18,8.72-.22,1.44,0,1.79-.41,1-1.74-7.71-12.31-7.15-25.21-2.22-38.18A60.05,60.05,0,0,1,400.08,250c13.64-14.79,32.53-18.42,50.76-9.76,10,4.76,18.14,12,25.58,20.07,11.44,12.4,20.85,26.35,30.57,40.07,11.77,16.64,21.7,34.44,32.64,51.6,1.9,3,1.86,3,3.93.14,25-34.12,58.36-56,99.21-65.81,49.53-11.91,96.25-4.75,139,23.86a141.4,141.4,0,0,1,42.6,45c1.73,2.87,1.76,2.88,3.49.07,14.38-23.48,28.65-47,45.07-69.19,8.46-11.4,17.13-22.61,27.92-32a64,64,0,0,1,19.59-12.16c14.37-5.32,28-4,40.24,5.47,11.61,8.95,19.45,20.66,21.91,35.28,1.43,8.5.89,17-3.12,25-.74,1.48-3,2.88-2.07,4.29.78,1.17,3.22.3,4.92.31,10,.08,19.17,2.73,27.32,8.72,15.51,11.39,21.18,29.34,14.29,47.38-8.18,21.42-23.68,36.09-44.18,45.61-22.25,10.32-45.92,14.8-70.28,16C906.09,430.13,902.72,430,899.36,430ZM428.59,354.9A2.32,2.32,0,0,0,426.8,356l-4,1.51-2.79-.06a5,5,0,0,1-2.13-2.36l0-1.07a37.44,37.44,0,0,1,4.85-8.44c2.36-3.15,2.18-6.4.48-9.71a13.85,13.85,0,0,0-4.5-5c-12.58-8.77-26.4-12.82-41.67-9.91a31.79,31.79,0,0,0-20.85,14l-.12.2a6,6,0,0,0-2,3.63,1.08,1.08,0,0,0-.38,1.16,4.72,4.72,0,0,0-1,2.75,33.38,33.38,0,0,0,2.06,21c6.85,15.34,18.15,26.45,32.61,34.59a9.35,9.35,0,0,0,1.51.55,3,3,0,0,0,2.18,1.07,22.69,22.69,0,0,0,7.12,3.09,1.1,1.1,0,0,0,1.16.41,87.29,87.29,0,0,0,22.87,7.12l1.06.21a19.74,19.74,0,0,0,7.11,1.44l1.07.17a10.11,10.11,0,0,0,4.93.91l1.08.16a2.18,2.18,0,0,0,2.2.4l1.07.15a17.64,17.64,0,0,0,7.09,1l1.08.11a9.27,9.27,0,0,0,4.92.44l1.63.08c.62.52,1.38.35,2.09.38,18.06.93,36.09-.61,54.14-.62a3.88,3.88,0,0,0,1-.28,2,2,0,0,0,1.64-.07c2.37.64,3.16-.51,3.54-2.71a143,143,0,0,1,7.58-26.89c3.27-8.56,7.61-16.6,12.06-24.59l0,0c1-.79.53-1.36-.29-1.88a30.07,30.07,0,0,0-4.31-4.57c.14-1.09-.78-1.57-1.33-2.25-9-11.19-17.92-22.42-26.12-34.22-10.88-15.66-21.23-31.72-33.75-46.18-6.87-7.93-14.18-15.41-23.56-20.4-11.33-6-22.68-7-33.71.73-7.2,5-12.91,11.35-16.14,19.67l-.48,1.2a4.58,4.58,0,0,0-1,3.18l-.25,1.06a.82.82,0,0,0-.29,1.12l-.29,1.6a1.43,1.43,0,0,0-.26,1.67,27.71,27.71,0,0,0,0,9.74,1.44,1.44,0,0,0,.25,1.68l.26,1.6a.82.82,0,0,0,.27,1.13l.22,1.06a.84.84,0,0,0,.31,1.13l.24,1.05a.83.83,0,0,0,.32,1.12l.25,1.06a3.83,3.83,0,0,0,.85,2.76,37,37,0,0,1,1.11,5.13c.13,1.57.85,2,2.19,1.89.44.58,1.14.49,1.73.67,8.12,2.49,15.74,5.91,22.49,11.2,8.59,6.73,13.68,20.16,4.13,30.73h0a2.67,2.67,0,0,0-1.83,1.44l.18.18Zm483.3-95.32a3,3,0,0,0-2.17,1.7.45.45,0,0,0-.54.44c-1.38.41-2.2,1.56-3.18,2.46-9.56,8.88-17.59,19.07-25.06,29.7-16.35,23.22-32.11,46.87-50.93,68.24-1,1.16-.65,2.07-.1,3.18a143.38,143.38,0,0,1,9.32,24.37,11.62,11.62,0,0,0,.64,1.45c.09.35.17.7.26,1a5.59,5.59,0,0,0,.83,3.33l.23,1a9.1,9.1,0,0,0,.95,4.38l.18,1.07a1.54,1.54,0,0,0,.3,1.68l.23,1.59a2.44,2.44,0,0,0,.33,2.22l.18,1.6a6.82,6.82,0,0,0,.41,3.84,2.08,2.08,0,0,0,.1,1.62,1,1,0,0,0,.06,1.11c0,1.1-.64,2.61,1.51,2.24,10.4,1.24,20.87.55,31.3,1.17,23.8,1.41,47.42.21,70.65-5.62,13.63-3.41,26.9-7.84,38.72-15.68,12-8,21.47-18.26,26.82-31.81,3.79-9.57,4.2-19.38-1.89-28.17a32.09,32.09,0,0,0-21.51-13.72c-14.56-2.47-27.72,1.41-39.86,9.38a16.42,16.42,0,0,0-5.28,5.43c-2.22,3.82-1.85,7.44,1.08,10.7a3,3,0,0,0,1.2,1.81.94.94,0,0,0,.66,1c.62,1.26,1.25,2.52,1.87,3.77.37,3.88-1.32,5.3-5.14,4.33-7.52-1.91-12.68-9.34-12.16-17.57.58-9.14,6-15.12,13.2-19.82a72.19,72.19,0,0,1,20.14-8.79c.88-.25,2.09-.1,2.24-1.53.47-4.37,2.22-8.41,3.29-12.62,6-23.53-8.92-40.86-22.33-47.35-10.2-4.94-20.25-3.6-29.78,2.29l-.17.11a3.5,3.5,0,0,0-2.55,1.53l-.17.11a1.82,1.82,0,0,0-1.69,1.13h0a3,3,0,0,0-2.23,1.62Zm-238.14,311a151.42,151.42,0,0,0,34.11-3.54c48.39-10.65,86.43-36.08,109.55-80.51,21.6-41.51,21-83.65-2.54-124.43-17.44-30.28-44.11-49.78-76.89-61a158.67,158.67,0,0,0-86.29-4.94c-47.27,10.2-84.59,35-107.89,77.83-23,42.39-22.83,85.6,1.57,127.62,15.89,27.35,39.61,46,69.07,57.46A163.77,163.77,0,0,0,673.75,570.62Z" transform="translate(-340.91 -235.56)"/><path class="cls-2" d="M673.75,570.62a163.77,163.77,0,0,1-59.31-11.51C585,547.67,561.26,529,545.37,501.65c-24.4-42-24.62-85.23-1.57-127.62,23.3-42.84,60.62-67.63,107.89-77.83A158.67,158.67,0,0,1,738,301.14c32.78,11.22,59.45,30.72,76.89,61,23.49,40.78,24.14,82.92,2.54,124.43-23.12,44.43-61.16,69.86-109.55,80.51A151.42,151.42,0,0,1,673.75,570.62Zm4-81.59a198.9,198.9,0,0,0,53.39-7.54c12.94-3.66,25.19-8.85,36.29-16.54,3.66-2.53,4.71-6.22,2.64-9.07s-5.94-3.06-9.38-.21c-6.11,5.06-13.15,8.43-20.49,11.16-26.44,9.83-53.83,12.58-81.8,10.29-14.7-1.21-28.9-4.42-42.2-11.06-5.75-2.88-11-6.41-14.89-11.63-.7-.93-1.13-2.78-2.69-2.17s-1,2.35-1.14,3.65a6,6,0,0,0,.15,1.62c.66,4.61,3.09,8.29,6.19,11.58,5.76,6.13,13,9.79,20.85,12.44C641.09,487.1,658.1,489,677.71,489Zm-18.12-85.3c1.69.08,2.94-.08,3.7-1.33s.29-2.64-.53-3.8a21.17,21.17,0,0,0-4.57-4.64c-9.38-7.21-19.57-13.17-29.89-18.87a15.54,15.54,0,0,0-13.22-.78,81.1,81.1,0,0,0-27.56,17.14,15.17,15.17,0,0,0-3.84,5.57c-.58,1.47-1,3,.2,4.38s2.75,1.16,4.3.76a21.74,21.74,0,0,0,5.63-2.68c5.39-3.23,10.09-7.43,15.33-10.86,9.44-6.19,10.6-6.18,20.13-.32.46.29.92.58,1.39.86,6.2,3.79,12.22,7.87,18.74,11.09A33.85,33.85,0,0,0,659.59,403.73Zm69.95-30.42c-3-.09-6.36,1.24-9.49,3.15q-11.17,6.78-22.23,13.75a36.6,36.6,0,0,0-7.19,5.82c-1.67,1.77-4.45,3.54-2.69,6.38,1.63,2.63,4.46,1.22,6.74.58a55.4,55.4,0,0,0,13.76-6.45c5.82-3.54,11.67-7,17.43-10.65,3.67-2.3,7.18-2.47,11-.26a91.83,91.83,0,0,1,9.6,6.19,114.89,114.89,0,0,0,11.83,8.26,14.73,14.73,0,0,0,5.78,2.3c2.81.31,4.36-1.4,3.71-4.15a12.52,12.52,0,0,0-3.51-6,80.82,80.82,0,0,0-28.06-17.83A18.4,18.4,0,0,0,729.54,373.31Z" transform="translate(-340.91 -235.56)"/><path class="cls-3" d="M422.8,357.52l4-1.51c.92.17,1.92.44,1.79-1.11l.17.19-.18-.18c1.3.4,1.92-.07,1.83-1.44h0c1.28.17,1.95-.62,2.66-1.52,3.88-4.93,4.12-10.68,3-16.34-1.54-7.67-6.82-12.86-13.31-16.7-5.55-3.29-11.05-7-13.83-12.69-6.39-13.14-6-26.24,2.81-38.49,3.4-4.75,7.77-8.74,13.19-10.51,6.27-2.06,12.91-1.18,19.22.87,7,2.26,12.53,6.85,17.84,11.65,9.81,8.86,17.85,19.24,25.1,30.23,5.14,7.78,10.05,15.71,15.06,23.58,7.59,11.91,15.81,23.4,23.86,35,1.64,2.37,3.21,4.92,5.55,6.63,1.52,1.12,1.44,2,.69,3.39a155,155,0,0,0-14,37.24c-2.43.19-4.86.55-7.29.53-12.14-.12-24.27.38-36.41-.93-7.9-.86-15.77-1.86-23.6-3.08q-16.84-2.61-33.5-6.32c-13.54-3.05-26.5-7.58-37.78-15.9-6.75-5-12.67-10.73-14.92-19.38-2.43-9.34-2.11-17.71,5.54-24.93,9.55-9,23.06-11.85,35.17-4.94a17.27,17.27,0,0,1,8.68,17.46c-.54,3.66.41,5.37,3.79,6.79a5,5,0,0,0,2.13,2.36C420.92,358.83,421.85,358.76,422.8,357.52Z" transform="translate(-340.91 -235.56)"/><path class="cls-3" d="M843.87,414.53a2.08,2.08,0,0,1-.1-1.62c.79-1.38,1.19-2.71-.41-3.84l-.18-1.6c.84-.88,1-1.67-.33-2.22l-.23-1.59c.91-.75.85-1.31-.3-1.68l-.18-1.07a3.25,3.25,0,0,0-.95-4.38l-.23-1c1-1.44.47-2.48-.83-3.33-.09-.34-.17-.69-.26-1,.85-.45.34-1.07.19-1.64a140.1,140.1,0,0,0-4.48-13.68c-.4-1.06-.82-2,.08-3,4.84-5.39,8.91-11.38,13.29-17.13,9.08-11.93,18.19-23.84,27.21-35.83,6.19-8.23,12.42-16.46,19.27-24.14S908.91,280,917,273.47c5.83-4.72,11.57-9.6,18.73-12.3,4.63-1.75,9.57-3,13.66.5a34.16,34.16,0,0,1,7.48,9.54c2.92,5.32,3,11.25,1.62,17.11a58.17,58.17,0,0,1-16.8,29.19,41.64,41.64,0,0,0-10.45,15.07c-1.64,4.36-2.86,8.86-2,13.74a33.36,33.36,0,0,0,7.3,15c2.61,3.24,5.66,6.22,10.23,6.57a6,6,0,0,0,5.86-2.63,4.64,4.64,0,0,0,0-5.4,12,12,0,0,0-3.49-3.66c-.62-1.25-1.25-2.51-1.87-3.77,1-1.12,0-1-.66-1a3,3,0,0,1-1.2-1.81,10.13,10.13,0,0,1,1.3-2.92c4.3-5.92,10.59-8.52,17.19-10.65,8-2.56,16.2-1.86,24.29-1.44,5.93.3,11.54,2.5,14.69,8.35,3.68,6.84,2.94,13.91.63,20.81-3.36,10-10.66,17.15-19,23.2-10.9,8-23.33,12.6-36.37,15.84-14.14,3.5-28.39,6-43,6.48-3.87.12-7.79.1-11.65.5-7.89.82-15.75,2-23.65,2.55-6.76.47-13.51.9-20.24,1.61C847.76,414.09,845.9,415.28,843.87,414.53Z" transform="translate(-340.91 -235.56)"/><path class="cls-4" d="M949.2,356.17a12,12,0,0,1,3.49,3.66,4.64,4.64,0,0,1,0,5.4,6,6,0,0,1-5.86,2.63c-4.57-.35-7.62-3.33-10.23-6.57a33.36,33.36,0,0,1-7.3-15c-.9-4.88.32-9.38,2-13.74a41.64,41.64,0,0,1,10.45-15.07,58.17,58.17,0,0,0,16.8-29.19c1.35-5.86,1.3-11.79-1.62-17.11a34.16,34.16,0,0,0-7.48-9.54c-4.09-3.48-9-2.25-13.66-.5-7.16,2.7-12.9,7.58-18.73,12.3-8.07,6.54-14.69,14.51-21.55,22.21s-13.08,15.91-19.27,24.14c-9,12-18.13,23.9-27.21,35.83-4.38,5.75-8.45,11.74-13.29,17.13-.9,1-.48,2-.08,3a140.1,140.1,0,0,1,4.48,13.68c.15.57.66,1.19-.19,1.64a11.62,11.62,0,0,1-.64-1.45,143.38,143.38,0,0,0-9.32-24.37c-.55-1.11-.93-2,.1-3.18,18.82-21.37,34.58-45,50.93-68.24,7.47-10.63,15.5-20.82,25.06-29.7,1-.9,1.8-2.05,3.18-2.46.24,1-1.22,2.23.08,3,1.45.83,1.89-.93,2.75-1.55,2.47-1.8,4.86-3.72,7.34-5.5,2.16-1.55,4.41-3,7.24-4.85-3.41.25-5.3,2.44-7.93,2.31,9.53-5.89,19.58-7.23,29.78-2.29,13.41,6.49,28.31,23.82,22.33,47.35-1.07,4.21-2.82,8.25-3.29,12.62-.15,1.43-1.36,1.28-2.24,1.53a72.19,72.19,0,0,0-20.14,8.79c-7.22,4.7-12.62,10.68-13.2,19.82-.52,8.23,4.64,15.66,12.16,17.57C947.88,361.47,949.57,360.05,949.2,356.17Z" transform="translate(-340.91 -235.56)"/><path class="cls-4" d="M417.88,355.1c-3.38-1.42-4.33-3.13-3.79-6.79a17.27,17.27,0,0,0-8.68-17.46c-12.11-6.91-25.62-4.06-35.17,4.94-7.65,7.22-8,15.59-5.54,24.93,2.25,8.65,8.17,14.39,14.92,19.38C390.9,388.42,403.86,393,417.4,396q16.64,3.74,33.5,6.32c7.83,1.22,15.7,2.22,23.6,3.08,12.14,1.31,24.27.81,36.41.93,2.43,0,4.86-.34,7.29-.53-1.08,3.15-.24,7.1-3.81,9.21a2,2,0,0,1-1.64.07c-.8-.9-1.87-.55-2.82-.53-7.61.2-15.21-.08-22.84.4-8.69.55-17.44.11-26.16.16a5,5,0,0,1-3.24-1.12c-10.88-.84-21.51-3.29-32.21-5.21-7.36-1.32-14.62-3.12-21.82-5.17-1.39-.67-2.85-.14-4.27-.23a1.1,1.1,0,0,1-1.16-.41c-2-1.85-4.27-3.16-7.12-3.09a3,3,0,0,1-2.18-1.07c.06-1.08-.84-1.28-1.52-1.68-10.51-6.31-19.67-14-26.49-24.37-6.24-9.48-9.8-19.49-7-31a5.75,5.75,0,0,0-.19-1.86,1.08,1.08,0,0,1,.38-1.16c1.61-.7,1.91-2.1,2-3.63l.12-.2c2.36-.65,3.44-2.83,5.1-4.31,5-4.47,10.43-8,17.33-8.84a55.88,55.88,0,0,1,15.66.06,53.83,53.83,0,0,1,23.58,9.75c3.16,2.29,5.77,5.24,5.46,9.76-.18,2.59-2.13,4.12-3.15,6.19s-3,3.83-2.29,6.5Z" transform="translate(-340.91 -235.56)"/><path class="cls-4" d="M843.87,414.53c2,.75,3.89-.44,5.83-.64,6.73-.71,13.48-1.14,20.24-1.61,7.9-.55,15.76-1.73,23.65-2.55,3.86-.4,7.78-.38,11.65-.5,14.62-.44,28.87-3,43-6.48,13-3.24,25.47-7.87,36.37-15.84,8.29-6.05,15.59-13.17,19-23.2,2.31-6.9,3-14-.63-20.81-3.15-5.85-8.76-8-14.69-8.35-8.09-.42-16.33-1.12-24.29,1.44-6.6,2.13-12.89,4.73-17.19,10.65a10.13,10.13,0,0,0-1.3,2.92c-2.93-3.26-3.3-6.88-1.08-10.7a16.42,16.42,0,0,1,5.28-5.43c12.14-8,25.3-11.85,39.86-9.38A32.09,32.09,0,0,1,1011,337.77c6.09,8.79,5.68,18.6,1.89,28.17-5.35,13.55-14.82,23.84-26.82,31.81C974.29,405.59,961,410,947.39,413.43c-23.23,5.83-46.85,7-70.65,5.62-10.43-.62-20.9.07-31.3-1.17,0-1.07.28-2.36-1.51-2.24A1,1,0,0,1,843.87,414.53Z" transform="translate(-340.91 -235.56)"/><path class="cls-5" d="M514.39,415c3.57-2.11,2.73-6.06,3.81-9.21a155,155,0,0,1,14-37.24c.75-1.38.83-2.27-.69-3.39-2.34-1.71-3.91-4.26-5.55-6.63-8-11.59-16.27-23.08-23.86-35-5-7.87-9.92-15.8-15.06-23.58-7.25-11-15.29-21.37-25.1-30.23-5.31-4.8-10.86-9.39-17.84-11.65-6.31-2-12.95-2.93-19.22-.87-5.42,1.77-9.79,5.76-13.19,10.51-8.78,12.25-9.2,25.35-2.81,38.49,2.78,5.71,8.28,9.4,13.83,12.69,6.49,3.84,11.77,9,13.31,16.7,1.13,5.66.89,11.41-3,16.34-.71.9-1.38,1.69-2.66,1.52,9.55-10.57,4.46-24-4.13-30.73-6.75-5.29-14.37-8.71-22.49-11.2-.59-.18-1.29-.09-1.73-.67.71-2.57-1.2-4.42-1.86-6.61-.18-.56-.93-.36-1.44-.41a3.83,3.83,0,0,1-.85-2.76c1-.12.58,1.5,1.84,1.36-.39-1.15-.15-2.63-2.09-2.42a.83.83,0,0,1-.32-1.12c.43-.15,1.29.24,1.14-.63-.12-.66-.89-.33-1.38-.42a.84.84,0,0,1-.31-1.13c1.53.07,1.46-.8,1.29-2a56,56,0,0,1-.87-7.72,40.51,40.51,0,0,1,2-13.22c.27-.79,1.37-2.21-.85-2.15,3.23-8.32,8.94-14.64,16.14-19.67,11-7.72,22.38-6.76,33.71-.73,9.38,5,16.69,12.47,23.56,20.4,12.52,14.46,22.87,30.52,33.75,46.18,8.2,11.8,17.14,23,26.12,34.22.55.68,1.47,1.16,1.33,2.25a7.22,7.22,0,0,0,4.58,6.48c-4.45,8-8.79,16-12.06,24.59a143,143,0,0,0-7.58,26.89C517.55,414.5,516.76,415.65,514.39,415Z" transform="translate(-340.91 -235.56)"/><path class="cls-5" d="M417.92,354c-.68-2.67,1.27-4.42,2.29-6.5s3-3.6,3.15-6.19c.31-4.52-2.3-7.47-5.46-9.76a53.83,53.83,0,0,0-23.58-9.75,55.88,55.88,0,0,0-15.66-.06c-6.9.86-12.32,4.37-17.33,8.84-1.66,1.48-2.74,3.66-5.1,4.31a31.79,31.79,0,0,1,20.85-14c15.27-2.91,29.09,1.14,41.67,9.91a13.85,13.85,0,0,1,4.5,5c1.7,3.31,1.88,6.56-.48,9.71A37.44,37.44,0,0,0,417.92,354Z" transform="translate(-340.91 -235.56)"/><path class="cls-3" d="M403.66,403.61c7.2,2.05,14.46,3.85,21.82,5.17,10.7,1.92,21.33,4.37,32.21,5.21,0,1.54-1.77.65-2.19,1.61l-1.63-.08c-1.53-1.4-3.2-1.25-4.92-.44l-1.08-.11a7.85,7.85,0,0,0-7.09-1l-1.07-.15c-.54-1.25-1.32-1.12-2.2-.4l-1.08-.16c-1.45-1.35-3.05-1.86-4.93-.91l-1.07-.17a8.2,8.2,0,0,0-7.11-1.44l-1.06-.21c-.14-1-1-1-1.66-1.1a104,104,0,0,1-12.88-3.68C406.29,405.23,404.45,405.38,403.66,403.61Z" transform="translate(-340.91 -235.56)"/><path class="cls-5" d="M353.77,339.91a5.75,5.75,0,0,1,.19,1.86c-2.84,11.5.72,21.51,7,31,6.82,10.34,16,18.06,26.49,24.37.68.4,1.58.6,1.52,1.68a9.35,9.35,0,0,1-1.51-.55C373,390.12,361.66,379,354.81,363.67a33.38,33.38,0,0,1-2.06-21A4.72,4.72,0,0,1,353.77,339.91Z" transform="translate(-340.91 -235.56)"/><path class="cls-5" d="M455.5,415.6c.42-1,2.19-.07,2.19-1.61a5,5,0,0,0,3.24,1.12c8.72-.05,17.47.39,26.16-.16,7.63-.48,15.23-.2,22.84-.4.95,0,2-.37,2.82.53a3.88,3.88,0,0,1-1,.28c-18.05,0-36.08,1.55-54.14.62C456.88,416,456.12,416.12,455.5,415.6Z" transform="translate(-340.91 -235.56)"/><path class="cls-3" d="M918.66,255.11c2.63.13,4.52-2.06,7.93-2.31-2.83,1.89-5.08,3.3-7.24,4.85-2.48,1.78-4.87,3.7-7.34,5.5-.86.62-1.3,2.38-2.75,1.55-1.3-.75.16-2-.08-3a.45.45,0,0,1,.54-.44c1.26.11,2.22-.15,2.17-1.7l0,0c1.27.18,2.21-.09,2.23-1.62h0c.9.12,1.68.08,1.69-1.13l.17-.11c1.27.19,2.32,0,2.55-1.53Z" transform="translate(-340.91 -235.56)"/><path class="cls-3" d="M398.38,271.69c2.22-.06,1.12,1.36.85,2.15a40.51,40.51,0,0,0-2,13.22,56,56,0,0,0,.87,7.72c.17,1.15.24,2-1.29,2l-.22-1.06c.78-.59.5-.92-.27-1.13l-.26-1.6c.79-.69.75-1.25-.25-1.68a27.71,27.71,0,0,1,0-9.74c1-.41,1-1,.26-1.67l.29-1.6c.72-.21,1-.53.29-1.12l.25-1.06a2.67,2.67,0,0,0,1-3.18Z" transform="translate(-340.91 -235.56)"/><path class="cls-5" d="M403.66,403.61c.79,1.77,2.63,1.62,4.06,2.11a104,104,0,0,0,12.88,3.68c.64.13,1.52.12,1.66,1.1a87.29,87.29,0,0,1-22.87-7.12C400.81,403.47,402.27,402.94,403.66,403.61Z" transform="translate(-340.91 -235.56)"/><path class="cls-3" d="M398.76,303.85c.51,0,1.26-.15,1.44.41.66,2.19,2.57,4,1.86,6.61-1.34.08-2.06-.32-2.19-1.89A37,37,0,0,0,398.76,303.85Z" transform="translate(-340.91 -235.56)"/><path class="cls-3" d="M537.57,360.82a7.22,7.22,0,0,1-4.58-6.48,30.07,30.07,0,0,1,4.31,4.57c.1.63.2,1.25.29,1.88Z" transform="translate(-340.91 -235.56)"/><path class="cls-5" d="M391.11,399.88c2.85-.07,5.1,1.24,7.12,3.09A22.69,22.69,0,0,1,391.11,399.88Z" transform="translate(-340.91 -235.56)"/><path class="cls-5" d="M440.78,413.94a7.85,7.85,0,0,1,7.09,1A17.64,17.64,0,0,1,440.78,413.94Z" transform="translate(-340.91 -235.56)"/><path class="cls-5" d="M423.32,410.71a8.2,8.2,0,0,1,7.11,1.44A19.74,19.74,0,0,1,423.32,410.71Z" transform="translate(-340.91 -235.56)"/><path class="cls-5" d="M431.5,412.32c1.88-.95,3.48-.44,4.93.91A10.11,10.11,0,0,1,431.5,412.32Z" transform="translate(-340.91 -235.56)"/><path class="cls-5" d="M449,415.08c1.72-.81,3.39-1,4.92.44A9.27,9.27,0,0,1,449,415.08Z" transform="translate(-340.91 -235.56)"/><path class="cls-4" d="M841.19,396.53a3.25,3.25,0,0,1,.95,4.38A9.1,9.1,0,0,1,841.19,396.53Z" transform="translate(-340.91 -235.56)"/><path class="cls-4" d="M843.36,409.07c1.6,1.13,1.2,2.46.41,3.84A6.82,6.82,0,0,1,843.36,409.07Z" transform="translate(-340.91 -235.56)"/><path class="cls-5" d="M356.11,335.12c-.05,1.53-.35,2.93-2,3.63A6,6,0,0,1,356.11,335.12Z" transform="translate(-340.91 -235.56)"/><path class="cls-3" d="M397.66,300c1.94-.21,1.7,1.27,2.09,2.42-1.26.14-.82-1.48-1.84-1.36Z" transform="translate(-340.91 -235.56)"/><path class="cls-4" d="M840.13,392.16c1.3.85,1.86,1.89.83,3.33A5.59,5.59,0,0,1,840.13,392.16Z" transform="translate(-340.91 -235.56)"/><path class="cls-3" d="M843.93,415.64c1.79-.12,1.48,1.17,1.51,2.24C843.29,418.25,843.92,416.74,843.93,415.64Z" transform="translate(-340.91 -235.56)"/><path class="cls-5" d="M422.8,357.52c-.95,1.24-1.88,1.31-2.79-.06Z" transform="translate(-340.91 -235.56)"/><path class="cls-5" d="M397.9,272.89a2.67,2.67,0,0,1-1,3.18A4.58,4.58,0,0,1,397.9,272.89Z" transform="translate(-340.91 -235.56)"/><path class="cls-4" d="M914.1,258c0,1.53-1,1.8-2.23,1.62A3,3,0,0,1,914.1,258Z" transform="translate(-340.91 -235.56)"/><path class="cls-4" d="M911.89,259.58c.05,1.55-.91,1.81-2.17,1.7A3,3,0,0,1,911.89,259.58Z" transform="translate(-340.91 -235.56)"/><path class="cls-4" d="M918.49,255.22c-.23,1.54-1.28,1.72-2.55,1.53A3.5,3.5,0,0,1,918.49,255.22Z" transform="translate(-340.91 -235.56)"/><path class="cls-4" d="M842.85,405.25c1.35.55,1.17,1.34.33,2.22A2.44,2.44,0,0,1,842.85,405.25Z" transform="translate(-340.91 -235.56)"/><path class="cls-5" d="M437.51,413.39c.88-.72,1.66-.85,2.2.4A2.18,2.18,0,0,1,437.51,413.39Z" transform="translate(-340.91 -235.56)"/><path class="cls-5" d="M430.41,353.47c.09,1.37-.53,1.84-1.83,1.44A2.67,2.67,0,0,1,430.41,353.47Z" transform="translate(-340.91 -235.56)"/><path class="cls-5" d="M428.59,354.9c.13,1.55-.87,1.28-1.79,1.11A2.32,2.32,0,0,1,428.59,354.9Z" transform="translate(-340.91 -235.56)"/><path class="cls-4" d="M842.32,402c1.15.37,1.21.93.3,1.68A1.54,1.54,0,0,1,842.32,402Z" transform="translate(-340.91 -235.56)"/><path class="cls-3" d="M397.1,297.86c.49.09,1.26-.24,1.38.42.15.87-.71.48-1.14.63Z" transform="translate(-340.91 -235.56)"/><path class="cls-5" d="M395.79,291.26c1,.43,1,1,.25,1.68A1.44,1.44,0,0,1,395.79,291.26Z" transform="translate(-340.91 -235.56)"/><path class="cls-5" d="M396.05,279.85c.78.69.73,1.26-.26,1.67A1.43,1.43,0,0,1,396.05,279.85Z" transform="translate(-340.91 -235.56)"/><path class="cls-4" d="M915.77,256.86c0,1.21-.79,1.25-1.69,1.13A1.82,1.82,0,0,1,915.77,256.86Z" transform="translate(-340.91 -235.56)"/><path class="cls-5" d="M537.59,360.79c-.09-.63-.19-1.25-.29-1.88C538.12,359.43,538.55,360,537.59,360.79Z" transform="translate(-340.91 -235.56)"/><path class="cls-4" d="M946.67,351.37c.7,0,1.67-.09.66,1A.94.94,0,0,1,946.67,351.37Z" transform="translate(-340.91 -235.56)"/><path class="cls-5" d="M396.3,294.54c.77.21,1.05.54.27,1.13A.82.82,0,0,1,396.3,294.54Z" transform="translate(-340.91 -235.56)"/><path class="cls-5" d="M396.63,277.13c.73.59.43.91-.29,1.12A.82.82,0,0,1,396.63,277.13Z" transform="translate(-340.91 -235.56)"/><path class="cls-1" d="M677.71,489c-19.61-.08-36.62-1.93-53.08-7.48-7.85-2.65-15.09-6.31-20.85-12.44-3.1-3.29-5.53-7-6.19-11.58a6,6,0,0,1-.15-1.62c.17-1.3-.32-3.09,1.14-3.65s2,1.24,2.69,2.17c3.93,5.22,9.14,8.75,14.89,11.63,13.3,6.64,27.5,9.85,42.2,11.06,28,2.29,55.36-.46,81.8-10.29,7.34-2.73,14.38-6.1,20.49-11.16,3.44-2.85,7.28-2.68,9.38.21s1,6.54-2.64,9.07c-11.1,7.69-23.35,12.88-36.29,16.54A198.9,198.9,0,0,1,677.71,489Z" transform="translate(-340.91 -235.56)"/><path class="cls-1" d="M659.59,403.73a33.85,33.85,0,0,1-10.19-3.48c-6.52-3.22-12.54-7.3-18.74-11.09-.47-.28-.93-.57-1.39-.86-9.53-5.86-10.69-5.87-20.13.32-5.24,3.43-9.94,7.63-15.33,10.86a21.74,21.74,0,0,1-5.63,2.68c-1.55.4-3.12.58-4.3-.76s-.78-2.91-.2-4.38a15.17,15.17,0,0,1,3.84-5.57,81.1,81.1,0,0,1,27.56-17.14,15.54,15.54,0,0,1,13.22.78c10.32,5.7,20.51,11.66,29.89,18.87a21.17,21.17,0,0,1,4.57,4.64c.82,1.16,1.36,2.42.53,3.8S661.28,403.81,659.59,403.73Z" transform="translate(-340.91 -235.56)"/><path class="cls-1" d="M729.54,373.31a18.4,18.4,0,0,1,6.67,1.05,80.82,80.82,0,0,1,28.06,17.83,12.52,12.52,0,0,1,3.51,6c.65,2.75-.9,4.46-3.71,4.15a14.73,14.73,0,0,1-5.78-2.3,114.89,114.89,0,0,1-11.83-8.26,91.83,91.83,0,0,0-9.6-6.19c-3.81-2.21-7.32-2-11,.26-5.76,3.62-11.61,7.11-17.43,10.65A55.4,55.4,0,0,1,694.68,403c-2.28.64-5.11,2.05-6.74-.58-1.76-2.84,1-4.61,2.69-6.38a36.6,36.6,0,0,1,7.19-5.82q11.05-7,22.23-13.75C723.18,374.55,726.56,373.22,729.54,373.31Z" transform="translate(-340.91 -235.56)"/></svg>