<svg id="Calque_1" data-name="Calque 1" xmlns="http://www.w3.org/2000/svg" viewBox="0 0 353.59 278.08"><defs><style>.cls-1,.cls-2{fill:#5222af;stroke-miterlimit:10;stroke-width:10px;}.cls-1{stroke:#000;}.cls-2{stroke:#5222af;}</style></defs><path class="cls-1" d="M712.28,439.85q-15.91,8.77-31.83,17.53c-1.78,1-3.63,1.84-6.49,3.28,2.23-5.6,4.09-10.23,5.92-14.87,5.28-13.42,10.8-26.75,15.24-40.5a11.27,11.27,0,0,0-1.12-10c-9.31-16-26.23-27-35.36-43.12-.47-.84,6.88-6.93,7.19-8a10.6,10.6,0,0,0,2.87-3.91h0c4-4.87,8.22-9.61,10.86-15.45,1.3-.3,2-1.35,2.68-2.33,11.2-15.08,22.32-30.23,33.7-45.19,2-2.66,1.57-3.85-.75-5.73-10.92-8.85-21.69-17.9-32.59-26.77-2.16-1.75-2.48-2.78-.14-4.77,7.74-6.56,15.29-13.36,22.91-20.07a7.06,7.06,0,0,0,3-2.61.43.43,0,0,0,.38-.42c5.09-3.58,9.33-8.41,15.62-10.29,3.78-1.13,7.41-2.78,11.11-4.2,8.9-1.84,17.74-3.66,27-3.34,19.72.7,36,8.71,49.93,22.26,22.89,22.26,29.15,49.46,23.79,80.05-4.16,23.72-15.89,43.82-30.77,62.24-17.43,21.57-38.48,39.2-61,55.15a21.37,21.37,0,0,0-1.62,1.4Z" transform="translate(-489.39 -192.98)"/><path class="cls-1" d="M660.81,438c-1.1,6.87-2.33,13.73-3.23,20.63-.42,3.16-1.28,4.14-4.09,2.05a12.76,12.76,0,0,0-2.26-1.09,97.23,97.23,0,0,0-13.17-7.31l-.09,0a32.54,32.54,0,0,0-10.71-5.66c-8.11-6.44-17.23-11.34-25.9-16.94-.22-.79-.93-1.05-1.53-1.46C589,420.72,578.24,413,568.14,404.5c-6.09-5.14-12.09-10.41-18.13-15.62-8.29-8.65-16.69-17.19-24.09-26.67-13.21-16.91-23.74-35.25-28.55-56.28-5.52-24.11-3.93-47.72,9.57-69.11,10.86-17.21,25.83-30,45.76-35.9,17.84-5.29,35.29-3,52.37,3.55a127.25,127.25,0,0,1,23.2,11.95c2.29,1.48,2.51,2.59.89,4.79-6.11,8.3-11.94,16.8-18.08,25.06-1.94,2.61-1.49,3.73,1.34,4.87,4.49,1.79,8.53,4.56,13.14,6.11a9.34,9.34,0,0,0,4.93,2.44l0,0a62.42,62.42,0,0,0,11.82,5.83c3.22,1.65,6.37,3.49,9.7,4.88,2.64,1.1,2.89,2.2,1.74,4.84-8.81,20.16-17.43,40.41-26.11,60.63a6.74,6.74,0,0,0-1,3.07,24.09,24.09,0,0,0-3.43,7.84.27.27,0,0,0-.17.4c-1.63,2.07-2.38,3.89-.12,6.3,11.62,12.33,23,24.85,34.62,37.22,8.08,8.63,8.1,8.57,6.6,20.35C663,420,661.9,429,660.81,438Z" transform="translate(-489.39 -192.98)"/><ellipse class="cls-2" cx="106.45" cy="49.77" rx="5.23" ry="5.88"/><path class="cls-1" d="M605.68,241" transform="translate(-489.39 -192.98)"/><line class="cls-2" x1="114.14" y1="45.08" x2="109.23" y2="56.94"/></svg>