<svg id="Calque_1" data-name="Calque 1" xmlns="http://www.w3.org/2000/svg" viewBox="0 0 672.92 337.62"><defs><style>.cls-1{fill:#070707;}.cls-2{fill:#d1d1d1;}.cls-3{fill:#e1e1e1;}.cls-4{fill:#a7a7a7;}.cls-5{fill:#a6a6a6;}.cls-6{fill:#a5a5a5;}.cls-7{fill:#6c7dc8;}.cls-8{fill:#caccd1;}.cls-9{fill:#8492cc;}.cls-10{fill:#7888cc;}.cls-11{fill:#b0b6d0;}.cls-12{fill:#bec1d0;}.cls-13{fill:#6e7fc9;}.cls-14{fill:#040506;}</style></defs><path class="cls-1" d="M442,335c-2,1.45-2.84,3.29-4,4.8-1.36,1.7-2.55,3.54-4,5.19-3.38,4-7.06,4.06-10.68.26-4.69-4.94-9.31-9.93-14-14.89a34.84,34.84,0,0,0-2.52-2.49c-.72-.64-1.31-2-2.25-1.69-1.24.43-1,2-1.09,3.09a34.63,34.63,0,0,0,.87,9.46c.89,4.91.06,7.44-2.74,8.44s-5.45-.39-7.77-4.51c-9.64-17.17-13.93-35.48-11.87-55.22,1.2-11.53,4.71-22,12.85-30.51,13.21-13.79,29.35-16.69,47.08-11.53,19.89,5.8,34,19,44.09,36.66,5.77,10.12,9.87,21,13.75,32,5.81,16.43,11.41,32.93,17.12,49.39a30.22,30.22,0,0,1,1.77,9,2,2,0,0,0,1.43-1.64c14.56-39.59,41.44-68.31,78.68-87.23,41.93-21.29,86-25.69,131.29-12.86,40,11.3,70.93,34.57,91.64,70.88a124.92,124.92,0,0,1,10.79,25.53c.28.94.62,1.85,1,3,1.18-.87,1.23-2,1.58-3,6.66-18.14,12.26-36.66,19.18-54.72,3.12-8.14,6.35-16.25,10.7-23.83,9.83-17.14,23.47-30,42.56-36.16,12.55-4.07,25.09-4.22,37,2.22,13.36,7.22,20.91,18.69,23.61,33.49,3.61,19.85,0,38.62-8.51,56.65a28.29,28.29,0,0,1-4.31,6.91c-1.68,1.89-3.72,3-6.29,1.92s-3-3.22-2.8-5.66c.29-3.52,1.41-6.95,1.29-10.52,0-1.61.39-3.89-1-4.53s-2.36,1.55-3.42,2.55c-5.21,4.93-10,10.3-14.8,15.61-4.42,4.87-8,4.77-12.11-.37-1.91-2.42-3.66-5-5.53-7.42-.4-.53-.64-1.5-1.54-1.23-.71.22-.54,1.09-.62,1.67-.33,2.52-.58,5.05-.84,7.57-.58,5.53-3.11,7.7-8.51,6.81-2.51-.42-3.26.35-3.25,2.7,0,5.71,0,11.43-.09,17.14a42.53,42.53,0,0,1-.78,9.75c-.95,4-3.39,5.94-7.47,5.58-3.88-.34-7.73-1-11.59-1.67a4.44,4.44,0,0,0-4.67,2c-2.09,2.74-4.28,5.42-6.62,7.95-3.22,3.48-6.09,3.61-9.7.53-1-.85-1.7-1.07-2.79-.22a101.2,101.2,0,0,1-12.93,8.56c-1.07.59-2.07,5.17-1.48,6.21a.63.63,0,0,0,.89.29,5.15,5.15,0,0,0,1-.44c5-3,10.35-3.6,15.66-1.21,4.88,2.2,8.56.85,12.15-2.61a65.84,65.84,0,0,1,9.18-7.26,12.79,12.79,0,0,1,9.57-2.11c4.57.75,9.18,1.22,13.74,2,2,.35,2.76-.26,3.23-2.12.86-3.43,1.92-6.81,2.94-10.2,1.38-4.56,3.57-6.21,8.3-6.35h.27c4.59.7,7.83-1,11.41-4.2,5-4.57,11.24-7.95,17.34-11.16,3.41-1.8,6.2-.5,7.62,3.13a41.17,41.17,0,0,1,2.25,10.35c.2,1.84.78,1.84,2.19,1,8-4.77,16.83-6.14,26-5.48,9.45.67,16.95,5.21,22.5,12.74,7.76,10.53,9.88,22.24,6.34,34.85a47.17,47.17,0,0,1-17,25,73.43,73.43,0,0,1-41.46,15.53c-30.1,1.82-58.89-4-86.54-15.83a208.06,208.06,0,0,1-20.35-9.81,40.9,40.9,0,0,1-8.75-6c-1.35-1.32-1.64-.64-2,.71-13.4,49.92-45.62,83.59-91.89,104.34-36.54,16.39-74.73,19.47-113.8,10.52-2.26-.52-2.81.09-3,2.16a42.08,42.08,0,0,1-6.16,18.42c-6,10-14,10.4-20.82,1-5.67-7.82-8.18-17-8.47-26.34-.24-7.45-3-11.21-9.3-15-33.8-20.56-56.24-49.78-65.26-88.7-.78-3.35-1.29-6.77-1.83-10.17-.22-1.42-.47-2-2-1a203.13,203.13,0,0,1-89.84,29.13c-14.25,1.21-28.31.71-42-3.74a66.2,66.2,0,0,1-27.51-16.56c-8.89-9.09-13.65-20.09-13.22-32.92a36.87,36.87,0,0,1,14.64-28.88,28.88,28.88,0,0,1,18-6.11c8.4-.08,16.47,1.25,23.78,5.68,1.63,1,1.93.39,2.11-1.17a46,46,0,0,1,2-9.57c1.51-4.4,4.57-6,8.43-3.51,6.93,4.4,14.69,7.67,20.19,14.11a3,3,0,0,0,2.64,1.06c2.09-.08,4.18-.15,6.27-.06,4,.16,6.18,1.8,7.41,5.63,1.14,3.54,2.21,7.11,3.14,10.71.49,1.9,1.2,2.68,3.37,2.28,4.55-.85,9.17-1.3,13.74-2a12.85,12.85,0,0,1,9.33,2c4.53,2.91,8.35,6.69,12.66,9.88,1.77,1.31,3.37,1.88,5.48,1,1.32-.57,2.83-.69,4.19-1.19a16,16,0,0,1,13.91,1.08c1.57.87,2,.63,2.32-1.26.43-2.76-.38-4.27-2.92-5.53a64.78,64.78,0,0,1-10.85-7.26c-1.12-.88-1.87-.89-3,.11-3.55,3.08-6.45,2.92-9.69-.58-2.33-2.53-4.53-5.21-6.61-8a4.39,4.39,0,0,0-4.69-1.9c-3.13.54-6.27,1-9.41,1.5-6.25.94-9.07-1.07-9.95-7.34-.85-6.05-.31-12.15-.41-18.22-.05-2.63-.19-5.26-.25-7.89,0-1.42-.69-1.95-2.07-1.66-.53.11-1.08.18-1.62.24-4.66.5-7.23-1.49-7.84-6.18-.28-2.16-.41-4.34-.66-6.5C442.55,337.73,442.29,336.52,442,335Zm-34.18-17.4,0,0a5,5,0,0,0,2.19,1.79,21.17,21.17,0,0,0,4.43,4.13,21.69,21.69,0,0,0,4.83,4.59,37.78,37.78,0,0,0,5.29,5.29,5.11,5.11,0,0,0,1.83,2.23c1,0,1.15,3.42,2.85.72q4.13-5.84,8.26-11.68l.42-.49a6.09,6.09,0,0,0,2.25-2.2l0,0c5.82-2.32,8.51-.86,9.85,5.37.66,3.08,1.31,6.16,2,9.24l.11,1.05c-.15,4.25-.15,4.25,3.92,3.91,5.29-.43,7.61,1.7,8,7.1.5,7.22-.17,14.45.14,21.66a13.34,13.34,0,0,0,0,5.45c-.4,1.75.26,2.42,2,2l2.86-.76,1-.18a3.93,3.93,0,0,0,2.75-.41l1.06-.13c4.35-.25,8.49.06,11.38,4l0,0a3.69,3.69,0,0,0,1.71,2.18,1.42,1.42,0,0,0,.88,1.1,4.3,4.3,0,0,0,1.84,2.17c.63,1.06,1.2,2.26,2.75,1.22a2.05,2.05,0,0,0,1.5-1.13c.3.16.51,0,.68-.22,2.57-.78,4.85,0,7,1.26l.53.45a10.57,10.57,0,0,0,3.24,3,7.4,7.4,0,0,0,3.05,2.49c1,.89,1.95,1.83,3,2.64.66.51,1.25,1.72,2.15,1.18s.65-1.75.52-2.74l.21-1.6a1.79,1.79,0,0,0,.32-1.68,2.12,2.12,0,0,0,.45-1.81l.12-.59a1.2,1.2,0,0,0,.35-1.5l.31-1.54a1,1,0,0,0,0-1.65,26.88,26.88,0,0,0-3.39-5.91,6.19,6.19,0,0,0-2.43-3.4,56.38,56.38,0,0,1-5.31-12.46c-2.47-7.49-4.93-15-7.44-22.45C491.48,322,486,304.62,477.14,288.69c-8.59-15.41-20.57-27.09-37.75-32.59-5.8-1.85-11.78-2.88-17.92-1.91A25.66,25.66,0,0,0,404.11,262a26.27,26.27,0,0,0-7.27,10.21,1,1,0,0,0-.5,1.09c-2.61,4.91-3.29,10.3-4,15.69-1.23,9.45-1,18.8,1.8,28l.22,1a13.12,13.12,0,0,0,1.49,5.63c.94-1.86,1.61-3.19,2.29-4.52a3.8,3.8,0,0,0,1.61-1.59,11,11,0,0,1,5.42-1.15,1.07,1.07,0,0,0,1.19.22A1.7,1.7,0,0,0,407.84,317.57ZM588.22,473.2a24.31,24.31,0,0,0-1.57,7.63c-.91,3.05-.67,6.15-.42,9.26a6.47,6.47,0,0,0,.11,3.27.93.93,0,0,0,.17,1.14c.12.89.23,1.78.35,2.67a.91.91,0,0,0,.25,1.13,6.69,6.69,0,0,0,.74,3.23c.46,3.38,2,6.36,3.43,9.4,2.07,4.54,4.43,8.94,5.79,13.78,1.87,6.68,1.55,13.5,1.38,20.29a56.17,56.17,0,0,0,2.36,18.81,17.63,17.63,0,0,0,5.39,8.34c1.49,1.26,2.78,1.39,4.22-.17a24.39,24.39,0,0,0,4-5.48c5-10.06,6.63-20.45,3-31.36-2.62-7.93-5-15.93-5.42-24.35.35-4.67,2.07-8.91,4.15-13a21.33,21.33,0,0,0,3.44-9.19q.52-3.6,1.07-7.19a13.61,13.61,0,0,0-.11-6.56l-1.32-5.42c1.16-2.43,2.16-.75,2.85.25,1.57,2.26,2.23,5,3.11,7.52,2.94,8.6,2.2,16.83-2.92,24.43a18.55,18.55,0,0,0-2.68,16.56c1.78,5.9,3.67,11.8,5,17.81.61,2.82,1.88,3.79,4.47,4.42,32.28,7.91,64.19,6.57,95.54-4.3,35.53-12.31,64.54-33.45,83.55-66.27,24-41.51,25.59-84,1.28-126-19.12-33-49.09-52.25-85.1-62.71a144.67,144.67,0,0,0-41.17-5.74c-49.06.21-91.24,17-124.57,53.44-21.84,23.9-34.21,52.33-34.33,84.93-.15,46.46,21.44,81.45,59.4,107.09.41.28.85.73,1.7.1-.79-1.91-1.57-3.91-2.45-5.85a60.47,60.47,0,0,1-5.13-29.74c.72-10.11,2.82-19.78,9.46-27.89a12.23,12.23,0,0,1,3.1-3c2.27-1.34,3.59-.73,4.23,1.91q-2.45,5.72-4.88,11.42A17.53,17.53,0,0,0,588.22,473.2ZM900.92,456c16.11,4.32,32.37,7.26,49.16,5.63a66.63,66.63,0,0,0,30.2-9.07c11.49-6.91,20-16.09,23-29.67,4-18.39-8.93-34.58-27.67-34.6-7.55,0-14.13,2.81-20.48,6.55-5.13,3-7.85,1.62-8.44-4.22-.38-3.88-.69-7.77-1.07-11.65-.12-1.22-.44-2.25-2-1.22-4.94,3.22-10.37,6-14,10.71-3.45,4.49-7.48,6.65-13,6.3-1.67-.1-2.4.72-2.86,2.24-1.16,3.82-2.31,7.65-3.73,11.38-1.57,4.13-4,5.62-8.42,5.4-2.63-.13-5.23-.58-7.85-.84-12.79-1.26-8.74-3.05-19.55,5l-2.4,1.79c-8.57,6.47-8.58,6.51-18.76,3.22a13,13,0,0,0-7.47-.54,22.73,22.73,0,0,1-5.4.64c-2.39,0-3.79.83-3.79,3.41a6.18,6.18,0,0,1-.32,2.14c-.71,1.91.18,2.6,1.84,3.4a373.13,373.13,0,0,0,40.5,16.76C885.84,451.38,893.17,454.37,900.92,456Zm-63.08-60.66c0,.35,0,.71.07,1.06a27.71,27.71,0,0,0,.34,6.38c3.76-3.13,7.16-5.94,10.54-8.78s5.68-3.14,9.28-.63c1.31.91,2,.71,2.88-.44,1.77-2.3,3.68-4.49,5.48-6.77a8.38,8.38,0,0,1,7.06-3.4,61,61,0,0,1,9.72,1.15c3.77.64,3.84.65,3.84-3.31,0-8.25-.53-16.5-.11-24.76.33-6.42,2.73-8.59,9-7.58,2.41.39,3-.38,3-2.6a58.59,58.59,0,0,1,2.51-13.89c1.29-4.49,5.48-5.79,9.2-3a15.65,15.65,0,0,1,2.88,2.87c2.22,2.88,4.35,5.81,6.47,8.76,2.61,3.64,2.6,3.67,5.62.51,5.2-5.44,10.6-10.7,16.29-15.64,4.48-3.89,9.06-2.88,11.87,2.36.44.82.43,2,1.46,2.46a79.34,79.34,0,0,0,2-42.44c-4.77-20.73-21.22-30.93-42-26.07-13.92,3.26-24.85,11.17-33.8,22.05-7.67,9.31-12.47,20.19-16.9,31.24-7.24,18-12.69,36.68-19,55-1.53,4.48-3.25,8.81-6.39,12.51-1.76,2.08-3.15,4.53-1.78,7.48l.06,2.06A4.46,4.46,0,0,0,837.84,395.35Zm-426.41,60.1a121.05,121.05,0,0,0,13.88-1.06c18.39-2.41,36-7.8,53.28-14.27,10.89-4.07,21.62-8.5,32.1-13.54,1.83-.88,2.79-8.52,1.23-9.68a1.58,1.58,0,0,0-.77-.23c-5-.41-10-2.25-15,.34-.79.41-1.76.47-2.6.81-4,1.66-7.53.82-10.89-1.87-4-3.17-8.13-6.1-12.21-9.14a7.18,7.18,0,0,0-5.62-1.37c-5.2.74-10.44,1.4-15.68,1.79-4.28.32-6.68-1.27-8.23-5.26a87.82,87.82,0,0,1-3.39-10.33c-.65-2.53-1.8-3.54-4.47-3.53-3.34,0-6.84-.11-9.12-3.24-4.28-5.87-10.4-9.49-16.26-13.45-1.88-1.26-2.29-.45-2.44,1.3q-.46,5.7-1,11.38c-.59,5.83-3.25,7.14-8.46,4.23-4.36-2.43-8.69-4.86-13.7-5.86-18.23-3.64-32.94,6.53-34.94,24.7-1.07,9.74,2.4,18.48,8.42,26,6.9,8.66,16,14.46,26.37,18.08C391,454.43,400.34,455.48,411.43,455.45Z" transform="translate(-339.06 -242.98)"/><path class="cls-2" d="M594.58,456.28c-.64-2.64-2-3.25-4.23-1.91a12.23,12.23,0,0,0-3.1,3c-6.64,8.11-8.74,17.78-9.46,27.89A60.47,60.47,0,0,0,582.92,515c.88,1.94,1.66,3.94,2.45,5.85-.85.63-1.29.18-1.7-.1-38-25.64-59.55-60.63-59.4-107.09.12-32.6,12.49-61,34.33-84.93,33.33-36.48,75.51-53.23,124.57-53.44a144.67,144.67,0,0,1,41.17,5.74c36,10.46,66,29.69,85.1,62.71,24.31,42,22.76,84.54-1.28,126.05-19,32.82-48,54-83.55,66.27-31.35,10.87-63.26,12.21-95.54,4.3-2.59-.63-3.86-1.6-4.47-4.42-1.32-6-3.21-11.91-5-17.81a18.55,18.55,0,0,1,2.68-16.56c5.12-7.6,5.86-15.83,2.92-24.43-.88-2.57-1.54-5.26-3.11-7.52-.69-1-1.69-2.68-2.85-.25a5.22,5.22,0,0,1-1.21-.5,10.81,10.81,0,0,0-8.44-2.35c-5.8.77-9.05-1.12-10.18-7C598.91,456.94,597,456.27,594.58,456.28ZM564.2,432.66c-.51,5.77,2.95,9.6,9.62,9a19.79,19.79,0,0,0,6.27-1.68c4.88-2.14,8.73-.43,12.41,2.76,2.87,2.48,5.45,5.34,8.8,7.24,7.35,4.18,14.87,3.61,22.15.1,8-3.86,15.89-7.47,25.15-6.41,2.61.3,5.09-1.16,7.4-2.44,4.3-2.39,5.48-5.86,3.64-10.48a11.94,11.94,0,0,0-3.7-10.1c-2.68-2.59-5.51-2.93-8.63-.91a59.56,59.56,0,0,0-5.4,4.11c-7.77,6.39-15.94,7-24.71,2.25q-8.1-4.41-16.32-8.6c-10.17-5.2-20.54-4.52-30.64.37C564.2,420.82,561.94,426.77,564.2,432.66ZM798,421.48c-.14-5.27-2.5-9.2-7.31-11.41-10.21-4.7-20.58-5.32-30.68,0-5.44,2.88-10.94,5.65-16.34,8.61-8.24,4.51-16.52,3.82-23.83-2.1-2-1.59-4-3.22-6.07-4.6a6.06,6.06,0,0,0-8,.66,11.94,11.94,0,0,0-4.08,11,6.14,6.14,0,0,1-.58,1.52c-2.83,3.86,0,8.94,4.08,10.59s8,1,11.82-.8a7.31,7.31,0,0,1,7.91.73c2.88,2,5.74,4.11,8.73,6,7.78,4.83,18.88,5.4,26.51-.8,2.59-2.11,4.84-4.64,7.22-7a11.67,11.67,0,0,1,10.41-3.29c2.68.4,5.32,1,8,1.55C793.92,433.76,798.63,429.65,798,421.48Z" transform="translate(-339.06 -242.98)"/><path class="cls-3" d="M837.91,396.41c0-.35,0-.71-.07-1.06.7-1.19,1-2.34-.32-3.34l-.06-2.06a22.65,22.65,0,0,0,6.77-6.52c8.61-11.58,14-24.77,18-38.43,4.41-15.06,8.61-30.11,16.61-43.79,5.15-8.79,10.55-17.35,18.78-23.66,9.89-7.59,20.7-12.53,33.57-11.33a15.52,15.52,0,0,1,11.07,5.58,54.66,54.66,0,0,1,8,13.78c4.62,11,6.16,22.24,3.7,34-.14.65.14,1.6-.92,1.69-.81.06-.92-.76-1.25-1.26-2.88-4.37-6.63-4.82-10.36-1.11-2.11,2.11-4.08,4.36-6.07,6.59-3.68,4.11-7.38,8.2-11,12.4-2.08,2.45-2.53,2.51-4.16-.33-3.16-5.51-6.55-10.83-11.37-15.12-3.86-3.42-7.71-2.61-9.68,2.16a19.38,19.38,0,0,0-.83,2.58q-1.78,7.1-3.53,14.21c-.87,3.51-.86,3.51-4.36,2.72a6.64,6.64,0,0,0-8.33,5,19.66,19.66,0,0,0-.7,5.09c.17,7-.09,13.93.43,20.91.37,5,.82,5.12-4.44,3.73-1-.28-2.13-.42-3.18-.7-6.25-1.69-11,.31-14.36,5.76-1,1.61-2.35,3-3.32,4.62a3.89,3.89,0,0,1-4.28,2.09c-4.82-.66-8.66,1.25-11.87,4.69A2.68,2.68,0,0,1,837.91,396.41Z" transform="translate(-339.06 -242.98)"/><path class="cls-3" d="M512.41,377.45a26.88,26.88,0,0,1,3.39,5.91c-.59.57-.68,1.12,0,1.65l-.31,1.54c-.81.34-.84.86-.35,1.5l-.12.59a8.37,8.37,0,0,1-2.32-1.36q-4.94-4-10-7.94c-2.8-2.19-5.79-2.52-8.78-.43-1.19.83-1.72.43-2.34-.61-1.73-2.93-4.39-5.05-6.7-7.47a8.35,8.35,0,0,0-8.2-2.43c-1.77.36-3.5.92-5.26,1.32-1.29.29-2.16,0-1.95-1.63.87-6.5.44-13,.33-19.56-.14-7.6-2.43-10.09-9.86-11.52a3.47,3.47,0,0,1-3.15-3.06c-.82-3.8-1.73-7.59-2.91-11.29-2.57-8.07-7.68-10-15.1-5.87a12.35,12.35,0,0,0-1.37.89,63.09,63.09,0,0,0-11.16,9.47c-.75.84-1.37,1.5-2.67.45-6.68-5.42-13.45-10.74-19.29-17.11a5.57,5.57,0,0,0-2.81-2.08c-2.86-.54-2.65-2.61-2.36-4.58,1.15-7.78,2.27-15.58,4.51-23.12,3.48-11.69,9.79-16,21.23-15.85,10.22.18,19.58,3.7,28.07,9.18,10.9,7,16.84,18,21.91,29.43,6.62,14.92,10.39,30.92,17,45.83,4.42,10,9.9,19.36,17.82,27.08C510.43,377.07,511,378.33,512.41,377.45Z" transform="translate(-339.06 -242.98)"/><path class="cls-4" d="M512.41,377.45c-1.39.88-2-.38-2.69-1.07-7.92-7.72-13.4-17.1-17.82-27.08-6.6-14.91-10.37-30.91-17-45.83C469.84,292,463.9,281.08,453,274c-8.49-5.48-17.85-9-28.07-9.18-11.44-.2-17.75,4.16-21.23,15.85-2.24,7.54-3.36,15.34-4.51,23.12-.29,2-.5,4,2.36,4.58a5.57,5.57,0,0,1,2.81,2.08c5.84,6.37,12.61,11.69,19.29,17.11,1.3,1,1.92.39,2.67-.45a63.09,63.09,0,0,1,11.16-9.47,12.35,12.35,0,0,1,1.37-.89c7.42-4.12,12.53-2.2,15.1,5.87,1.18,3.7,2.09,7.49,2.91,11.29A3.47,3.47,0,0,0,460,337c7.43,1.43,9.72,3.92,9.86,11.52.11,6.52.54,13.06-.33,19.56-.21,1.63.66,1.92,1.95,1.63,1.76-.4,3.49-1,5.26-1.32a8.35,8.35,0,0,1,8.2,2.43c2.31,2.42,5,4.54,6.7,7.47.62,1,1.15,1.44,2.34.61,3-2.09,6-1.76,8.78.43q5,3.92,10,7.94a8.37,8.37,0,0,0,2.32,1.36,2.12,2.12,0,0,1-.45,1.81c-1.24.34-1.28.91-.32,1.68l-.21,1.6-5.67-1.08a7.4,7.4,0,0,1-3.05-2.49c-.15-2-1.29-2.93-3.24-3l-.53-.45c-1.3-3-5.15-3.68-7-1.26-.17.25-.38.38-.68.22-.94-.21-1.46.14-1.5,1.13-1.55,1-2.12-.16-2.75-1.22.09-1.31-.24-2.28-1.84-2.17a1.42,1.42,0,0,1-.88-1.1c.07-1.23-.16-2.22-1.71-2.18l0,0c0-2.65-1.91-3.77-4-4.37-2.44-.7-5.05-1.63-7.4.41l-1.06.13c-1-.77-2.06-1.22-2.75.41l-1,.18c-1.41-1.29-3.51.25-4.87-1.2a13.34,13.34,0,0,1,0-5.45c1.16-.19,1-1.09,1-1.89,0-6.61.21-13.24-.06-19.84-.25-5.93-2.5-8.63-8.27-8.15-2.2.18-4,.56-4-2.5,0-.09-.47-.19-.72-.29,0-.35-.07-.7-.11-1.05a1.88,1.88,0,0,0,.58-2.2A108.1,108.1,0,0,0,450,323.42a5.58,5.58,0,0,0-1.91-2.54c-2.61-2.14-6.89-1.52-7.91,1.08l0,0c-1.74-.28-2.42.53-2.25,2.2l-.42.49c-2.36,0-3,2.17-3.95,3.61-1.63,2.56-4.37,4.6-4.31,8.07-1.7,2.7-1.85-.7-2.85-.72.11-1.34-.19-2.34-1.83-2.23a37.78,37.78,0,0,1-5.29-5.29,5.88,5.88,0,0,0-4.83-4.59,21.17,21.17,0,0,1-4.43-4.13c.09-1.6-.85-1.95-2.19-1.79l0,0c0-1-.6-1.24-1.48-1a1.07,1.07,0,0,1-1.19-.22c-1.67-1.79-3.85-1.33-5.42,1.15a3.8,3.8,0,0,1-1.61,1.59c-1.46.3-2.61-.43-3.78-1.11-.07-.35-.14-.69-.22-1a1.35,1.35,0,0,0,.59-1.65,61.64,61.64,0,0,1-1.62-22.72A122.76,122.76,0,0,1,395,279.86c.48-2.16,2.1-4.13,1.31-6.55a1,1,0,0,1,.5-1.09c2.48-1.07,2.94-3.79,4.55-5.59,1.17-1.32,3.12-2.33,2.72-4.62a25.66,25.66,0,0,1,17.36-7.82c2.37,1.41,5.11.87,7.6,1.07,11.67.92,21.53,5.77,30.27,13.19,10.51,8.92,17.51,20.37,23,32.83,5.85,13.33,10.28,27.19,14.91,41,3.22,9.59,6,19.34,9.83,28.7.55,1.35.91,3.05,2.92,3.1A6.19,6.19,0,0,1,512.41,377.45Z" transform="translate(-339.06 -242.98)"/><path class="cls-5" d="M411.43,455.45c-11.09,0-20.45-1-29.47-4.16-10.42-3.62-19.47-9.42-26.37-18.08-6-7.56-9.49-16.3-8.42-26,2-18.17,16.71-28.34,34.94-24.7,5,1,9.34,3.43,13.7,5.86,5.21,2.91,7.87,1.6,8.46-4.23q.56-5.69,1-11.38c.15-1.75.56-2.56,2.44-1.3,5.86,4,12,7.58,16.26,13.45,2.28,3.13,5.78,3.27,9.12,3.24,2.67,0,3.82,1,4.47,3.53A87.82,87.82,0,0,0,441,402c1.55,4,4,5.58,8.23,5.26,5.24-.39,10.48-1.05,15.68-1.79a7.18,7.18,0,0,1,5.62,1.37c4.08,3,8.24,6,12.21,9.14,3.36,2.69,6.86,3.53,10.89,1.87.84-.34,1.81-.4,2.6-.81,4.94-2.59,10-.75,15-.34a1.58,1.58,0,0,1,.77.23c1.56,1.16.6,8.8-1.23,9.68-10.48,5-21.21,9.47-32.1,13.54-17.31,6.47-34.89,11.86-53.28,14.27A121.05,121.05,0,0,1,411.43,455.45Zm100.11-34.69c-6.31-.77-12.44-.55-18.33,2.12-3.56,1.61-6.95.86-9.9-1.59-2.29-1.91-4.46-4-6.64-6-3.69-3.45-7.69-5.56-13.09-5.44a95.21,95.21,0,0,0-19.11,2,8.64,8.64,0,0,1-10-5.81,52.92,52.92,0,0,1-3.11-12c-.14-1.53-.88-2-2.29-2-3.52-.05-6-1.86-8.27-4.49-2.47-2.89-5.29-5.48-8-8.19-1.05-1.06-1.49-.92-1.82.65-.65,3.07-.37,6.14-.42,9.21-.1,5.44-3.07,7.79-8.34,6.5a20.82,20.82,0,0,1-2.07-.67c-6.64-2.35-13.06-5.42-20.22-6-4.69-.37-9.52-1-13.91,1.09-8,3.84-12.42,10.29-12.69,19.29-.15,5.1.88,9.86,4.21,14,5.43,6.7,12.75,10.74,20.48,13.83,18,7.23,36.79,9.38,56.13,7.3,13.44-1.45,26.46-4.62,39.45-8.22C486.9,432.59,499.07,426.39,511.54,420.76Z" transform="translate(-339.06 -242.98)"/><path class="cls-4" d="M900.92,456c-7.75-1.64-15.08-4.63-22.53-7.2a373.13,373.13,0,0,1-40.5-16.76c-1.66-.8-2.55-1.49-1.84-3.4a6.18,6.18,0,0,0,.32-2.14c0-2.58,1.4-3.4,3.79-3.41a22.73,22.73,0,0,0,5.4-.64A13,13,0,0,1,853,423c10.18,3.29,10.19,3.25,18.76-3.22l2.4-1.79c10.81-8.09,6.76-6.3,19.55-5,2.62.26,5.22.71,7.85.84,4.43.22,6.85-1.27,8.42-5.4,1.42-3.73,2.57-7.56,3.73-11.38.46-1.52,1.19-2.34,2.86-2.24,5.51.35,9.54-1.81,13-6.3,3.61-4.69,9-7.49,14-10.71,1.57-1,1.89,0,2,1.22.38,3.88.69,7.77,1.07,11.65.59,5.84,3.31,7.24,8.44,4.22,6.35-3.74,12.93-6.55,20.48-6.55,18.74,0,31.66,16.21,27.67,34.6-2.94,13.58-11.47,22.76-23,29.67a66.63,66.63,0,0,1-30.2,9.07c-.51-1.55-1.83-.92-2.78-.89a119.57,119.57,0,0,1-21.89-1.33c-7.55-1.21-15.06-2.69-22.59-4.05A1.59,1.59,0,0,0,900.92,456Zm39.44-70.63a25.81,25.81,0,0,0-5.11,5.27c-3.4,5.1-7.73,8.37-14.28,7.35-1.88-.29-2.6.51-2.51,2.43a46.11,46.11,0,0,1-1.63,13.42c-.9,3.63-3.66,6.3-7.22,6.44a112.56,112.56,0,0,1-13.86-.24c-4.94-.44-10.08-1.09-14.86.5-4.39,1.47-8,4.5-11.67,7.36-4.33,3.42-9,4.42-14.26,2.4q-4.83-1.85-9.69-3.56c-1.32-.47-2.68-.82-4,.18.61.9,1.46,1,2.21,1.27a21.21,21.21,0,0,1,2.21,1.05,200.58,200.58,0,0,0,49,18.26c14.72,3.49,29.48,6.49,44.68,6.72a117.36,117.36,0,0,0,18.15-1.05c11.37-1.59,21.25-6.27,29-14.6,5.3-5.68,9.16-12.46,8.77-20.71a46.13,46.13,0,0,0-3.83-16.56c-1.87-4.27-5-7.5-9.86-8.05a39,39,0,0,0-15.06,1.35c-5.75,1.64-11.21,4.17-17.1,5.36s-10.23-1.29-9.66-7.69C940,390.22,940.14,388.16,940.36,385.38Z" transform="translate(-339.06 -242.98)"/><path class="cls-6" d="M837.91,396.41a2.68,2.68,0,0,0,2.57-1.19c3.21-3.44,7-5.35,11.87-4.69a3.89,3.89,0,0,0,4.28-2.09c1-1.62,2.32-3,3.32-4.62,3.4-5.45,8.11-7.45,14.36-5.76,1.05.28,2.13.42,3.18.7,5.26,1.39,4.81,1.24,4.44-3.73-.52-7-.26-13.94-.43-20.91a19.66,19.66,0,0,1,.7-5.09,6.64,6.64,0,0,1,8.33-5c3.5.79,3.49.79,4.36-2.72q1.75-7.11,3.53-14.21a19.38,19.38,0,0,1,.83-2.58c2-4.77,5.82-5.58,9.68-2.16,4.82,4.29,8.21,9.61,11.37,15.12,1.63,2.84,2.08,2.78,4.16.33,3.58-4.2,7.28-8.29,11-12.4,2-2.23,4-4.48,6.07-6.59,3.73-3.71,7.48-3.26,10.36,1.11.33.5.44,1.32,1.25,1.26,1.06-.09.78-1,.92-1.69,2.46-11.72.92-23-3.7-34a54.66,54.66,0,0,0-8-13.78,15.52,15.52,0,0,0-11.07-5.58c-12.87-1.2-23.68,3.74-33.57,11.33-8.23,6.31-13.63,14.87-18.78,23.66-8,13.68-12.2,28.73-16.61,43.79-4,13.66-9.41,26.85-18,38.43a22.65,22.65,0,0,1-6.77,6.52c-1.37-2.95,0-5.4,1.78-7.48,3.14-3.7,4.86-8,6.39-12.51,6.28-18.37,11.73-37,19-55,4.43-11.05,9.23-21.93,16.9-31.24,9-10.88,19.88-18.79,33.8-22.05,20.75-4.86,37.2,5.34,42,26.07a79.34,79.34,0,0,1-2,42.44c-1-.5-1-1.64-1.46-2.46-2.81-5.24-7.39-6.25-11.87-2.36-5.69,4.94-11.09,10.2-16.29,15.64-3,3.16-3,3.13-5.62-.51-2.12-2.95-4.25-5.88-6.47-8.76a15.65,15.65,0,0,0-2.88-2.87c-3.72-2.82-7.91-1.52-9.2,3A58.59,58.59,0,0,0,899,345.67c-.08,2.22-.63,3-3,2.6-6.27-1-8.67,1.16-9,7.58-.42,8.26.11,16.51.11,24.76,0,4-.07,3.95-3.84,3.31a61,61,0,0,0-9.72-1.15,8.38,8.38,0,0,0-7.06,3.4c-1.8,2.28-3.71,4.47-5.48,6.77-.89,1.15-1.57,1.35-2.88.44-3.6-2.51-5.84-2.26-9.28.63s-6.78,5.65-10.54,8.78A27.71,27.71,0,0,1,837.91,396.41Z" transform="translate(-339.06 -242.98)"/><path class="cls-7" d="M612,510.79c.46,8.42,2.8,16.42,5.42,24.35,3.61,10.91,2,21.3-3,31.36a24.39,24.39,0,0,1-4,5.48c-1.44,1.56-2.73,1.43-4.22.17a17.63,17.63,0,0,1-5.39-8.34A56.17,56.17,0,0,1,598.45,545c.17-6.79.49-13.61-1.38-20.29-1.36-4.84-3.72-9.24-5.79-13.78-1.38-3-3-6-3.43-9.4,1.24.14,1.15,1.61,2.27,2.1,4.31,1.86,8.41,4.25,12.79,5.87C605.74,510.55,608.72,512.3,612,510.79Z" transform="translate(-339.06 -242.98)"/><path class="cls-8" d="M594.58,456.28c2.38,0,4.33.66,4.84,3.3,1.13,5.85,4.38,7.74,10.18,7A10.81,10.81,0,0,1,618,468.9a5.22,5.22,0,0,0,1.21.5l1.32,5.42a20.47,20.47,0,0,0-2.09.48,24.85,24.85,0,0,1-19.69-.84c-3.56-1.66-6.07-4.51-9.09-6.76Q592.15,462,594.58,456.28Z" transform="translate(-339.06 -242.98)"/><path class="cls-9" d="M586.23,490.09c-.25-3.11-.49-6.21.42-9.26a9.12,9.12,0,0,1,2,.8,36.33,36.33,0,0,0,22.57,6.86c2.8-.1,5.6.05,8.41.08a21.33,21.33,0,0,1-3.44,9.19c-2.13.28-4.17,1.05-6.36,1.06-8,.05-14.87-3.1-21.22-7.64C587.85,490.65,587.24,490,586.23,490.09Z" transform="translate(-339.06 -242.98)"/><path class="cls-10" d="M586.23,490.09c1-.12,1.62.56,2.36,1.09,6.35,4.54,13.21,7.69,21.22,7.64,2.19,0,4.23-.78,6.36-1.06-2.08,4.12-3.8,8.36-4.15,13-3.3,1.51-6.28-.24-9.11-1.29-4.38-1.62-8.48-4-12.79-5.87-1.12-.49-1-2-2.27-2.1a6.69,6.69,0,0,1-.74-3.23c.84-.58.53-.91-.25-1.13-.12-.89-.23-1.78-.35-2.67.85-.51.66-.88-.17-1.14A6.47,6.47,0,0,1,586.23,490.09Z" transform="translate(-339.06 -242.98)"/><path class="cls-11" d="M619.61,488.57c-2.81,0-5.61-.18-8.41-.08a36.33,36.33,0,0,1-22.57-6.86,9.12,9.12,0,0,0-2-.8,24.31,24.31,0,0,1,1.57-7.63,14.51,14.51,0,0,0,1.41,1.61A30.92,30.92,0,0,0,614.51,482c2-.26,4.11-.43,6.17-.64Q620.14,485,619.61,488.57Z" transform="translate(-339.06 -242.98)"/><path class="cls-12" d="M620.68,481.38c-2.06.21-4.12.38-6.17.64a30.92,30.92,0,0,1-24.88-7.21,14.51,14.51,0,0,1-1.41-1.61,17.53,17.53,0,0,1,1.48-5.5c3,2.25,5.53,5.1,9.09,6.76a24.85,24.85,0,0,0,19.69.84,20.47,20.47,0,0,1,2.09-.48A13.61,13.61,0,0,1,620.68,481.38Z" transform="translate(-339.06 -242.98)"/><path class="cls-5" d="M510,374.05c-2-.05-2.37-1.75-2.92-3.1-3.87-9.36-6.61-19.11-9.83-28.7-4.63-13.78-9.06-27.64-14.91-41-5.47-12.46-12.47-23.91-23-32.83-8.74-7.42-18.6-12.27-30.27-13.19-2.49-.2-5.23.34-7.6-1.07,6.14-1,12.12.06,17.92,1.91,17.18,5.5,29.16,17.18,37.75,32.59,8.88,15.93,14.34,33.26,20.09,50.45,2.51,7.47,5,15,7.44,22.45A56.38,56.38,0,0,0,510,374.05Z" transform="translate(-339.06 -242.98)"/><path class="cls-12" d="M900.92,456a1.59,1.59,0,0,1,1.9-.64c7.53,1.36,15,2.84,22.59,4.05a119.57,119.57,0,0,0,21.89,1.33c1,0,2.27-.66,2.78.89C933.29,463.27,917,460.33,900.92,456Z" transform="translate(-339.06 -242.98)"/><path class="cls-5" d="M452.06,337.62c.25.1.72.2.72.29,0,3.06,1.8,2.68,4,2.5,5.77-.48,8,2.22,8.27,8.15.27,6.6.06,13.23.06,19.84,0,.8.15,1.7-1,1.89-.31-7.21.36-14.44-.14-21.66-.37-5.4-2.69-7.53-8-7.1C451.91,341.87,451.91,341.87,452.06,337.62Z" transform="translate(-339.06 -242.98)"/><path class="cls-5" d="M396.34,273.31c.79,2.42-.83,4.39-1.31,6.55a122.76,122.76,0,0,0-1.92,12.76,61.64,61.64,0,0,0,1.62,22.72,1.35,1.35,0,0,1-.59,1.65c-2.81-9.19-3-18.54-1.8-28C393.05,283.61,393.73,278.22,396.34,273.31Z" transform="translate(-339.06 -242.98)"/><path class="cls-5" d="M440.13,322c1-2.6,5.3-3.22,7.91-1.08a5.58,5.58,0,0,1,1.91,2.54,108.1,108.1,0,0,1,2.58,10.95,1.88,1.88,0,0,1-.58,2.2c-.66-3.08-1.31-6.16-2-9.24C448.64,321.1,446,319.64,440.13,322Z" transform="translate(-339.06 -242.98)"/><path class="cls-5" d="M429.23,336.29c-.06-3.47,2.68-5.51,4.31-8.07.92-1.44,1.59-3.57,3.95-3.61Q433.35,330.45,429.23,336.29Z" transform="translate(-339.06 -242.98)"/><path class="cls-5" d="M473.83,376.22c2.35-2,5-1.11,7.4-.41,2.07.6,4,1.72,4,4.37C482.32,376.28,478.18,376,473.83,376.22Z" transform="translate(-339.06 -242.98)"/><path class="cls-5" d="M404.11,262c.4,2.29-1.55,3.3-2.72,4.62-1.61,1.8-2.07,4.52-4.55,5.59A26.27,26.27,0,0,1,404.11,262Z" transform="translate(-339.06 -242.98)"/><path class="cls-2" d="M508.41,392.65l5.67,1.08c.13,1,.33,2.22-.52,2.74s-1.49-.67-2.15-1.18C510.36,394.48,509.4,393.54,508.41,392.65Z" transform="translate(-339.06 -242.98)"/><path class="cls-5" d="M394.36,318c1.17.68,2.32,1.41,3.78,1.11-.68,1.33-1.35,2.66-2.29,4.52A13.12,13.12,0,0,1,394.36,318Z" transform="translate(-339.06 -242.98)"/><path class="cls-5" d="M494.54,385.48c1.9-2.42,5.75-1.73,7,1.26C499.39,385.47,497.11,384.7,494.54,385.48Z" transform="translate(-339.06 -242.98)"/><path class="cls-5" d="M414.43,323.46a5.88,5.88,0,0,1,4.83,4.59A21.69,21.69,0,0,1,414.43,323.46Z" transform="translate(-339.06 -242.98)"/><path class="cls-5" d="M464.11,375.74c1.36,1.45,3.46-.09,4.87,1.2l-2.86.76C464.37,378.16,463.71,377.49,464.11,375.74Z" transform="translate(-339.06 -242.98)"/><path class="cls-5" d="M399.75,317.54c1.57-2.48,3.75-2.94,5.42-1.15A11,11,0,0,0,399.75,317.54Z" transform="translate(-339.06 -242.98)"/><path class="cls-5" d="M502.12,387.19c1.95,0,3.09,1,3.24,3A10.57,10.57,0,0,1,502.12,387.19Z" transform="translate(-339.06 -242.98)"/><path class="cls-6" d="M837.52,392c1.29,1,1,2.15.32,3.34A4.46,4.46,0,0,1,837.52,392Z" transform="translate(-339.06 -242.98)"/><path class="cls-5" d="M470,376.76c.69-1.63,1.7-1.18,2.75-.41A3.93,3.93,0,0,1,470,376.76Z" transform="translate(-339.06 -242.98)"/><path class="cls-5" d="M437.91,324.12c-.17-1.67.51-2.48,2.25-2.2A6.09,6.09,0,0,1,437.91,324.12Z" transform="translate(-339.06 -242.98)"/><path class="cls-5" d="M424.55,333.34c1.64-.11,1.94.89,1.83,2.23A5.11,5.11,0,0,1,424.55,333.34Z" transform="translate(-339.06 -242.98)"/><path class="cls-5" d="M407.81,317.54c1.34-.16,2.28.19,2.19,1.79A5,5,0,0,1,407.81,317.54Z" transform="translate(-339.06 -242.98)"/><path class="cls-5" d="M487.77,383.44c1.6-.11,1.93.86,1.84,2.17A4.3,4.3,0,0,1,487.77,383.44Z" transform="translate(-339.06 -242.98)"/><path class="cls-5" d="M485.18,380.16c1.55,0,1.78.95,1.71,2.18A3.69,3.69,0,0,1,485.18,380.16Z" transform="translate(-339.06 -242.98)"/><path class="cls-5" d="M514.29,392.13c-1-.77-.92-1.34.32-1.68A1.79,1.79,0,0,1,514.29,392.13Z" transform="translate(-339.06 -242.98)"/><path class="cls-5" d="M515.84,385c-.72-.53-.63-1.08,0-1.65A1,1,0,0,1,515.84,385Z" transform="translate(-339.06 -242.98)"/><path class="cls-5" d="M515.18,388.05c-.49-.64-.46-1.16.35-1.5A1.2,1.2,0,0,1,515.18,388.05Z" transform="translate(-339.06 -242.98)"/><path class="cls-5" d="M406.36,316.61c.88-.28,1.45-.07,1.48,1A1.7,1.7,0,0,1,406.36,316.61Z" transform="translate(-339.06 -242.98)"/><path class="cls-7" d="M586.34,493.36c.83.26,1,.63.17,1.14A.93.93,0,0,1,586.34,493.36Z" transform="translate(-339.06 -242.98)"/><path class="cls-7" d="M586.86,497.17c.78.22,1.09.55.25,1.13A.91.91,0,0,1,586.86,497.17Z" transform="translate(-339.06 -242.98)"/><path class="cls-5" d="M492.36,386.83c0-1,.56-1.34,1.5-1.13A2.05,2.05,0,0,1,492.36,386.83Z" transform="translate(-339.06 -242.98)"/><path class="cls-13" d="M798,421.48c.64,8.17-4.07,12.28-12.23,10.67-2.66-.52-5.3-1.15-8-1.55a11.67,11.67,0,0,0-10.41,3.29c-2.38,2.36-4.63,4.89-7.22,7-7.63,6.2-18.73,5.63-26.51.8-3-1.86-5.85-3.94-8.73-6A7.31,7.31,0,0,0,717,435c-3.79,1.76-7.71,2.48-11.82.8s-6.91-6.73-4.08-10.59a6.14,6.14,0,0,0,.58-1.52c4.43-1.82,8.86-2.31,13.4-.29a4,4,0,0,0,2.12-.15,16.28,16.28,0,0,1,12.47,2.48q2.8,1.9,5.57,3.9c9.79,7.07,15.6,6.46,23.45-2.6a21.32,21.32,0,0,1,13.3-7.27c3.3-.52,6.66-.62,10-1.37,5.67-1.28,11.32-2.08,15.79,3.05C797.78,421.48,797.9,421.46,798,421.48Z" transform="translate(-339.06 -242.98)"/><path class="cls-14" d="M564.2,432.66c-2.26-5.89,0-11.84,6-14.76,10.1-4.89,20.47-5.57,30.64-.37q8.21,4.2,16.32,8.6c8.77,4.79,16.94,4.14,24.71-2.25a59.56,59.56,0,0,1,5.4-4.11c3.12-2,6-1.68,8.63.91a11.94,11.94,0,0,1,3.7,10.1c-2.76-1-5.33-.27-7.86.85a11.45,11.45,0,0,1-5.5,1.29c-8.31-.6-15.83,1.67-23.16,5.53-11.5,6-14.89,4.29-22.22-2.91-5.26-5.16-11.45-8.19-19.07-7.58a6.82,6.82,0,0,1-2.62-.56C572.37,425.11,568,426.62,564.2,432.66Z" transform="translate(-339.06 -242.98)"/><path class="cls-13" d="M564.2,432.66c3.79-6,8.17-7.55,15-5.26a6.82,6.82,0,0,0,2.62.56c7.62-.61,13.81,2.42,19.07,7.58,7.33,7.2,10.72,8.95,22.22,2.91,7.33-3.86,14.85-6.13,23.16-5.53a11.45,11.45,0,0,0,5.5-1.29c2.53-1.12,5.1-1.86,7.86-.85,1.84,4.62.66,8.09-3.64,10.48-2.31,1.28-4.79,2.74-7.4,2.44-9.26-1.06-17.16,2.55-25.15,6.41-7.28,3.51-14.8,4.08-22.15-.1-3.35-1.9-5.93-4.76-8.8-7.24-3.68-3.19-7.53-4.9-12.41-2.76a19.79,19.79,0,0,1-6.27,1.68C567.15,442.26,563.69,438.43,564.2,432.66Z" transform="translate(-339.06 -242.98)"/><path class="cls-14" d="M798,421.48c-.09,0-.21,0-.26-.05-4.47-5.13-10.12-4.33-15.79-3.05-3.29.75-6.65.85-10,1.37a21.32,21.32,0,0,0-13.3,7.27c-7.85,9.06-13.66,9.67-23.45,2.6q-2.76-2-5.57-3.9a16.28,16.28,0,0,0-12.47-2.48,4,4,0,0,1-2.12.15c-4.54-2-9-1.53-13.4.29a11.94,11.94,0,0,1,4.08-11,6.06,6.06,0,0,1,8-.66c2.12,1.38,4.09,3,6.07,4.6,7.31,5.92,15.59,6.61,23.83,2.1,5.4-3,10.9-5.73,16.34-8.61,10.1-5.36,20.47-4.74,30.68,0C795.49,412.28,797.85,416.21,798,421.48Z" transform="translate(-339.06 -242.98)"/><path class="cls-3" d="M511.54,420.76c-12.47,5.63-24.64,11.83-37.88,15.51-13,3.6-26,6.77-39.45,8.22-19.34,2.08-38.1-.07-56.13-7.3-7.73-3.09-15.05-7.13-20.48-13.83-3.33-4.11-4.36-8.87-4.21-14,.27-9,4.67-15.45,12.69-19.29,4.39-2.1,9.22-1.46,13.91-1.09,7.16.57,13.58,3.64,20.22,6a20.82,20.82,0,0,0,2.07.67c5.27,1.29,8.24-1.06,8.34-6.5.05-3.07-.23-6.14.42-9.21.33-1.57.77-1.71,1.82-.65,2.67,2.71,5.49,5.3,8,8.19,2.24,2.63,4.75,4.44,8.27,4.49,1.41,0,2.15.48,2.29,2a52.92,52.92,0,0,0,3.11,12,8.64,8.64,0,0,0,10,5.81,95.21,95.21,0,0,1,19.11-2c5.4-.12,9.4,2,13.09,5.44,2.18,2,4.35,4.1,6.64,6,2.95,2.45,6.34,3.2,9.9,1.59C499.1,420.21,505.23,420,511.54,420.76Z" transform="translate(-339.06 -242.98)"/><path class="cls-3" d="M940.36,385.38c-.22,2.78-.36,4.84-.54,6.9-.57,6.4,3.92,8.85,9.66,7.69s11.35-3.72,17.1-5.36a39,39,0,0,1,15.06-1.35c4.9.55,8,3.78,9.86,8.05a46.13,46.13,0,0,1,3.83,16.56c.39,8.25-3.47,15-8.77,20.71-7.77,8.33-17.65,13-29,14.6a117.36,117.36,0,0,1-18.15,1.05c-15.2-.23-30-3.23-44.68-6.72a200.58,200.58,0,0,1-49-18.26,21.21,21.21,0,0,0-2.21-1.05c-.75-.3-1.6-.37-2.21-1.27,1.32-1,2.68-.65,4-.18q4.86,1.72,9.69,3.56c5.24,2,9.93,1,14.26-2.4,3.63-2.86,7.28-5.89,11.67-7.36,4.78-1.59,9.92-.94,14.86-.5a112.56,112.56,0,0,0,13.86.24c3.56-.14,6.32-2.81,7.22-6.44a46.11,46.11,0,0,0,1.63-13.42c-.09-1.92.63-2.72,2.51-2.43,6.55,1,10.88-2.25,14.28-7.35A25.81,25.81,0,0,1,940.36,385.38Z" transform="translate(-339.06 -242.98)"/></svg>